%TF.GenerationSoftware,KiCad,Pcbnew,7.0.8*%
%TF.CreationDate,2024-02-17T12:00:41+01:00*%
%TF.ProjectId,Pendulo_Invertido,50656e64-756c-46f5-9f49-6e7665727469,rev?*%
%TF.SameCoordinates,Original*%
%TF.FileFunction,Legend,Top*%
%TF.FilePolarity,Positive*%
%FSLAX46Y46*%
G04 Gerber Fmt 4.6, Leading zero omitted, Abs format (unit mm)*
G04 Created by KiCad (PCBNEW 7.0.8) date 2024-02-17 12:00:41*
%MOMM*%
%LPD*%
G01*
G04 APERTURE LIST*
%ADD10C,0.300000*%
%ADD11C,0.150000*%
%ADD12C,0.100000*%
%ADD13C,0.120000*%
G04 APERTURE END LIST*
D10*
X37790225Y-58050828D02*
X37790225Y-56550828D01*
X38504511Y-57050828D02*
X38504511Y-58050828D01*
X38504511Y-57193685D02*
X38575940Y-57122257D01*
X38575940Y-57122257D02*
X38718797Y-57050828D01*
X38718797Y-57050828D02*
X38933083Y-57050828D01*
X38933083Y-57050828D02*
X39075940Y-57122257D01*
X39075940Y-57122257D02*
X39147369Y-57265114D01*
X39147369Y-57265114D02*
X39147369Y-58050828D01*
X39718797Y-57050828D02*
X40075940Y-58050828D01*
X40075940Y-58050828D02*
X40433083Y-57050828D01*
X41575940Y-57979400D02*
X41433083Y-58050828D01*
X41433083Y-58050828D02*
X41147369Y-58050828D01*
X41147369Y-58050828D02*
X41004511Y-57979400D01*
X41004511Y-57979400D02*
X40933083Y-57836542D01*
X40933083Y-57836542D02*
X40933083Y-57265114D01*
X40933083Y-57265114D02*
X41004511Y-57122257D01*
X41004511Y-57122257D02*
X41147369Y-57050828D01*
X41147369Y-57050828D02*
X41433083Y-57050828D01*
X41433083Y-57050828D02*
X41575940Y-57122257D01*
X41575940Y-57122257D02*
X41647369Y-57265114D01*
X41647369Y-57265114D02*
X41647369Y-57407971D01*
X41647369Y-57407971D02*
X40933083Y-57550828D01*
X42290225Y-58050828D02*
X42290225Y-57050828D01*
X42290225Y-57336542D02*
X42361654Y-57193685D01*
X42361654Y-57193685D02*
X42433083Y-57122257D01*
X42433083Y-57122257D02*
X42575940Y-57050828D01*
X42575940Y-57050828D02*
X42718797Y-57050828D01*
X43004511Y-57050828D02*
X43575939Y-57050828D01*
X43218796Y-56550828D02*
X43218796Y-57836542D01*
X43218796Y-57836542D02*
X43290225Y-57979400D01*
X43290225Y-57979400D02*
X43433082Y-58050828D01*
X43433082Y-58050828D02*
X43575939Y-58050828D01*
X44647368Y-57979400D02*
X44504511Y-58050828D01*
X44504511Y-58050828D02*
X44218797Y-58050828D01*
X44218797Y-58050828D02*
X44075939Y-57979400D01*
X44075939Y-57979400D02*
X44004511Y-57836542D01*
X44004511Y-57836542D02*
X44004511Y-57265114D01*
X44004511Y-57265114D02*
X44075939Y-57122257D01*
X44075939Y-57122257D02*
X44218797Y-57050828D01*
X44218797Y-57050828D02*
X44504511Y-57050828D01*
X44504511Y-57050828D02*
X44647368Y-57122257D01*
X44647368Y-57122257D02*
X44718797Y-57265114D01*
X44718797Y-57265114D02*
X44718797Y-57407971D01*
X44718797Y-57407971D02*
X44004511Y-57550828D01*
X46004511Y-58050828D02*
X46004511Y-56550828D01*
X46004511Y-57979400D02*
X45861653Y-58050828D01*
X45861653Y-58050828D02*
X45575939Y-58050828D01*
X45575939Y-58050828D02*
X45433082Y-57979400D01*
X45433082Y-57979400D02*
X45361653Y-57907971D01*
X45361653Y-57907971D02*
X45290225Y-57765114D01*
X45290225Y-57765114D02*
X45290225Y-57336542D01*
X45290225Y-57336542D02*
X45361653Y-57193685D01*
X45361653Y-57193685D02*
X45433082Y-57122257D01*
X45433082Y-57122257D02*
X45575939Y-57050828D01*
X45575939Y-57050828D02*
X45861653Y-57050828D01*
X45861653Y-57050828D02*
X46004511Y-57122257D01*
X46718796Y-58050828D02*
X46718796Y-56550828D01*
X46718796Y-56550828D02*
X47290225Y-56550828D01*
X47290225Y-56550828D02*
X47433082Y-56622257D01*
X47433082Y-56622257D02*
X47504511Y-56693685D01*
X47504511Y-56693685D02*
X47575939Y-56836542D01*
X47575939Y-56836542D02*
X47575939Y-57050828D01*
X47575939Y-57050828D02*
X47504511Y-57193685D01*
X47504511Y-57193685D02*
X47433082Y-57265114D01*
X47433082Y-57265114D02*
X47290225Y-57336542D01*
X47290225Y-57336542D02*
X46718796Y-57336542D01*
X48790225Y-57979400D02*
X48647368Y-58050828D01*
X48647368Y-58050828D02*
X48361654Y-58050828D01*
X48361654Y-58050828D02*
X48218796Y-57979400D01*
X48218796Y-57979400D02*
X48147368Y-57836542D01*
X48147368Y-57836542D02*
X48147368Y-57265114D01*
X48147368Y-57265114D02*
X48218796Y-57122257D01*
X48218796Y-57122257D02*
X48361654Y-57050828D01*
X48361654Y-57050828D02*
X48647368Y-57050828D01*
X48647368Y-57050828D02*
X48790225Y-57122257D01*
X48790225Y-57122257D02*
X48861654Y-57265114D01*
X48861654Y-57265114D02*
X48861654Y-57407971D01*
X48861654Y-57407971D02*
X48147368Y-57550828D01*
X49504510Y-57050828D02*
X49504510Y-58050828D01*
X49504510Y-57193685D02*
X49575939Y-57122257D01*
X49575939Y-57122257D02*
X49718796Y-57050828D01*
X49718796Y-57050828D02*
X49933082Y-57050828D01*
X49933082Y-57050828D02*
X50075939Y-57122257D01*
X50075939Y-57122257D02*
X50147368Y-57265114D01*
X50147368Y-57265114D02*
X50147368Y-58050828D01*
X51504511Y-58050828D02*
X51504511Y-56550828D01*
X51504511Y-57979400D02*
X51361653Y-58050828D01*
X51361653Y-58050828D02*
X51075939Y-58050828D01*
X51075939Y-58050828D02*
X50933082Y-57979400D01*
X50933082Y-57979400D02*
X50861653Y-57907971D01*
X50861653Y-57907971D02*
X50790225Y-57765114D01*
X50790225Y-57765114D02*
X50790225Y-57336542D01*
X50790225Y-57336542D02*
X50861653Y-57193685D01*
X50861653Y-57193685D02*
X50933082Y-57122257D01*
X50933082Y-57122257D02*
X51075939Y-57050828D01*
X51075939Y-57050828D02*
X51361653Y-57050828D01*
X51361653Y-57050828D02*
X51504511Y-57122257D01*
X52861654Y-57050828D02*
X52861654Y-58050828D01*
X52218796Y-57050828D02*
X52218796Y-57836542D01*
X52218796Y-57836542D02*
X52290225Y-57979400D01*
X52290225Y-57979400D02*
X52433082Y-58050828D01*
X52433082Y-58050828D02*
X52647368Y-58050828D01*
X52647368Y-58050828D02*
X52790225Y-57979400D01*
X52790225Y-57979400D02*
X52861654Y-57907971D01*
X53790225Y-58050828D02*
X53647368Y-57979400D01*
X53647368Y-57979400D02*
X53575939Y-57836542D01*
X53575939Y-57836542D02*
X53575939Y-56550828D01*
X55004511Y-57050828D02*
X55004511Y-58050828D01*
X54361653Y-57050828D02*
X54361653Y-57836542D01*
X54361653Y-57836542D02*
X54433082Y-57979400D01*
X54433082Y-57979400D02*
X54575939Y-58050828D01*
X54575939Y-58050828D02*
X54790225Y-58050828D01*
X54790225Y-58050828D02*
X54933082Y-57979400D01*
X54933082Y-57979400D02*
X55004511Y-57907971D01*
X55718796Y-58050828D02*
X55718796Y-57050828D01*
X55718796Y-57193685D02*
X55790225Y-57122257D01*
X55790225Y-57122257D02*
X55933082Y-57050828D01*
X55933082Y-57050828D02*
X56147368Y-57050828D01*
X56147368Y-57050828D02*
X56290225Y-57122257D01*
X56290225Y-57122257D02*
X56361654Y-57265114D01*
X56361654Y-57265114D02*
X56361654Y-58050828D01*
X56361654Y-57265114D02*
X56433082Y-57122257D01*
X56433082Y-57122257D02*
X56575939Y-57050828D01*
X56575939Y-57050828D02*
X56790225Y-57050828D01*
X56790225Y-57050828D02*
X56933082Y-57122257D01*
X56933082Y-57122257D02*
X57004511Y-57265114D01*
X57004511Y-57265114D02*
X57004511Y-58050828D01*
X57361654Y-58193685D02*
X58504511Y-58193685D01*
X58647368Y-56550828D02*
X59147368Y-58050828D01*
X59147368Y-58050828D02*
X59647368Y-56550828D01*
X60433082Y-56550828D02*
X60575939Y-56550828D01*
X60575939Y-56550828D02*
X60718796Y-56622257D01*
X60718796Y-56622257D02*
X60790225Y-56693685D01*
X60790225Y-56693685D02*
X60861653Y-56836542D01*
X60861653Y-56836542D02*
X60933082Y-57122257D01*
X60933082Y-57122257D02*
X60933082Y-57479400D01*
X60933082Y-57479400D02*
X60861653Y-57765114D01*
X60861653Y-57765114D02*
X60790225Y-57907971D01*
X60790225Y-57907971D02*
X60718796Y-57979400D01*
X60718796Y-57979400D02*
X60575939Y-58050828D01*
X60575939Y-58050828D02*
X60433082Y-58050828D01*
X60433082Y-58050828D02*
X60290225Y-57979400D01*
X60290225Y-57979400D02*
X60218796Y-57907971D01*
X60218796Y-57907971D02*
X60147367Y-57765114D01*
X60147367Y-57765114D02*
X60075939Y-57479400D01*
X60075939Y-57479400D02*
X60075939Y-57122257D01*
X60075939Y-57122257D02*
X60147367Y-56836542D01*
X60147367Y-56836542D02*
X60218796Y-56693685D01*
X60218796Y-56693685D02*
X60290225Y-56622257D01*
X60290225Y-56622257D02*
X60433082Y-56550828D01*
X96800828Y-35388347D02*
X95300828Y-35388347D01*
X96729400Y-35388347D02*
X96800828Y-35531204D01*
X96800828Y-35531204D02*
X96800828Y-35816918D01*
X96800828Y-35816918D02*
X96729400Y-35959775D01*
X96729400Y-35959775D02*
X96657971Y-36031204D01*
X96657971Y-36031204D02*
X96515114Y-36102632D01*
X96515114Y-36102632D02*
X96086542Y-36102632D01*
X96086542Y-36102632D02*
X95943685Y-36031204D01*
X95943685Y-36031204D02*
X95872257Y-35959775D01*
X95872257Y-35959775D02*
X95800828Y-35816918D01*
X95800828Y-35816918D02*
X95800828Y-35531204D01*
X95800828Y-35531204D02*
X95872257Y-35388347D01*
X96800828Y-34031204D02*
X96015114Y-34031204D01*
X96015114Y-34031204D02*
X95872257Y-34102632D01*
X95872257Y-34102632D02*
X95800828Y-34245489D01*
X95800828Y-34245489D02*
X95800828Y-34531204D01*
X95800828Y-34531204D02*
X95872257Y-34674061D01*
X96729400Y-34031204D02*
X96800828Y-34174061D01*
X96800828Y-34174061D02*
X96800828Y-34531204D01*
X96800828Y-34531204D02*
X96729400Y-34674061D01*
X96729400Y-34674061D02*
X96586542Y-34745489D01*
X96586542Y-34745489D02*
X96443685Y-34745489D01*
X96443685Y-34745489D02*
X96300828Y-34674061D01*
X96300828Y-34674061D02*
X96229400Y-34531204D01*
X96229400Y-34531204D02*
X96229400Y-34174061D01*
X96229400Y-34174061D02*
X96157971Y-34031204D01*
X95800828Y-33316918D02*
X96800828Y-33316918D01*
X95943685Y-33316918D02*
X95872257Y-33245489D01*
X95872257Y-33245489D02*
X95800828Y-33102632D01*
X95800828Y-33102632D02*
X95800828Y-32888346D01*
X95800828Y-32888346D02*
X95872257Y-32745489D01*
X95872257Y-32745489D02*
X96015114Y-32674061D01*
X96015114Y-32674061D02*
X96800828Y-32674061D01*
X96800828Y-31959775D02*
X95800828Y-31959775D01*
X95300828Y-31959775D02*
X95372257Y-32031203D01*
X95372257Y-32031203D02*
X95443685Y-31959775D01*
X95443685Y-31959775D02*
X95372257Y-31888346D01*
X95372257Y-31888346D02*
X95300828Y-31959775D01*
X95300828Y-31959775D02*
X95443685Y-31959775D01*
X96800828Y-31031203D02*
X96729400Y-31174060D01*
X96729400Y-31174060D02*
X96586542Y-31245489D01*
X96586542Y-31245489D02*
X95300828Y-31245489D01*
X96800828Y-29816918D02*
X96015114Y-29816918D01*
X96015114Y-29816918D02*
X95872257Y-29888346D01*
X95872257Y-29888346D02*
X95800828Y-30031203D01*
X95800828Y-30031203D02*
X95800828Y-30316918D01*
X95800828Y-30316918D02*
X95872257Y-30459775D01*
X96729400Y-29816918D02*
X96800828Y-29959775D01*
X96800828Y-29959775D02*
X96800828Y-30316918D01*
X96800828Y-30316918D02*
X96729400Y-30459775D01*
X96729400Y-30459775D02*
X96586542Y-30531203D01*
X96586542Y-30531203D02*
X96443685Y-30531203D01*
X96443685Y-30531203D02*
X96300828Y-30459775D01*
X96300828Y-30459775D02*
X96229400Y-30316918D01*
X96229400Y-30316918D02*
X96229400Y-29959775D01*
X96229400Y-29959775D02*
X96157971Y-29816918D01*
X96800828Y-29102632D02*
X95300828Y-29102632D01*
X95872257Y-29102632D02*
X95800828Y-28959775D01*
X95800828Y-28959775D02*
X95800828Y-28674060D01*
X95800828Y-28674060D02*
X95872257Y-28531203D01*
X95872257Y-28531203D02*
X95943685Y-28459775D01*
X95943685Y-28459775D02*
X96086542Y-28388346D01*
X96086542Y-28388346D02*
X96515114Y-28388346D01*
X96515114Y-28388346D02*
X96657971Y-28459775D01*
X96657971Y-28459775D02*
X96729400Y-28531203D01*
X96729400Y-28531203D02*
X96800828Y-28674060D01*
X96800828Y-28674060D02*
X96800828Y-28959775D01*
X96800828Y-28959775D02*
X96729400Y-29102632D01*
X96657971Y-27745489D02*
X96729400Y-27674060D01*
X96729400Y-27674060D02*
X96800828Y-27745489D01*
X96800828Y-27745489D02*
X96729400Y-27816917D01*
X96729400Y-27816917D02*
X96657971Y-27745489D01*
X96657971Y-27745489D02*
X96800828Y-27745489D01*
X96800828Y-27174060D02*
X95800828Y-26388346D01*
X95800828Y-27174060D02*
X96800828Y-26388346D01*
X95800828Y-25959774D02*
X96800828Y-25602631D01*
X95800828Y-25245488D02*
X96800828Y-25602631D01*
X96800828Y-25602631D02*
X97157971Y-25745488D01*
X97157971Y-25745488D02*
X97229400Y-25816917D01*
X97229400Y-25816917D02*
X97300828Y-25959774D01*
X95800828Y-24816917D02*
X95800828Y-24031203D01*
X95800828Y-24031203D02*
X96800828Y-24816917D01*
X96800828Y-24816917D02*
X96800828Y-24031203D01*
D11*
X91940476Y-9904819D02*
X91940476Y-8904819D01*
X91940476Y-8904819D02*
X92273809Y-9619104D01*
X92273809Y-9619104D02*
X92607142Y-8904819D01*
X92607142Y-8904819D02*
X92607142Y-9904819D01*
X93035714Y-9000057D02*
X93083333Y-8952438D01*
X93083333Y-8952438D02*
X93178571Y-8904819D01*
X93178571Y-8904819D02*
X93416666Y-8904819D01*
X93416666Y-8904819D02*
X93511904Y-8952438D01*
X93511904Y-8952438D02*
X93559523Y-9000057D01*
X93559523Y-9000057D02*
X93607142Y-9095295D01*
X93607142Y-9095295D02*
X93607142Y-9190533D01*
X93607142Y-9190533D02*
X93559523Y-9333390D01*
X93559523Y-9333390D02*
X92988095Y-9904819D01*
X92988095Y-9904819D02*
X93607142Y-9904819D01*
X6940476Y-9904819D02*
X6940476Y-8904819D01*
X6940476Y-8904819D02*
X7273809Y-9619104D01*
X7273809Y-9619104D02*
X7607142Y-8904819D01*
X7607142Y-8904819D02*
X7607142Y-9904819D01*
X8607142Y-9904819D02*
X8035714Y-9904819D01*
X8321428Y-9904819D02*
X8321428Y-8904819D01*
X8321428Y-8904819D02*
X8226190Y-9047676D01*
X8226190Y-9047676D02*
X8130952Y-9142914D01*
X8130952Y-9142914D02*
X8035714Y-9190533D01*
D12*
X61474286Y-6703609D02*
X61807619Y-6703609D01*
X61950476Y-7227419D02*
X61474286Y-7227419D01*
X61474286Y-7227419D02*
X61474286Y-6227419D01*
X61474286Y-6227419D02*
X61950476Y-6227419D01*
X62331429Y-7179800D02*
X62474286Y-7227419D01*
X62474286Y-7227419D02*
X62712381Y-7227419D01*
X62712381Y-7227419D02*
X62807619Y-7179800D01*
X62807619Y-7179800D02*
X62855238Y-7132180D01*
X62855238Y-7132180D02*
X62902857Y-7036942D01*
X62902857Y-7036942D02*
X62902857Y-6941704D01*
X62902857Y-6941704D02*
X62855238Y-6846466D01*
X62855238Y-6846466D02*
X62807619Y-6798847D01*
X62807619Y-6798847D02*
X62712381Y-6751228D01*
X62712381Y-6751228D02*
X62521905Y-6703609D01*
X62521905Y-6703609D02*
X62426667Y-6655990D01*
X62426667Y-6655990D02*
X62379048Y-6608371D01*
X62379048Y-6608371D02*
X62331429Y-6513133D01*
X62331429Y-6513133D02*
X62331429Y-6417895D01*
X62331429Y-6417895D02*
X62379048Y-6322657D01*
X62379048Y-6322657D02*
X62426667Y-6275038D01*
X62426667Y-6275038D02*
X62521905Y-6227419D01*
X62521905Y-6227419D02*
X62760000Y-6227419D01*
X62760000Y-6227419D02*
X62902857Y-6275038D01*
X63331429Y-7227419D02*
X63331429Y-6227419D01*
X63331429Y-6227419D02*
X63712381Y-6227419D01*
X63712381Y-6227419D02*
X63807619Y-6275038D01*
X63807619Y-6275038D02*
X63855238Y-6322657D01*
X63855238Y-6322657D02*
X63902857Y-6417895D01*
X63902857Y-6417895D02*
X63902857Y-6560752D01*
X63902857Y-6560752D02*
X63855238Y-6655990D01*
X63855238Y-6655990D02*
X63807619Y-6703609D01*
X63807619Y-6703609D02*
X63712381Y-6751228D01*
X63712381Y-6751228D02*
X63331429Y-6751228D01*
X64236191Y-6227419D02*
X64855238Y-6227419D01*
X64855238Y-6227419D02*
X64521905Y-6608371D01*
X64521905Y-6608371D02*
X64664762Y-6608371D01*
X64664762Y-6608371D02*
X64760000Y-6655990D01*
X64760000Y-6655990D02*
X64807619Y-6703609D01*
X64807619Y-6703609D02*
X64855238Y-6798847D01*
X64855238Y-6798847D02*
X64855238Y-7036942D01*
X64855238Y-7036942D02*
X64807619Y-7132180D01*
X64807619Y-7132180D02*
X64760000Y-7179800D01*
X64760000Y-7179800D02*
X64664762Y-7227419D01*
X64664762Y-7227419D02*
X64379048Y-7227419D01*
X64379048Y-7227419D02*
X64283810Y-7179800D01*
X64283810Y-7179800D02*
X64236191Y-7132180D01*
X65236191Y-6322657D02*
X65283810Y-6275038D01*
X65283810Y-6275038D02*
X65379048Y-6227419D01*
X65379048Y-6227419D02*
X65617143Y-6227419D01*
X65617143Y-6227419D02*
X65712381Y-6275038D01*
X65712381Y-6275038D02*
X65760000Y-6322657D01*
X65760000Y-6322657D02*
X65807619Y-6417895D01*
X65807619Y-6417895D02*
X65807619Y-6513133D01*
X65807619Y-6513133D02*
X65760000Y-6655990D01*
X65760000Y-6655990D02*
X65188572Y-7227419D01*
X65188572Y-7227419D02*
X65807619Y-7227419D01*
X66236191Y-6846466D02*
X66998096Y-6846466D01*
X67474286Y-7227419D02*
X67474286Y-6227419D01*
X67474286Y-6227419D02*
X67712381Y-6227419D01*
X67712381Y-6227419D02*
X67855238Y-6275038D01*
X67855238Y-6275038D02*
X67950476Y-6370276D01*
X67950476Y-6370276D02*
X67998095Y-6465514D01*
X67998095Y-6465514D02*
X68045714Y-6655990D01*
X68045714Y-6655990D02*
X68045714Y-6798847D01*
X68045714Y-6798847D02*
X67998095Y-6989323D01*
X67998095Y-6989323D02*
X67950476Y-7084561D01*
X67950476Y-7084561D02*
X67855238Y-7179800D01*
X67855238Y-7179800D02*
X67712381Y-7227419D01*
X67712381Y-7227419D02*
X67474286Y-7227419D01*
X68474286Y-6703609D02*
X68807619Y-6703609D01*
X68950476Y-7227419D02*
X68474286Y-7227419D01*
X68474286Y-7227419D02*
X68474286Y-6227419D01*
X68474286Y-6227419D02*
X68950476Y-6227419D01*
X69236191Y-6227419D02*
X69569524Y-7227419D01*
X69569524Y-7227419D02*
X69902857Y-6227419D01*
X70236191Y-7227419D02*
X70236191Y-6227419D01*
X70807619Y-7227419D02*
X70379048Y-6655990D01*
X70807619Y-6227419D02*
X70236191Y-6798847D01*
X71236191Y-7227419D02*
X71236191Y-6227419D01*
X71569524Y-6227419D02*
X72140952Y-6227419D01*
X71855238Y-7227419D02*
X71855238Y-6227419D01*
X72474286Y-6846466D02*
X73236191Y-6846466D01*
X73569524Y-6227419D02*
X73902857Y-7227419D01*
X73902857Y-7227419D02*
X74236190Y-6227419D01*
X75093333Y-7227419D02*
X74521905Y-7227419D01*
X74807619Y-7227419D02*
X74807619Y-6227419D01*
X74807619Y-6227419D02*
X74712381Y-6370276D01*
X74712381Y-6370276D02*
X74617143Y-6465514D01*
X74617143Y-6465514D02*
X74521905Y-6513133D01*
D11*
X7583333Y-22909580D02*
X7535714Y-22957200D01*
X7535714Y-22957200D02*
X7392857Y-23004819D01*
X7392857Y-23004819D02*
X7297619Y-23004819D01*
X7297619Y-23004819D02*
X7154762Y-22957200D01*
X7154762Y-22957200D02*
X7059524Y-22861961D01*
X7059524Y-22861961D02*
X7011905Y-22766723D01*
X7011905Y-22766723D02*
X6964286Y-22576247D01*
X6964286Y-22576247D02*
X6964286Y-22433390D01*
X6964286Y-22433390D02*
X7011905Y-22242914D01*
X7011905Y-22242914D02*
X7059524Y-22147676D01*
X7059524Y-22147676D02*
X7154762Y-22052438D01*
X7154762Y-22052438D02*
X7297619Y-22004819D01*
X7297619Y-22004819D02*
X7392857Y-22004819D01*
X7392857Y-22004819D02*
X7535714Y-22052438D01*
X7535714Y-22052438D02*
X7583333Y-22100057D01*
X8535714Y-23004819D02*
X7964286Y-23004819D01*
X8250000Y-23004819D02*
X8250000Y-22004819D01*
X8250000Y-22004819D02*
X8154762Y-22147676D01*
X8154762Y-22147676D02*
X8059524Y-22242914D01*
X8059524Y-22242914D02*
X7964286Y-22290533D01*
X2731009Y-37385714D02*
X2778628Y-37242857D01*
X2778628Y-37242857D02*
X2826247Y-37195238D01*
X2826247Y-37195238D02*
X2921485Y-37147619D01*
X2921485Y-37147619D02*
X3064342Y-37147619D01*
X3064342Y-37147619D02*
X3159580Y-37195238D01*
X3159580Y-37195238D02*
X3207200Y-37242857D01*
X3207200Y-37242857D02*
X3254819Y-37338095D01*
X3254819Y-37338095D02*
X3254819Y-37719047D01*
X3254819Y-37719047D02*
X2254819Y-37719047D01*
X2254819Y-37719047D02*
X2254819Y-37385714D01*
X2254819Y-37385714D02*
X2302438Y-37290476D01*
X2302438Y-37290476D02*
X2350057Y-37242857D01*
X2350057Y-37242857D02*
X2445295Y-37195238D01*
X2445295Y-37195238D02*
X2540533Y-37195238D01*
X2540533Y-37195238D02*
X2635771Y-37242857D01*
X2635771Y-37242857D02*
X2683390Y-37290476D01*
X2683390Y-37290476D02*
X2731009Y-37385714D01*
X2731009Y-37385714D02*
X2731009Y-37719047D01*
X2254819Y-36861904D02*
X2254819Y-36290476D01*
X3254819Y-36576190D02*
X2254819Y-36576190D01*
X3254819Y-35433333D02*
X3254819Y-36004761D01*
X3254819Y-35719047D02*
X2254819Y-35719047D01*
X2254819Y-35719047D02*
X2397676Y-35814285D01*
X2397676Y-35814285D02*
X2492914Y-35909523D01*
X2492914Y-35909523D02*
X2540533Y-36004761D01*
X92583333Y-17809580D02*
X92535714Y-17857200D01*
X92535714Y-17857200D02*
X92392857Y-17904819D01*
X92392857Y-17904819D02*
X92297619Y-17904819D01*
X92297619Y-17904819D02*
X92154762Y-17857200D01*
X92154762Y-17857200D02*
X92059524Y-17761961D01*
X92059524Y-17761961D02*
X92011905Y-17666723D01*
X92011905Y-17666723D02*
X91964286Y-17476247D01*
X91964286Y-17476247D02*
X91964286Y-17333390D01*
X91964286Y-17333390D02*
X92011905Y-17142914D01*
X92011905Y-17142914D02*
X92059524Y-17047676D01*
X92059524Y-17047676D02*
X92154762Y-16952438D01*
X92154762Y-16952438D02*
X92297619Y-16904819D01*
X92297619Y-16904819D02*
X92392857Y-16904819D01*
X92392857Y-16904819D02*
X92535714Y-16952438D01*
X92535714Y-16952438D02*
X92583333Y-17000057D01*
X92964286Y-17000057D02*
X93011905Y-16952438D01*
X93011905Y-16952438D02*
X93107143Y-16904819D01*
X93107143Y-16904819D02*
X93345238Y-16904819D01*
X93345238Y-16904819D02*
X93440476Y-16952438D01*
X93440476Y-16952438D02*
X93488095Y-17000057D01*
X93488095Y-17000057D02*
X93535714Y-17095295D01*
X93535714Y-17095295D02*
X93535714Y-17190533D01*
X93535714Y-17190533D02*
X93488095Y-17333390D01*
X93488095Y-17333390D02*
X92916667Y-17904819D01*
X92916667Y-17904819D02*
X93535714Y-17904819D01*
D12*
X36707143Y-28159919D02*
X36707143Y-27159919D01*
X36707143Y-27159919D02*
X37040476Y-27874204D01*
X37040476Y-27874204D02*
X37373809Y-27159919D01*
X37373809Y-27159919D02*
X37373809Y-28159919D01*
X37850000Y-28159919D02*
X37850000Y-27159919D01*
X37850000Y-27159919D02*
X38230952Y-27159919D01*
X38230952Y-27159919D02*
X38326190Y-27207538D01*
X38326190Y-27207538D02*
X38373809Y-27255157D01*
X38373809Y-27255157D02*
X38421428Y-27350395D01*
X38421428Y-27350395D02*
X38421428Y-27493252D01*
X38421428Y-27493252D02*
X38373809Y-27588490D01*
X38373809Y-27588490D02*
X38326190Y-27636109D01*
X38326190Y-27636109D02*
X38230952Y-27683728D01*
X38230952Y-27683728D02*
X37850000Y-27683728D01*
X38850000Y-27159919D02*
X38850000Y-27969442D01*
X38850000Y-27969442D02*
X38897619Y-28064680D01*
X38897619Y-28064680D02*
X38945238Y-28112300D01*
X38945238Y-28112300D02*
X39040476Y-28159919D01*
X39040476Y-28159919D02*
X39230952Y-28159919D01*
X39230952Y-28159919D02*
X39326190Y-28112300D01*
X39326190Y-28112300D02*
X39373809Y-28064680D01*
X39373809Y-28064680D02*
X39421428Y-27969442D01*
X39421428Y-27969442D02*
X39421428Y-27159919D01*
X39659524Y-28255157D02*
X40421428Y-28255157D01*
X41088095Y-27159919D02*
X40897619Y-27159919D01*
X40897619Y-27159919D02*
X40802381Y-27207538D01*
X40802381Y-27207538D02*
X40754762Y-27255157D01*
X40754762Y-27255157D02*
X40659524Y-27398014D01*
X40659524Y-27398014D02*
X40611905Y-27588490D01*
X40611905Y-27588490D02*
X40611905Y-27969442D01*
X40611905Y-27969442D02*
X40659524Y-28064680D01*
X40659524Y-28064680D02*
X40707143Y-28112300D01*
X40707143Y-28112300D02*
X40802381Y-28159919D01*
X40802381Y-28159919D02*
X40992857Y-28159919D01*
X40992857Y-28159919D02*
X41088095Y-28112300D01*
X41088095Y-28112300D02*
X41135714Y-28064680D01*
X41135714Y-28064680D02*
X41183333Y-27969442D01*
X41183333Y-27969442D02*
X41183333Y-27731347D01*
X41183333Y-27731347D02*
X41135714Y-27636109D01*
X41135714Y-27636109D02*
X41088095Y-27588490D01*
X41088095Y-27588490D02*
X40992857Y-27540871D01*
X40992857Y-27540871D02*
X40802381Y-27540871D01*
X40802381Y-27540871D02*
X40707143Y-27588490D01*
X40707143Y-27588490D02*
X40659524Y-27636109D01*
X40659524Y-27636109D02*
X40611905Y-27731347D01*
X41802381Y-27159919D02*
X41897619Y-27159919D01*
X41897619Y-27159919D02*
X41992857Y-27207538D01*
X41992857Y-27207538D02*
X42040476Y-27255157D01*
X42040476Y-27255157D02*
X42088095Y-27350395D01*
X42088095Y-27350395D02*
X42135714Y-27540871D01*
X42135714Y-27540871D02*
X42135714Y-27778966D01*
X42135714Y-27778966D02*
X42088095Y-27969442D01*
X42088095Y-27969442D02*
X42040476Y-28064680D01*
X42040476Y-28064680D02*
X41992857Y-28112300D01*
X41992857Y-28112300D02*
X41897619Y-28159919D01*
X41897619Y-28159919D02*
X41802381Y-28159919D01*
X41802381Y-28159919D02*
X41707143Y-28112300D01*
X41707143Y-28112300D02*
X41659524Y-28064680D01*
X41659524Y-28064680D02*
X41611905Y-27969442D01*
X41611905Y-27969442D02*
X41564286Y-27778966D01*
X41564286Y-27778966D02*
X41564286Y-27540871D01*
X41564286Y-27540871D02*
X41611905Y-27350395D01*
X41611905Y-27350395D02*
X41659524Y-27255157D01*
X41659524Y-27255157D02*
X41707143Y-27207538D01*
X41707143Y-27207538D02*
X41802381Y-27159919D01*
X43040476Y-27159919D02*
X42564286Y-27159919D01*
X42564286Y-27159919D02*
X42516667Y-27636109D01*
X42516667Y-27636109D02*
X42564286Y-27588490D01*
X42564286Y-27588490D02*
X42659524Y-27540871D01*
X42659524Y-27540871D02*
X42897619Y-27540871D01*
X42897619Y-27540871D02*
X42992857Y-27588490D01*
X42992857Y-27588490D02*
X43040476Y-27636109D01*
X43040476Y-27636109D02*
X43088095Y-27731347D01*
X43088095Y-27731347D02*
X43088095Y-27969442D01*
X43088095Y-27969442D02*
X43040476Y-28064680D01*
X43040476Y-28064680D02*
X42992857Y-28112300D01*
X42992857Y-28112300D02*
X42897619Y-28159919D01*
X42897619Y-28159919D02*
X42659524Y-28159919D01*
X42659524Y-28159919D02*
X42564286Y-28112300D01*
X42564286Y-28112300D02*
X42516667Y-28064680D01*
X43707143Y-27159919D02*
X43802381Y-27159919D01*
X43802381Y-27159919D02*
X43897619Y-27207538D01*
X43897619Y-27207538D02*
X43945238Y-27255157D01*
X43945238Y-27255157D02*
X43992857Y-27350395D01*
X43992857Y-27350395D02*
X44040476Y-27540871D01*
X44040476Y-27540871D02*
X44040476Y-27778966D01*
X44040476Y-27778966D02*
X43992857Y-27969442D01*
X43992857Y-27969442D02*
X43945238Y-28064680D01*
X43945238Y-28064680D02*
X43897619Y-28112300D01*
X43897619Y-28112300D02*
X43802381Y-28159919D01*
X43802381Y-28159919D02*
X43707143Y-28159919D01*
X43707143Y-28159919D02*
X43611905Y-28112300D01*
X43611905Y-28112300D02*
X43564286Y-28064680D01*
X43564286Y-28064680D02*
X43516667Y-27969442D01*
X43516667Y-27969442D02*
X43469048Y-27778966D01*
X43469048Y-27778966D02*
X43469048Y-27540871D01*
X43469048Y-27540871D02*
X43516667Y-27350395D01*
X43516667Y-27350395D02*
X43564286Y-27255157D01*
X43564286Y-27255157D02*
X43611905Y-27207538D01*
X43611905Y-27207538D02*
X43707143Y-27159919D01*
D11*
X10109580Y-36766666D02*
X10157200Y-36814285D01*
X10157200Y-36814285D02*
X10204819Y-36957142D01*
X10204819Y-36957142D02*
X10204819Y-37052380D01*
X10204819Y-37052380D02*
X10157200Y-37195237D01*
X10157200Y-37195237D02*
X10061961Y-37290475D01*
X10061961Y-37290475D02*
X9966723Y-37338094D01*
X9966723Y-37338094D02*
X9776247Y-37385713D01*
X9776247Y-37385713D02*
X9633390Y-37385713D01*
X9633390Y-37385713D02*
X9442914Y-37338094D01*
X9442914Y-37338094D02*
X9347676Y-37290475D01*
X9347676Y-37290475D02*
X9252438Y-37195237D01*
X9252438Y-37195237D02*
X9204819Y-37052380D01*
X9204819Y-37052380D02*
X9204819Y-36957142D01*
X9204819Y-36957142D02*
X9252438Y-36814285D01*
X9252438Y-36814285D02*
X9300057Y-36766666D01*
X9204819Y-36433332D02*
X9204819Y-35814285D01*
X9204819Y-35814285D02*
X9585771Y-36147618D01*
X9585771Y-36147618D02*
X9585771Y-36004761D01*
X9585771Y-36004761D02*
X9633390Y-35909523D01*
X9633390Y-35909523D02*
X9681009Y-35861904D01*
X9681009Y-35861904D02*
X9776247Y-35814285D01*
X9776247Y-35814285D02*
X10014342Y-35814285D01*
X10014342Y-35814285D02*
X10109580Y-35861904D01*
X10109580Y-35861904D02*
X10157200Y-35909523D01*
X10157200Y-35909523D02*
X10204819Y-36004761D01*
X10204819Y-36004761D02*
X10204819Y-36290475D01*
X10204819Y-36290475D02*
X10157200Y-36385713D01*
X10157200Y-36385713D02*
X10109580Y-36433332D01*
D12*
X35730952Y-4537419D02*
X36302380Y-4537419D01*
X36016666Y-5537419D02*
X36016666Y-4537419D01*
X36969047Y-5013609D02*
X37111904Y-5061228D01*
X37111904Y-5061228D02*
X37159523Y-5108847D01*
X37159523Y-5108847D02*
X37207142Y-5204085D01*
X37207142Y-5204085D02*
X37207142Y-5346942D01*
X37207142Y-5346942D02*
X37159523Y-5442180D01*
X37159523Y-5442180D02*
X37111904Y-5489800D01*
X37111904Y-5489800D02*
X37016666Y-5537419D01*
X37016666Y-5537419D02*
X36635714Y-5537419D01*
X36635714Y-5537419D02*
X36635714Y-4537419D01*
X36635714Y-4537419D02*
X36969047Y-4537419D01*
X36969047Y-4537419D02*
X37064285Y-4585038D01*
X37064285Y-4585038D02*
X37111904Y-4632657D01*
X37111904Y-4632657D02*
X37159523Y-4727895D01*
X37159523Y-4727895D02*
X37159523Y-4823133D01*
X37159523Y-4823133D02*
X37111904Y-4918371D01*
X37111904Y-4918371D02*
X37064285Y-4965990D01*
X37064285Y-4965990D02*
X36969047Y-5013609D01*
X36969047Y-5013609D02*
X36635714Y-5013609D01*
X38064285Y-4537419D02*
X37873809Y-4537419D01*
X37873809Y-4537419D02*
X37778571Y-4585038D01*
X37778571Y-4585038D02*
X37730952Y-4632657D01*
X37730952Y-4632657D02*
X37635714Y-4775514D01*
X37635714Y-4775514D02*
X37588095Y-4965990D01*
X37588095Y-4965990D02*
X37588095Y-5346942D01*
X37588095Y-5346942D02*
X37635714Y-5442180D01*
X37635714Y-5442180D02*
X37683333Y-5489800D01*
X37683333Y-5489800D02*
X37778571Y-5537419D01*
X37778571Y-5537419D02*
X37969047Y-5537419D01*
X37969047Y-5537419D02*
X38064285Y-5489800D01*
X38064285Y-5489800D02*
X38111904Y-5442180D01*
X38111904Y-5442180D02*
X38159523Y-5346942D01*
X38159523Y-5346942D02*
X38159523Y-5108847D01*
X38159523Y-5108847D02*
X38111904Y-5013609D01*
X38111904Y-5013609D02*
X38064285Y-4965990D01*
X38064285Y-4965990D02*
X37969047Y-4918371D01*
X37969047Y-4918371D02*
X37778571Y-4918371D01*
X37778571Y-4918371D02*
X37683333Y-4965990D01*
X37683333Y-4965990D02*
X37635714Y-5013609D01*
X37635714Y-5013609D02*
X37588095Y-5108847D01*
X39016666Y-4537419D02*
X38826190Y-4537419D01*
X38826190Y-4537419D02*
X38730952Y-4585038D01*
X38730952Y-4585038D02*
X38683333Y-4632657D01*
X38683333Y-4632657D02*
X38588095Y-4775514D01*
X38588095Y-4775514D02*
X38540476Y-4965990D01*
X38540476Y-4965990D02*
X38540476Y-5346942D01*
X38540476Y-5346942D02*
X38588095Y-5442180D01*
X38588095Y-5442180D02*
X38635714Y-5489800D01*
X38635714Y-5489800D02*
X38730952Y-5537419D01*
X38730952Y-5537419D02*
X38921428Y-5537419D01*
X38921428Y-5537419D02*
X39016666Y-5489800D01*
X39016666Y-5489800D02*
X39064285Y-5442180D01*
X39064285Y-5442180D02*
X39111904Y-5346942D01*
X39111904Y-5346942D02*
X39111904Y-5108847D01*
X39111904Y-5108847D02*
X39064285Y-5013609D01*
X39064285Y-5013609D02*
X39016666Y-4965990D01*
X39016666Y-4965990D02*
X38921428Y-4918371D01*
X38921428Y-4918371D02*
X38730952Y-4918371D01*
X38730952Y-4918371D02*
X38635714Y-4965990D01*
X38635714Y-4965990D02*
X38588095Y-5013609D01*
X38588095Y-5013609D02*
X38540476Y-5108847D01*
X40064285Y-5537419D02*
X39492857Y-5537419D01*
X39778571Y-5537419D02*
X39778571Y-4537419D01*
X39778571Y-4537419D02*
X39683333Y-4680276D01*
X39683333Y-4680276D02*
X39588095Y-4775514D01*
X39588095Y-4775514D02*
X39492857Y-4823133D01*
X40445238Y-4632657D02*
X40492857Y-4585038D01*
X40492857Y-4585038D02*
X40588095Y-4537419D01*
X40588095Y-4537419D02*
X40826190Y-4537419D01*
X40826190Y-4537419D02*
X40921428Y-4585038D01*
X40921428Y-4585038D02*
X40969047Y-4632657D01*
X40969047Y-4632657D02*
X41016666Y-4727895D01*
X41016666Y-4727895D02*
X41016666Y-4823133D01*
X41016666Y-4823133D02*
X40969047Y-4965990D01*
X40969047Y-4965990D02*
X40397619Y-5537419D01*
X40397619Y-5537419D02*
X41016666Y-5537419D01*
X41778571Y-5013609D02*
X41445238Y-5013609D01*
X41445238Y-5537419D02*
X41445238Y-4537419D01*
X41445238Y-4537419D02*
X41921428Y-4537419D01*
X42302381Y-5537419D02*
X42302381Y-4537419D01*
X42302381Y-4537419D02*
X42873809Y-5537419D01*
X42873809Y-5537419D02*
X42873809Y-4537419D01*
X43873809Y-4585038D02*
X43778571Y-4537419D01*
X43778571Y-4537419D02*
X43635714Y-4537419D01*
X43635714Y-4537419D02*
X43492857Y-4585038D01*
X43492857Y-4585038D02*
X43397619Y-4680276D01*
X43397619Y-4680276D02*
X43350000Y-4775514D01*
X43350000Y-4775514D02*
X43302381Y-4965990D01*
X43302381Y-4965990D02*
X43302381Y-5108847D01*
X43302381Y-5108847D02*
X43350000Y-5299323D01*
X43350000Y-5299323D02*
X43397619Y-5394561D01*
X43397619Y-5394561D02*
X43492857Y-5489800D01*
X43492857Y-5489800D02*
X43635714Y-5537419D01*
X43635714Y-5537419D02*
X43730952Y-5537419D01*
X43730952Y-5537419D02*
X43873809Y-5489800D01*
X43873809Y-5489800D02*
X43921428Y-5442180D01*
X43921428Y-5442180D02*
X43921428Y-5108847D01*
X43921428Y-5108847D02*
X43730952Y-5108847D01*
X44873809Y-5537419D02*
X44302381Y-5537419D01*
X44588095Y-5537419D02*
X44588095Y-4537419D01*
X44588095Y-4537419D02*
X44492857Y-4680276D01*
X44492857Y-4680276D02*
X44397619Y-4775514D01*
X44397619Y-4775514D02*
X44302381Y-4823133D01*
D11*
X22238095Y-2104819D02*
X22238095Y-2914342D01*
X22238095Y-2914342D02*
X22285714Y-3009580D01*
X22285714Y-3009580D02*
X22333333Y-3057200D01*
X22333333Y-3057200D02*
X22428571Y-3104819D01*
X22428571Y-3104819D02*
X22619047Y-3104819D01*
X22619047Y-3104819D02*
X22714285Y-3057200D01*
X22714285Y-3057200D02*
X22761904Y-3009580D01*
X22761904Y-3009580D02*
X22809523Y-2914342D01*
X22809523Y-2914342D02*
X22809523Y-2104819D01*
X23809523Y-3104819D02*
X23238095Y-3104819D01*
X23523809Y-3104819D02*
X23523809Y-2104819D01*
X23523809Y-2104819D02*
X23428571Y-2247676D01*
X23428571Y-2247676D02*
X23333333Y-2342914D01*
X23333333Y-2342914D02*
X23238095Y-2390533D01*
X20987200Y-54290832D02*
X21034819Y-54147975D01*
X21034819Y-54147975D02*
X21034819Y-53909880D01*
X21034819Y-53909880D02*
X20987200Y-53814642D01*
X20987200Y-53814642D02*
X20939580Y-53767023D01*
X20939580Y-53767023D02*
X20844342Y-53719404D01*
X20844342Y-53719404D02*
X20749104Y-53719404D01*
X20749104Y-53719404D02*
X20653866Y-53767023D01*
X20653866Y-53767023D02*
X20606247Y-53814642D01*
X20606247Y-53814642D02*
X20558628Y-53909880D01*
X20558628Y-53909880D02*
X20511009Y-54100356D01*
X20511009Y-54100356D02*
X20463390Y-54195594D01*
X20463390Y-54195594D02*
X20415771Y-54243213D01*
X20415771Y-54243213D02*
X20320533Y-54290832D01*
X20320533Y-54290832D02*
X20225295Y-54290832D01*
X20225295Y-54290832D02*
X20130057Y-54243213D01*
X20130057Y-54243213D02*
X20082438Y-54195594D01*
X20082438Y-54195594D02*
X20034819Y-54100356D01*
X20034819Y-54100356D02*
X20034819Y-53862261D01*
X20034819Y-53862261D02*
X20082438Y-53719404D01*
X20034819Y-53386070D02*
X21034819Y-53147975D01*
X21034819Y-53147975D02*
X20320533Y-52957499D01*
X20320533Y-52957499D02*
X21034819Y-52767023D01*
X21034819Y-52767023D02*
X20034819Y-52528928D01*
X21034819Y-51624166D02*
X21034819Y-52195594D01*
X21034819Y-51909880D02*
X20034819Y-51909880D01*
X20034819Y-51909880D02*
X20177676Y-52005118D01*
X20177676Y-52005118D02*
X20272914Y-52100356D01*
X20272914Y-52100356D02*
X20320533Y-52195594D01*
X11987200Y-54143332D02*
X12034819Y-54000475D01*
X12034819Y-54000475D02*
X12034819Y-53762380D01*
X12034819Y-53762380D02*
X11987200Y-53667142D01*
X11987200Y-53667142D02*
X11939580Y-53619523D01*
X11939580Y-53619523D02*
X11844342Y-53571904D01*
X11844342Y-53571904D02*
X11749104Y-53571904D01*
X11749104Y-53571904D02*
X11653866Y-53619523D01*
X11653866Y-53619523D02*
X11606247Y-53667142D01*
X11606247Y-53667142D02*
X11558628Y-53762380D01*
X11558628Y-53762380D02*
X11511009Y-53952856D01*
X11511009Y-53952856D02*
X11463390Y-54048094D01*
X11463390Y-54048094D02*
X11415771Y-54095713D01*
X11415771Y-54095713D02*
X11320533Y-54143332D01*
X11320533Y-54143332D02*
X11225295Y-54143332D01*
X11225295Y-54143332D02*
X11130057Y-54095713D01*
X11130057Y-54095713D02*
X11082438Y-54048094D01*
X11082438Y-54048094D02*
X11034819Y-53952856D01*
X11034819Y-53952856D02*
X11034819Y-53714761D01*
X11034819Y-53714761D02*
X11082438Y-53571904D01*
X11034819Y-53238570D02*
X12034819Y-53000475D01*
X12034819Y-53000475D02*
X11320533Y-52809999D01*
X11320533Y-52809999D02*
X12034819Y-52619523D01*
X12034819Y-52619523D02*
X11034819Y-52381428D01*
X11130057Y-52048094D02*
X11082438Y-52000475D01*
X11082438Y-52000475D02*
X11034819Y-51905237D01*
X11034819Y-51905237D02*
X11034819Y-51667142D01*
X11034819Y-51667142D02*
X11082438Y-51571904D01*
X11082438Y-51571904D02*
X11130057Y-51524285D01*
X11130057Y-51524285D02*
X11225295Y-51476666D01*
X11225295Y-51476666D02*
X11320533Y-51476666D01*
X11320533Y-51476666D02*
X11463390Y-51524285D01*
X11463390Y-51524285D02*
X12034819Y-52095713D01*
X12034819Y-52095713D02*
X12034819Y-51476666D01*
D13*
%TO.C,M2*%
X96550000Y-12800000D02*
X95800000Y-12800000D01*
X95800000Y-12800000D02*
X95800000Y-15750000D01*
X95800000Y-15750000D02*
X92750000Y-15750000D01*
X89700000Y-12800000D02*
X89700000Y-15750000D01*
X93250000Y-10550000D02*
X92250000Y-10550000D01*
X92250000Y-10550000D02*
X92250000Y-11300000D01*
X92250000Y-11300000D02*
X93250000Y-11300000D01*
X94750000Y-11300000D02*
X96550000Y-11300000D01*
X96550000Y-10550000D02*
X94750000Y-10550000D01*
X88650000Y-10250000D02*
X88650000Y-11500000D01*
X88940000Y-10540000D02*
X88940000Y-16510000D01*
X88950000Y-10550000D02*
X88950000Y-11300000D01*
X88940000Y-16510000D02*
X96560000Y-16510000D01*
X93250000Y-11300000D02*
X93250000Y-10550000D01*
X88950000Y-12800000D02*
X89700000Y-12800000D01*
X88950000Y-11300000D02*
X90750000Y-11300000D01*
X89900000Y-10250000D02*
X88650000Y-10250000D01*
X96550000Y-11300000D02*
X96550000Y-10550000D01*
X90750000Y-10550000D02*
X88950000Y-10550000D01*
X96560000Y-10540000D02*
X88940000Y-10540000D01*
X89700000Y-15750000D02*
X92750000Y-15750000D01*
X94750000Y-10550000D02*
X94750000Y-11300000D01*
X96560000Y-16510000D02*
X96560000Y-10540000D01*
X90750000Y-11300000D02*
X90750000Y-10550000D01*
%TO.C,M1*%
X11550000Y-12800000D02*
X10800000Y-12800000D01*
X10800000Y-12800000D02*
X10800000Y-15750000D01*
X10800000Y-15750000D02*
X7750000Y-15750000D01*
X4700000Y-12800000D02*
X4700000Y-15750000D01*
X8250000Y-10550000D02*
X7250000Y-10550000D01*
X7250000Y-10550000D02*
X7250000Y-11300000D01*
X7250000Y-11300000D02*
X8250000Y-11300000D01*
X9750000Y-11300000D02*
X11550000Y-11300000D01*
X11550000Y-10550000D02*
X9750000Y-10550000D01*
X3650000Y-10250000D02*
X3650000Y-11500000D01*
X3940000Y-10540000D02*
X3940000Y-16510000D01*
X3950000Y-10550000D02*
X3950000Y-11300000D01*
X3940000Y-16510000D02*
X11560000Y-16510000D01*
X8250000Y-11300000D02*
X8250000Y-10550000D01*
X3950000Y-12800000D02*
X4700000Y-12800000D01*
X3950000Y-11300000D02*
X5750000Y-11300000D01*
X4900000Y-10250000D02*
X3650000Y-10250000D01*
X11550000Y-11300000D02*
X11550000Y-10550000D01*
X5750000Y-10550000D02*
X3950000Y-10550000D01*
X11560000Y-10540000D02*
X3940000Y-10540000D01*
X4700000Y-15750000D02*
X7750000Y-15750000D01*
X9750000Y-10550000D02*
X9750000Y-11300000D01*
X11560000Y-16510000D02*
X11560000Y-10540000D01*
X5750000Y-11300000D02*
X5750000Y-10550000D01*
%TO.C,G\u002A\u002A\u002A*%
G36*
X98214843Y-39391363D02*
G01*
X98216857Y-39433379D01*
X98218592Y-39496837D01*
X98220053Y-39578985D01*
X98221246Y-39677071D01*
X98222174Y-39788342D01*
X98222845Y-39910048D01*
X98223263Y-40039435D01*
X98223433Y-40173752D01*
X98223362Y-40310246D01*
X98223053Y-40446166D01*
X98222514Y-40578760D01*
X98221748Y-40705275D01*
X98220762Y-40822960D01*
X98219560Y-40929062D01*
X98218148Y-41020830D01*
X98216532Y-41095511D01*
X98214717Y-41150354D01*
X98212708Y-41182606D01*
X98211343Y-41190089D01*
X98196130Y-41200843D01*
X98165265Y-41204305D01*
X98118835Y-41201714D01*
X98028922Y-41181246D01*
X97952953Y-41137851D01*
X97892266Y-41072314D01*
X97888778Y-41067148D01*
X97851407Y-41010689D01*
X97847701Y-40244062D01*
X97843996Y-39477435D01*
X97875831Y-39417156D01*
X97924989Y-39352078D01*
X97992798Y-39304717D01*
X98075840Y-39277101D01*
X98121499Y-39271364D01*
X98205943Y-39265987D01*
X98214843Y-39391363D01*
G37*
G36*
X94829800Y-38471561D02*
G01*
X94832330Y-38472518D01*
X94836825Y-38487926D01*
X94843968Y-38524914D01*
X94852837Y-38578221D01*
X94862511Y-38642585D01*
X94864177Y-38654297D01*
X94874846Y-38734847D01*
X94879715Y-38794317D01*
X94877404Y-38838341D01*
X94866529Y-38872555D01*
X94845709Y-38902594D01*
X94813561Y-38934093D01*
X94790691Y-38953962D01*
X94728256Y-39007330D01*
X94866653Y-39270110D01*
X94909297Y-39350926D01*
X94961609Y-39449821D01*
X95020507Y-39560981D01*
X95082909Y-39678596D01*
X95145734Y-39796854D01*
X95205899Y-39909943D01*
X95217808Y-39932303D01*
X95299959Y-40086899D01*
X95372726Y-40224599D01*
X95435594Y-40344412D01*
X95488052Y-40445346D01*
X95529587Y-40526408D01*
X95559687Y-40586608D01*
X95577839Y-40624952D01*
X95583550Y-40640209D01*
X95573527Y-40652047D01*
X95548601Y-40671890D01*
X95516486Y-40694488D01*
X95484897Y-40714592D01*
X95461549Y-40726953D01*
X95454244Y-40728192D01*
X95447084Y-40715595D01*
X95428278Y-40681097D01*
X95398898Y-40626700D01*
X95360018Y-40554406D01*
X95312713Y-40466218D01*
X95258056Y-40364139D01*
X95197122Y-40250172D01*
X95130983Y-40126320D01*
X95060715Y-39994585D01*
X95034277Y-39944984D01*
X94961775Y-39809009D01*
X94892243Y-39678755D01*
X94826859Y-39556413D01*
X94766796Y-39444177D01*
X94713233Y-39344241D01*
X94667343Y-39258799D01*
X94630304Y-39190042D01*
X94603292Y-39140165D01*
X94587481Y-39111362D01*
X94585152Y-39107251D01*
X94522248Y-39017767D01*
X94451634Y-38951434D01*
X94375608Y-38908794D01*
X94296471Y-38890393D01*
X94216521Y-38896773D01*
X94138058Y-38928478D01*
X94065193Y-38984286D01*
X94008468Y-39055173D01*
X93978193Y-39131622D01*
X93974503Y-39212806D01*
X93997533Y-39297899D01*
X94009590Y-39323901D01*
X94059423Y-39397189D01*
X94105560Y-39438029D01*
X94134268Y-39456768D01*
X94159844Y-39468659D01*
X94189652Y-39475252D01*
X94231056Y-39478100D01*
X94291419Y-39478751D01*
X94298934Y-39478756D01*
X94433570Y-39478780D01*
X94579536Y-39756314D01*
X94684816Y-39956264D01*
X94781932Y-40140247D01*
X94870175Y-40306931D01*
X94948839Y-40454985D01*
X95017214Y-40583075D01*
X95074594Y-40689870D01*
X95120269Y-40774036D01*
X95122721Y-40778518D01*
X95211647Y-40940992D01*
X95306654Y-40949506D01*
X95368035Y-40958682D01*
X95430495Y-40973815D01*
X95471468Y-40988050D01*
X95514360Y-41003417D01*
X95547243Y-41009491D01*
X95559028Y-41007641D01*
X95575608Y-40996560D01*
X95610105Y-40972595D01*
X95658418Y-40938623D01*
X95716448Y-40897525D01*
X95759563Y-40866836D01*
X95835672Y-40812711D01*
X95925152Y-40749325D01*
X96019173Y-40682921D01*
X96108903Y-40619739D01*
X96152207Y-40589338D01*
X96169032Y-40577525D01*
X96695289Y-40577525D01*
X96717411Y-40659696D01*
X96764718Y-40736744D01*
X96769653Y-40742637D01*
X96836905Y-40804851D01*
X96910824Y-40841331D01*
X96991548Y-40852985D01*
X97081253Y-40840424D01*
X97159829Y-40803822D01*
X97224788Y-40744799D01*
X97271014Y-40670756D01*
X97297497Y-40590163D01*
X97298523Y-40512807D01*
X97274091Y-40432696D01*
X97271014Y-40425939D01*
X97222495Y-40349857D01*
X97159693Y-40293664D01*
X97086907Y-40258110D01*
X97008437Y-40243944D01*
X96928584Y-40251915D01*
X96851647Y-40282773D01*
X96781926Y-40337267D01*
X96779092Y-40340218D01*
X96726223Y-40413794D01*
X96698258Y-40494227D01*
X96695289Y-40577525D01*
X96169032Y-40577525D01*
X96221403Y-40540755D01*
X96285781Y-40495427D01*
X96340929Y-40456469D01*
X96382436Y-40426998D01*
X96405031Y-40410759D01*
X96436387Y-40378665D01*
X96468067Y-40331446D01*
X96483553Y-40301357D01*
X96529682Y-40223921D01*
X96594501Y-40147499D01*
X96670589Y-40080272D01*
X96707324Y-40054692D01*
X96809772Y-40004887D01*
X96919989Y-39978514D01*
X97033578Y-39974815D01*
X97146143Y-39993029D01*
X97253287Y-40032397D01*
X97350614Y-40092159D01*
X97433728Y-40171555D01*
X97441960Y-40181638D01*
X97510170Y-40283121D01*
X97553733Y-40387219D01*
X97574179Y-40499118D01*
X97573039Y-40623999D01*
X97572942Y-40625124D01*
X97551246Y-40728946D01*
X97506548Y-40831051D01*
X97442621Y-40925664D01*
X97363236Y-41007006D01*
X97289145Y-41059815D01*
X97181627Y-41107625D01*
X97065998Y-41131733D01*
X96991548Y-41132053D01*
X96947040Y-41132244D01*
X96829538Y-41109268D01*
X96718275Y-41062911D01*
X96689796Y-41046320D01*
X96638419Y-41014356D01*
X96493474Y-41114152D01*
X96421696Y-41163711D01*
X96332059Y-41225824D01*
X96228870Y-41297492D01*
X96116439Y-41375719D01*
X95999073Y-41457506D01*
X95881080Y-41539854D01*
X95766768Y-41619766D01*
X95741731Y-41637290D01*
X95653687Y-41698752D01*
X95583900Y-41746427D01*
X95528453Y-41782065D01*
X95483426Y-41807420D01*
X95444902Y-41824244D01*
X95408962Y-41834290D01*
X95371689Y-41839310D01*
X95329164Y-41841057D01*
X95306424Y-41841173D01*
X95285682Y-41841278D01*
X95177044Y-41829157D01*
X95080257Y-41792873D01*
X94996104Y-41732770D01*
X94964851Y-41700662D01*
X94909595Y-41630219D01*
X94873376Y-41562622D01*
X94852634Y-41488671D01*
X94843900Y-41400055D01*
X95096181Y-41400055D01*
X95107849Y-41467534D01*
X95139660Y-41523804D01*
X95186663Y-41566104D01*
X95243902Y-41591670D01*
X95306424Y-41597741D01*
X95369277Y-41581553D01*
X95395381Y-41566921D01*
X95442324Y-41522357D01*
X95475347Y-41464934D01*
X95488684Y-41404877D01*
X95488732Y-41401333D01*
X95482461Y-41361387D01*
X95467155Y-41317926D01*
X95465059Y-41313596D01*
X95422959Y-41257402D01*
X95366070Y-41221020D01*
X95299731Y-41206147D01*
X95229283Y-41214483D01*
X95194739Y-41227621D01*
X95141306Y-41266818D01*
X95108204Y-41323385D01*
X95096212Y-41395960D01*
X95096181Y-41400055D01*
X94843900Y-41400055D01*
X94843813Y-41399168D01*
X94843374Y-41386531D01*
X94839761Y-41263413D01*
X94695525Y-40993887D01*
X94567881Y-40755599D01*
X94444427Y-40525595D01*
X94326707Y-40306741D01*
X94216264Y-40101899D01*
X94114641Y-39913934D01*
X94023382Y-39745711D01*
X93984499Y-39674261D01*
X93920814Y-39555428D01*
X93869431Y-39455358D01*
X93830877Y-39375142D01*
X93805679Y-39315871D01*
X93795113Y-39282571D01*
X93784567Y-39175249D01*
X93798005Y-39073749D01*
X93832583Y-38980227D01*
X93885453Y-38896840D01*
X93953772Y-38825743D01*
X94034694Y-38769092D01*
X94125373Y-38729045D01*
X94222965Y-38707757D01*
X94324623Y-38707384D01*
X94427502Y-38730083D01*
X94489701Y-38756209D01*
X94522291Y-38771922D01*
X94543161Y-38780750D01*
X94545963Y-38781450D01*
X94547940Y-38769032D01*
X94547799Y-38736084D01*
X94545613Y-38689068D01*
X94544758Y-38675917D01*
X94541768Y-38621445D01*
X94542857Y-38586073D01*
X94549410Y-38561955D01*
X94562815Y-38541245D01*
X94570098Y-38532515D01*
X94590475Y-38512705D01*
X94615391Y-38499249D01*
X94652129Y-38489485D01*
X94707973Y-38480750D01*
X94713882Y-38479964D01*
X94765823Y-38474029D01*
X94806720Y-38471086D01*
X94829800Y-38471561D01*
G37*
G36*
X97429208Y-39333182D02*
G01*
X97432173Y-39365415D01*
X97434541Y-39416079D01*
X97436302Y-39480144D01*
X97437443Y-39552582D01*
X97437952Y-39628365D01*
X97437819Y-39702462D01*
X97437031Y-39769846D01*
X97435577Y-39825488D01*
X97433446Y-39864359D01*
X97430625Y-39881429D01*
X97430472Y-39881614D01*
X97414470Y-39881014D01*
X97383000Y-39869907D01*
X97358502Y-39858487D01*
X97308633Y-39837720D01*
X97248425Y-39818775D01*
X97211217Y-39809945D01*
X97127047Y-39793385D01*
X97127047Y-39537897D01*
X97127047Y-39282409D01*
X97274250Y-39282409D01*
X97421454Y-39282409D01*
X97429208Y-39333182D01*
G37*
G36*
X96925816Y-38509452D02*
G01*
X96932313Y-38518059D01*
X96943503Y-38542737D01*
X96936154Y-38565965D01*
X96929778Y-38575601D01*
X96900096Y-38600496D01*
X96868199Y-38602805D01*
X96841998Y-38585056D01*
X96829406Y-38549775D01*
X96829179Y-38543460D01*
X96839166Y-38507732D01*
X96863863Y-38488859D01*
X96895378Y-38488784D01*
X96925816Y-38509452D01*
G37*
G36*
X96592938Y-38500298D02*
G01*
X96626854Y-38506201D01*
X96645454Y-38517078D01*
X96652626Y-38533803D01*
X96653166Y-38542511D01*
X96649639Y-38570845D01*
X96644140Y-38582871D01*
X96627746Y-38586461D01*
X96590071Y-38589375D01*
X96536910Y-38591291D01*
X96480809Y-38591898D01*
X96326504Y-38591898D01*
X96330747Y-38547894D01*
X96334989Y-38503891D01*
X96463614Y-38499922D01*
X96539821Y-38498496D01*
X96592938Y-38500298D01*
G37*
G36*
X95967684Y-38348015D02*
G01*
X95997980Y-38368950D01*
X96020100Y-38405088D01*
X96036670Y-38459339D01*
X96050313Y-38534612D01*
X96063653Y-38633818D01*
X96064267Y-38638723D01*
X96073714Y-38714926D01*
X96079864Y-38768473D01*
X96082785Y-38803578D01*
X96082546Y-38824455D01*
X96079215Y-38835316D01*
X96072862Y-38840374D01*
X96067585Y-38842392D01*
X96046470Y-38845758D01*
X96006452Y-38849140D01*
X95955700Y-38851865D01*
X95949115Y-38852122D01*
X95847569Y-38855917D01*
X95839695Y-38773691D01*
X95833332Y-38717547D01*
X95823828Y-38683594D01*
X95805779Y-38667039D01*
X95773785Y-38663088D01*
X95722442Y-38666950D01*
X95719693Y-38667221D01*
X95628127Y-38676243D01*
X95619773Y-38623916D01*
X95614164Y-38582929D01*
X95607763Y-38527560D01*
X95602447Y-38474900D01*
X95593475Y-38378212D01*
X95632516Y-38370520D01*
X95663041Y-38365542D01*
X95712112Y-38358653D01*
X95771372Y-38350997D01*
X95801507Y-38347325D01*
X95872071Y-38340112D01*
X95926589Y-38339372D01*
X95967684Y-38348015D01*
G37*
G36*
X95592542Y-38820585D02*
G01*
X95597090Y-38849147D01*
X95594942Y-38877688D01*
X95589769Y-38889763D01*
X95589689Y-38889765D01*
X95574495Y-38891199D01*
X95536785Y-38895182D01*
X95480950Y-38901239D01*
X95411384Y-38908892D01*
X95337243Y-38917135D01*
X95259140Y-38925648D01*
X95190979Y-38932677D01*
X95137051Y-38937814D01*
X95101647Y-38940646D01*
X95089076Y-38940829D01*
X95078463Y-38916836D01*
X95076036Y-38888214D01*
X95082884Y-38869334D01*
X95083629Y-38868814D01*
X95100175Y-38865056D01*
X95138357Y-38859104D01*
X95192882Y-38851598D01*
X95258456Y-38843174D01*
X95329785Y-38834471D01*
X95401576Y-38826128D01*
X95468533Y-38818781D01*
X95525365Y-38813071D01*
X95566776Y-38809633D01*
X95580165Y-38808963D01*
X95592542Y-38820585D01*
G37*
G36*
X95376814Y-38407300D02*
G01*
X95378522Y-38407918D01*
X95385971Y-38424218D01*
X95393544Y-38459239D01*
X95398498Y-38495842D01*
X95404831Y-38551297D01*
X95411863Y-38605420D01*
X95415704Y-38631432D01*
X95418909Y-38670265D01*
X95411741Y-38689378D01*
X95405847Y-38692739D01*
X95381401Y-38698067D01*
X95338969Y-38704278D01*
X95284685Y-38710789D01*
X95224685Y-38717020D01*
X95165104Y-38722387D01*
X95112078Y-38726310D01*
X95071743Y-38728206D01*
X95050233Y-38727494D01*
X95048345Y-38726649D01*
X95044425Y-38710040D01*
X95038491Y-38672814D01*
X95031489Y-38621269D01*
X95027093Y-38585436D01*
X95020281Y-38519732D01*
X95018327Y-38476713D01*
X95021231Y-38452423D01*
X95027046Y-38443821D01*
X95046653Y-38438405D01*
X95086095Y-38431910D01*
X95138898Y-38424997D01*
X95198591Y-38418327D01*
X95258701Y-38412561D01*
X95312756Y-38408361D01*
X95354285Y-38406387D01*
X95376814Y-38407300D01*
G37*
G36*
X94307773Y-39056714D02*
G01*
X94359641Y-39085850D01*
X94373124Y-39098273D01*
X94409475Y-39148702D01*
X94418788Y-39200218D01*
X94403443Y-39248561D01*
X94365601Y-39292075D01*
X94314386Y-39317577D01*
X94257747Y-39323009D01*
X94203630Y-39306316D01*
X94196650Y-39302059D01*
X94159172Y-39263595D01*
X94140067Y-39214369D01*
X94139456Y-39161975D01*
X94157460Y-39114009D01*
X94193107Y-39078723D01*
X94252533Y-39054367D01*
X94307773Y-39056714D01*
G37*
D12*
%TO.C,ESP32-DEVKIT-V1*%
X58100000Y-4230000D02*
X86270000Y-4230000D01*
X86270000Y-4230000D02*
X86270000Y-55540000D01*
X86270000Y-55540000D02*
X58100000Y-55540000D01*
X58100000Y-55540000D02*
X58100000Y-4230000D01*
X67360000Y-49540000D02*
X77010000Y-49540000D01*
X77010000Y-49540000D02*
X77010000Y-55540000D01*
X77010000Y-55540000D02*
X67360000Y-55540000D01*
X67360000Y-55540000D02*
X67360000Y-49540000D01*
D13*
%TO.C,C1*%
X9770000Y-21420000D02*
X9770000Y-20795000D01*
X9770000Y-21420000D02*
X5730000Y-21420000D01*
X9770000Y-19205000D02*
X9770000Y-18580000D01*
X9770000Y-18580000D02*
X5730000Y-18580000D01*
X5730000Y-21420000D02*
X5730000Y-20795000D01*
X5730000Y-19205000D02*
X5730000Y-18580000D01*
%TO.C,C2*%
X90730000Y-18580000D02*
X90730000Y-19205000D01*
X90730000Y-18580000D02*
X94770000Y-18580000D01*
X90730000Y-20795000D02*
X90730000Y-21420000D01*
X90730000Y-21420000D02*
X94770000Y-21420000D01*
X94770000Y-18580000D02*
X94770000Y-19205000D01*
X94770000Y-20795000D02*
X94770000Y-21420000D01*
D12*
%TO.C,MPU_6050*%
X32730000Y-26662500D02*
X48230000Y-26662500D01*
X48230000Y-26662500D02*
X48230000Y-46982500D01*
X48230000Y-46982500D02*
X32730000Y-46982500D01*
X32730000Y-46982500D02*
X32730000Y-26662500D01*
D13*
%TO.C,C3*%
X19120000Y-36600000D02*
G75*
G03*
X19120000Y-36600000I-4120000J0D01*
G01*
D12*
%TO.C,TB6612FNG1*%
X32730000Y-3950000D02*
X53180000Y-3950000D01*
X53180000Y-3950000D02*
X53180000Y-24450000D01*
X53180000Y-24450000D02*
X32730000Y-24450000D01*
X32730000Y-24450000D02*
X32730000Y-3950000D01*
X38930000Y-11450000D02*
X46930000Y-11450000D01*
X46930000Y-11450000D02*
X46930000Y-19450000D01*
X46930000Y-19450000D02*
X38930000Y-19450000D01*
X38930000Y-19450000D02*
X38930000Y-11450000D01*
X41230000Y-6050000D02*
X44630000Y-6050000D01*
X44630000Y-6050000D02*
X44630000Y-8950000D01*
X44630000Y-8950000D02*
X41230000Y-8950000D01*
X41230000Y-8950000D02*
X41230000Y-6050000D01*
D13*
%TO.C,U1*%
X17880000Y-3650000D02*
X17880000Y-19540000D01*
X17880000Y-3650000D02*
X28120000Y-3650000D01*
X17880000Y-19540000D02*
X28120000Y-19540000D01*
X20460000Y-19540000D02*
X20460000Y-22080000D01*
X23000000Y-19540000D02*
X23000000Y-22080000D01*
X25540000Y-19540000D02*
X25540000Y-22080000D01*
X28120000Y-3650000D02*
X28120000Y-19540000D01*
%TO.C,SW1*%
X21340000Y-58147500D02*
X22723000Y-58147500D01*
X21340000Y-58147500D02*
X21340000Y-56763500D01*
X21580000Y-57907500D02*
X26420000Y-57907500D01*
X21580000Y-57907500D02*
X21580000Y-48007500D01*
X26420000Y-57907500D02*
X26420000Y-48007500D01*
X23365000Y-54987500D02*
X24635000Y-54987500D01*
X23485000Y-54987500D02*
X23485000Y-53634167D01*
X23605000Y-54987500D02*
X23605000Y-53634167D01*
X23725000Y-54987500D02*
X23725000Y-53634167D01*
X23845000Y-54987500D02*
X23845000Y-53634167D01*
X23965000Y-54987500D02*
X23965000Y-53634167D01*
X24085000Y-54987500D02*
X24085000Y-53634167D01*
X24205000Y-54987500D02*
X24205000Y-53634167D01*
X24325000Y-54987500D02*
X24325000Y-53634167D01*
X24445000Y-54987500D02*
X24445000Y-53634167D01*
X24565000Y-54987500D02*
X24565000Y-53634167D01*
X24635000Y-54987500D02*
X24635000Y-50927500D01*
X23365000Y-53634167D02*
X24635000Y-53634167D01*
X23365000Y-50927500D02*
X23365000Y-54987500D01*
X24635000Y-50927500D02*
X23365000Y-50927500D01*
X21580000Y-48007500D02*
X26420000Y-48007500D01*
%TO.C,SW2*%
X12340000Y-58000000D02*
X13723000Y-58000000D01*
X12340000Y-58000000D02*
X12340000Y-56616000D01*
X12580000Y-57760000D02*
X17420000Y-57760000D01*
X12580000Y-57760000D02*
X12580000Y-47860000D01*
X17420000Y-57760000D02*
X17420000Y-47860000D01*
X14365000Y-54840000D02*
X15635000Y-54840000D01*
X14485000Y-54840000D02*
X14485000Y-53486667D01*
X14605000Y-54840000D02*
X14605000Y-53486667D01*
X14725000Y-54840000D02*
X14725000Y-53486667D01*
X14845000Y-54840000D02*
X14845000Y-53486667D01*
X14965000Y-54840000D02*
X14965000Y-53486667D01*
X15085000Y-54840000D02*
X15085000Y-53486667D01*
X15205000Y-54840000D02*
X15205000Y-53486667D01*
X15325000Y-54840000D02*
X15325000Y-53486667D01*
X15445000Y-54840000D02*
X15445000Y-53486667D01*
X15565000Y-54840000D02*
X15565000Y-53486667D01*
X15635000Y-54840000D02*
X15635000Y-50780000D01*
X14365000Y-53486667D02*
X15635000Y-53486667D01*
X14365000Y-50780000D02*
X14365000Y-54840000D01*
X15635000Y-50780000D02*
X14365000Y-50780000D01*
X12580000Y-47860000D02*
X17420000Y-47860000D01*
%TD*%
M02*
