%TF.GenerationSoftware,KiCad,Pcbnew,7.0.8*%
%TF.CreationDate,2024-02-17T12:00:41+01:00*%
%TF.ProjectId,Pendulo_Invertido,50656e64-756c-46f5-9f49-6e7665727469,rev?*%
%TF.SameCoordinates,Original*%
%TF.FileFunction,Copper,L2,Bot*%
%TF.FilePolarity,Positive*%
%FSLAX46Y46*%
G04 Gerber Fmt 4.6, Leading zero omitted, Abs format (unit mm)*
G04 Created by KiCad (PCBNEW 7.0.8) date 2024-02-17 12:00:41*
%MOMM*%
%LPD*%
G01*
G04 APERTURE LIST*
G04 Aperture macros list*
%AMRoundRect*
0 Rectangle with rounded corners*
0 $1 Rounding radius*
0 $2 $3 $4 $5 $6 $7 $8 $9 X,Y pos of 4 corners*
0 Add a 4 corners polygon primitive as box body*
4,1,4,$2,$3,$4,$5,$6,$7,$8,$9,$2,$3,0*
0 Add four circle primitives for the rounded corners*
1,1,$1+$1,$2,$3*
1,1,$1+$1,$4,$5*
1,1,$1+$1,$6,$7*
1,1,$1+$1,$8,$9*
0 Add four rect primitives between the rounded corners*
20,1,$1+$1,$2,$3,$4,$5,0*
20,1,$1+$1,$4,$5,$6,$7,0*
20,1,$1+$1,$6,$7,$8,$9,0*
20,1,$1+$1,$8,$9,$2,$3,0*%
G04 Aperture macros list end*
%TA.AperFunction,ComponentPad*%
%ADD10RoundRect,0.250000X-0.600000X-0.750000X0.600000X-0.750000X0.600000X0.750000X-0.600000X0.750000X0*%
%TD*%
%TA.AperFunction,ComponentPad*%
%ADD11O,1.700000X2.000000*%
%TD*%
%TA.AperFunction,ComponentPad*%
%ADD12R,1.524000X1.524000*%
%TD*%
%TA.AperFunction,ComponentPad*%
%ADD13C,1.524000*%
%TD*%
%TA.AperFunction,ComponentPad*%
%ADD14C,1.600000*%
%TD*%
%TA.AperFunction,ComponentPad*%
%ADD15RoundRect,0.250000X1.750000X-1.750000X1.750000X1.750000X-1.750000X1.750000X-1.750000X-1.750000X0*%
%TD*%
%TA.AperFunction,ComponentPad*%
%ADD16C,4.000000*%
%TD*%
%TA.AperFunction,ComponentPad*%
%ADD17C,5.600000*%
%TD*%
%TA.AperFunction,ComponentPad*%
%ADD18R,1.905000X2.000000*%
%TD*%
%TA.AperFunction,ComponentPad*%
%ADD19O,1.905000X2.000000*%
%TD*%
%TA.AperFunction,ComponentPad*%
%ADD20R,1.600000X1.600000*%
%TD*%
%TA.AperFunction,ComponentPad*%
%ADD21O,1.600000X1.600000*%
%TD*%
%TA.AperFunction,ViaPad*%
%ADD22C,0.800000*%
%TD*%
%TA.AperFunction,Conductor*%
%ADD23C,0.300000*%
%TD*%
%TA.AperFunction,Conductor*%
%ADD24C,1.000000*%
%TD*%
G04 APERTURE END LIST*
D10*
%TO.P,M2,1,+*%
%TO.N,Net-(M2-+)*%
X91500000Y-13000000D03*
D11*
%TO.P,M2,2,-*%
%TO.N,Net-(M2--)*%
X94000000Y-13000000D03*
%TD*%
D10*
%TO.P,M1,1,+*%
%TO.N,Net-(M1-+)*%
X6500000Y-13000000D03*
D11*
%TO.P,M1,2,-*%
%TO.N,Net-(M1--)*%
X9000000Y-13000000D03*
%TD*%
D12*
%TO.P,ESP32-DEVKIT-V1,1,VIN*%
%TO.N,/+5V*%
X59370000Y-45940000D03*
D13*
%TO.P,ESP32-DEVKIT-V1,2,GND*%
%TO.N,GND*%
X59370000Y-43400000D03*
%TO.P,ESP32-DEVKIT-V1,3,D13*%
%TO.N,Net-(ESP32-DEVKIT-V1-D13)*%
X59370000Y-40860000D03*
%TO.P,ESP32-DEVKIT-V1,4,D12*%
%TO.N,unconnected-(ESP32-DEVKIT-V1-D12-Pad4)*%
X59370000Y-38320000D03*
%TO.P,ESP32-DEVKIT-V1,5,D14*%
%TO.N,Net-(ESP32-DEVKIT-V1-D14)*%
X59370000Y-35780000D03*
%TO.P,ESP32-DEVKIT-V1,6,D27*%
%TO.N,Net-(ESP32-DEVKIT-V1-D27)*%
X59370000Y-33240000D03*
%TO.P,ESP32-DEVKIT-V1,7,D26*%
%TO.N,Net-(ESP32-DEVKIT-V1-D26)*%
X59370000Y-30700000D03*
%TO.P,ESP32-DEVKIT-V1,8,D25*%
%TO.N,Net-(ESP32-DEVKIT-V1-D25)*%
X59370000Y-28160000D03*
%TO.P,ESP32-DEVKIT-V1,9,D33*%
%TO.N,Net-(ESP32-DEVKIT-V1-D33)*%
X59370000Y-25620000D03*
%TO.P,ESP32-DEVKIT-V1,10,D32*%
%TO.N,Net-(ESP32-DEVKIT-V1-D32)*%
X59370000Y-23080000D03*
%TO.P,ESP32-DEVKIT-V1,11,D35*%
%TO.N,unconnected-(ESP32-DEVKIT-V1-D35-Pad11)*%
X59370000Y-20540000D03*
%TO.P,ESP32-DEVKIT-V1,12,D34*%
%TO.N,unconnected-(ESP32-DEVKIT-V1-D34-Pad12)*%
X59370000Y-18000000D03*
%TO.P,ESP32-DEVKIT-V1,13,VN*%
%TO.N,unconnected-(ESP32-DEVKIT-V1-VN-Pad13)*%
X59370000Y-15460000D03*
%TO.P,ESP32-DEVKIT-V1,14,VP*%
%TO.N,unconnected-(ESP32-DEVKIT-V1-VP-Pad14)*%
X59370000Y-12920000D03*
%TO.P,ESP32-DEVKIT-V1,15,EN*%
%TO.N,unconnected-(ESP32-DEVKIT-V1-EN-Pad15)*%
X59370000Y-10380000D03*
D12*
%TO.P,ESP32-DEVKIT-V1,16,3V3*%
%TO.N,unconnected-(ESP32-DEVKIT-V1-3V3-Pad16)*%
X85000000Y-45940000D03*
D13*
%TO.P,ESP32-DEVKIT-V1,17,GND*%
%TO.N,unconnected-(ESP32-DEVKIT-V1-GND-Pad17)*%
X85000000Y-43400000D03*
%TO.P,ESP32-DEVKIT-V1,18,D15*%
%TO.N,unconnected-(ESP32-DEVKIT-V1-D15-Pad18)*%
X85000000Y-40860000D03*
%TO.P,ESP32-DEVKIT-V1,19,D2*%
%TO.N,unconnected-(ESP32-DEVKIT-V1-D2-Pad19)*%
X85000000Y-38320000D03*
%TO.P,ESP32-DEVKIT-V1,20,D4*%
%TO.N,unconnected-(ESP32-DEVKIT-V1-D4-Pad20)*%
X85000000Y-35780000D03*
%TO.P,ESP32-DEVKIT-V1,21,RX2*%
%TO.N,unconnected-(ESP32-DEVKIT-V1-RX2-Pad21)*%
X85000000Y-33240000D03*
%TO.P,ESP32-DEVKIT-V1,22,TX2*%
%TO.N,unconnected-(ESP32-DEVKIT-V1-TX2-Pad22)*%
X85000000Y-30700000D03*
%TO.P,ESP32-DEVKIT-V1,23,D5*%
%TO.N,unconnected-(ESP32-DEVKIT-V1-D5-Pad23)*%
X85000000Y-28160000D03*
%TO.P,ESP32-DEVKIT-V1,24,D18*%
%TO.N,unconnected-(ESP32-DEVKIT-V1-D18-Pad24)*%
X85000000Y-25620000D03*
%TO.P,ESP32-DEVKIT-V1,25,D19*%
%TO.N,unconnected-(ESP32-DEVKIT-V1-D19-Pad25)*%
X85000000Y-23080000D03*
%TO.P,ESP32-DEVKIT-V1,26,D21*%
%TO.N,unconnected-(ESP32-DEVKIT-V1-D21-Pad26)*%
X85000000Y-20540000D03*
%TO.P,ESP32-DEVKIT-V1,27,RX0*%
%TO.N,unconnected-(ESP32-DEVKIT-V1-RX0-Pad27)*%
X85000000Y-18000000D03*
%TO.P,ESP32-DEVKIT-V1,28,TX0*%
%TO.N,unconnected-(ESP32-DEVKIT-V1-TX0-Pad28)*%
X85000000Y-15460000D03*
%TO.P,ESP32-DEVKIT-V1,29,D22*%
%TO.N,Net-(ESP32-DEVKIT-V1-D22)*%
X85000000Y-12920000D03*
%TO.P,ESP32-DEVKIT-V1,30,D23*%
%TO.N,Net-(ESP32-DEVKIT-V1-D23)*%
X85000000Y-10380000D03*
%TD*%
D14*
%TO.P,C1,1*%
%TO.N,Net-(M1--)*%
X9000000Y-20000000D03*
%TO.P,C1,2*%
%TO.N,Net-(M1-+)*%
X6500000Y-20000000D03*
%TD*%
D15*
%TO.P,BT1,1,+*%
%TO.N,+12V*%
X6000000Y-40200000D03*
D16*
%TO.P,BT1,2,-*%
%TO.N,GND*%
X6000000Y-33000000D03*
%TD*%
D14*
%TO.P,C2,1*%
%TO.N,Net-(M2-+)*%
X91500000Y-20000000D03*
%TO.P,C2,2*%
%TO.N,Net-(M2--)*%
X94000000Y-20000000D03*
%TD*%
D17*
%TO.P,H2,2*%
%TO.N,GND*%
X95000000Y-5000000D03*
%TD*%
%TO.P,H3,3*%
%TO.N,GND*%
X95000000Y-55000000D03*
%TD*%
D13*
%TO.P,MPU_6050,1,VCC*%
%TO.N,/+5V*%
X34000000Y-27932500D03*
%TO.P,MPU_6050,2,GND*%
%TO.N,GND*%
X34000000Y-30472500D03*
%TO.P,MPU_6050,3,SCL*%
%TO.N,Net-(ESP32-DEVKIT-V1-D23)*%
X34000000Y-33012500D03*
%TO.P,MPU_6050,4,SDA*%
%TO.N,Net-(ESP32-DEVKIT-V1-D22)*%
X34000000Y-35552500D03*
%TO.P,MPU_6050,5,XDA*%
%TO.N,unconnected-(MPU_6050-XDA-Pad5)*%
X34000000Y-38092500D03*
%TO.P,MPU_6050,6,XCL*%
%TO.N,unconnected-(MPU_6050-XCL-Pad6)*%
X34000000Y-40632500D03*
%TO.P,MPU_6050,7,ADD*%
%TO.N,unconnected-(MPU_6050-ADD-Pad7)*%
X34000000Y-43172500D03*
%TO.P,MPU_6050,8,INT*%
%TO.N,unconnected-(MPU_6050-INT-Pad8)*%
X34000000Y-45712500D03*
%TD*%
D17*
%TO.P,H1,1*%
%TO.N,GND*%
X5000000Y-5000000D03*
%TD*%
D14*
%TO.P,C3,1*%
%TO.N,+12V*%
X15000000Y-38350000D03*
%TO.P,C3,2*%
%TO.N,GND*%
X15000000Y-34850000D03*
%TD*%
D13*
%TO.P,TB6612FNG1,1,VM*%
%TO.N,/12V*%
X34000000Y-5220000D03*
%TO.P,TB6612FNG1,2,VCC*%
%TO.N,/+5V*%
X34000000Y-7760000D03*
%TO.P,TB6612FNG1,3,GND*%
%TO.N,unconnected-(TB6612FNG1-GND-Pad3)*%
X34000000Y-10300000D03*
%TO.P,TB6612FNG1,4,A01*%
%TO.N,Net-(M1--)*%
X34000000Y-12840000D03*
%TO.P,TB6612FNG1,5,A02*%
%TO.N,Net-(M1-+)*%
X34000000Y-15380000D03*
%TO.P,TB6612FNG1,6,B02*%
%TO.N,Net-(M2-+)*%
X34000000Y-17920000D03*
%TO.P,TB6612FNG1,7,B01*%
%TO.N,Net-(M2--)*%
X34000000Y-20460000D03*
%TO.P,TB6612FNG1,8,GND*%
%TO.N,unconnected-(TB6612FNG1-GND-Pad8)*%
X34000000Y-23000000D03*
%TO.P,TB6612FNG1,9,PWMA*%
%TO.N,Net-(ESP32-DEVKIT-V1-D13)*%
X51860000Y-5220000D03*
%TO.P,TB6612FNG1,10,AIN2*%
%TO.N,Net-(ESP32-DEVKIT-V1-D14)*%
X51860000Y-7760000D03*
%TO.P,TB6612FNG1,11,AIN1*%
%TO.N,Net-(ESP32-DEVKIT-V1-D27)*%
X51860000Y-10300000D03*
%TO.P,TB6612FNG1,12,STBY*%
%TO.N,Net-(ESP32-DEVKIT-V1-D26)*%
X51860000Y-12840000D03*
%TO.P,TB6612FNG1,13,BIN1*%
%TO.N,Net-(ESP32-DEVKIT-V1-D25)*%
X51860000Y-15380000D03*
%TO.P,TB6612FNG1,14,BIN2*%
%TO.N,Net-(ESP32-DEVKIT-V1-D33)*%
X51860000Y-17920000D03*
%TO.P,TB6612FNG1,15,PWMB*%
%TO.N,Net-(ESP32-DEVKIT-V1-D32)*%
X51860000Y-20460000D03*
%TO.P,TB6612FNG1,16,GND*%
%TO.N,GND*%
X51860000Y-23000000D03*
%TD*%
D18*
%TO.P,U1,1,IN*%
%TO.N,+12V*%
X20460000Y-23230000D03*
D19*
%TO.P,U1,2,GND*%
%TO.N,GND*%
X23000000Y-23230000D03*
%TO.P,U1,3,OUT*%
%TO.N,Net-(U1-OUT)*%
X25540000Y-23230000D03*
%TD*%
D20*
%TO.P,SW1,1*%
%TO.N,Net-(U1-OUT)*%
X24000000Y-56767500D03*
D21*
%TO.P,SW1,2*%
%TO.N,/+5V*%
X24000000Y-49147500D03*
%TD*%
D17*
%TO.P,H4,4*%
%TO.N,GND*%
X5000000Y-55000000D03*
%TD*%
D20*
%TO.P,SW2,1*%
%TO.N,+12V*%
X15000000Y-56620000D03*
D21*
%TO.P,SW2,2*%
%TO.N,/12V*%
X15000000Y-49000000D03*
%TD*%
D22*
%TO.N,GND*%
X30500000Y-15500000D03*
X56250000Y-25750000D03*
X83250000Y-13250000D03*
X89750000Y-11750000D03*
X7750000Y-14750000D03*
X34000000Y-25250000D03*
X54000000Y-6750000D03*
X61000000Y-11000000D03*
X61000000Y-13750000D03*
X61000000Y-16500000D03*
X54000000Y-10500000D03*
X54000000Y-13250000D03*
X54000000Y-15750000D03*
X54000000Y-18000000D03*
X57500000Y-20000000D03*
X60250000Y-21750000D03*
X61000000Y-27750000D03*
X61250000Y-30000000D03*
X61500000Y-32500000D03*
X61500000Y-36250000D03*
X92750000Y-15250000D03*
X40640000Y-20320000D03*
X91440000Y-10160000D03*
X91440000Y-30480000D03*
X91440000Y-40640000D03*
X81280000Y-10160000D03*
X81280000Y-20320000D03*
X71120000Y-10160000D03*
X71120000Y-20320000D03*
X81280000Y-30480000D03*
X81280000Y-40640000D03*
X71120000Y-30480000D03*
X71120000Y-40640000D03*
X60960000Y-40640000D03*
X50800000Y-30480000D03*
X50800000Y-40640000D03*
X40640000Y-30480000D03*
X40640000Y-40640000D03*
X30480000Y-10160000D03*
X30480000Y-20320000D03*
X30480000Y-30480000D03*
X30480000Y-40640000D03*
X20320000Y-40640000D03*
X10160000Y-10160000D03*
X10160000Y-30480000D03*
X10160000Y-50800000D03*
X20320000Y-50800000D03*
X30480000Y-50800000D03*
X40640000Y-50800000D03*
X50800000Y-50800000D03*
X60960000Y-50800000D03*
X71120000Y-50800000D03*
X81280000Y-50800000D03*
X91440000Y-50800000D03*
%TD*%
D23*
%TO.N,Net-(ESP32-DEVKIT-V1-D14)*%
X63000000Y-11500000D02*
X59260000Y-7760000D01*
X63000000Y-32150000D02*
X63000000Y-11500000D01*
X59260000Y-7760000D02*
X51860000Y-7760000D01*
X59370000Y-35780000D02*
X63000000Y-32150000D01*
%TO.N,Net-(ESP32-DEVKIT-V1-D13)*%
X57470000Y-5220000D02*
X51860000Y-5220000D01*
X63500000Y-11250000D02*
X57470000Y-5220000D01*
X63500000Y-36730000D02*
X63500000Y-11250000D01*
X59370000Y-40860000D02*
X63500000Y-36730000D01*
D24*
%TO.N,/+5V*%
X35462000Y-48393000D02*
X35462000Y-46311306D01*
X34707500Y-49147500D02*
X35462000Y-48393000D01*
X24000000Y-49147500D02*
X34707500Y-49147500D01*
D23*
%TO.N,Net-(ESP32-DEVKIT-V1-D33)*%
X53052000Y-19112000D02*
X51860000Y-17920000D01*
X60000000Y-19112000D02*
X53052000Y-19112000D01*
X61000000Y-20112000D02*
X60000000Y-19112000D01*
X61000000Y-23990000D02*
X61000000Y-20112000D01*
X59370000Y-25620000D02*
X61000000Y-23990000D01*
%TO.N,Net-(ESP32-DEVKIT-V1-D25)*%
X53368000Y-16888000D02*
X51860000Y-15380000D01*
X59888000Y-16888000D02*
X53368000Y-16888000D01*
X61500000Y-18500000D02*
X59888000Y-16888000D01*
X61500000Y-26030000D02*
X61500000Y-18500000D01*
X59370000Y-28160000D02*
X61500000Y-26030000D01*
%TO.N,Net-(ESP32-DEVKIT-V1-D26)*%
X60085915Y-14348000D02*
X53368000Y-14348000D01*
X62000000Y-28070000D02*
X62000000Y-16262085D01*
X62000000Y-16262085D02*
X60085915Y-14348000D01*
X59370000Y-30700000D02*
X62000000Y-28070000D01*
X53368000Y-14348000D02*
X51860000Y-12840000D01*
%TO.N,Net-(ESP32-DEVKIT-V1-D27)*%
X53368000Y-11808000D02*
X51860000Y-10300000D01*
X62500000Y-13492085D02*
X60815915Y-11808000D01*
X59370000Y-33240000D02*
X62500000Y-30110000D01*
X62500000Y-30110000D02*
X62500000Y-13492085D01*
X60815915Y-11808000D02*
X53368000Y-11808000D01*
D24*
%TO.N,/+5V*%
X35462000Y-46311306D02*
X35462000Y-29394500D01*
X35833306Y-45940000D02*
X35462000Y-46311306D01*
X35462000Y-9222000D02*
X34000000Y-7760000D01*
X35462000Y-26470500D02*
X35462000Y-9222000D01*
X59370000Y-45940000D02*
X35833306Y-45940000D01*
X35462000Y-29394500D02*
X34000000Y-27932500D01*
X34000000Y-27932500D02*
X35462000Y-26470500D01*
D23*
%TO.N,Net-(ESP32-DEVKIT-V1-D32)*%
X51860000Y-20460000D02*
X56750000Y-20460000D01*
X56750000Y-20460000D02*
X59370000Y-23080000D01*
D24*
%TO.N,/12V*%
X32538000Y-31462000D02*
X32538000Y-6682000D01*
X32538000Y-6682000D02*
X34000000Y-5220000D01*
X15000000Y-49000000D02*
X32538000Y-31462000D01*
%TD*%
%TA.AperFunction,Conductor*%
%TO.N,GND*%
G36*
X33694581Y-29157700D02*
G01*
X33779932Y-29180570D01*
X33793288Y-29181738D01*
X33858356Y-29207188D01*
X33870164Y-29217585D01*
X34148789Y-29496210D01*
X34425181Y-29772601D01*
X34458666Y-29833924D01*
X34461500Y-29860282D01*
X34461500Y-31667521D01*
X34441815Y-31734560D01*
X34389011Y-31780315D01*
X34319853Y-31790259D01*
X34305407Y-31787296D01*
X34220073Y-31764431D01*
X34220069Y-31764430D01*
X34220068Y-31764430D01*
X34220067Y-31764429D01*
X34220062Y-31764429D01*
X34000002Y-31745177D01*
X33999998Y-31745177D01*
X33779937Y-31764429D01*
X33779926Y-31764431D01*
X33679777Y-31791266D01*
X33609927Y-31789603D01*
X33552065Y-31750440D01*
X33524561Y-31686212D01*
X33527798Y-31645793D01*
X33526776Y-31645610D01*
X33527885Y-31639420D01*
X33527886Y-31639418D01*
X33530494Y-31605157D01*
X33531585Y-31597389D01*
X33538500Y-31563743D01*
X33538500Y-31502398D01*
X33538679Y-31497688D01*
X33543337Y-31436524D01*
X33538997Y-31402442D01*
X33538500Y-31394603D01*
X33538500Y-29277477D01*
X33558185Y-29210438D01*
X33610989Y-29164683D01*
X33680147Y-29154739D01*
X33694581Y-29157700D01*
G37*
%TD.AperFunction*%
%TA.AperFunction,Conductor*%
G36*
X33694581Y-24225200D02*
G01*
X33779932Y-24248070D01*
X33937123Y-24261822D01*
X33999998Y-24267323D01*
X34000000Y-24267323D01*
X34000002Y-24267323D01*
X34055017Y-24262509D01*
X34220068Y-24248070D01*
X34305407Y-24225203D01*
X34375255Y-24226864D01*
X34433118Y-24266026D01*
X34460623Y-24330254D01*
X34461500Y-24344977D01*
X34461500Y-26004716D01*
X34441815Y-26071755D01*
X34425181Y-26092397D01*
X33870163Y-26647414D01*
X33808840Y-26680899D01*
X33793292Y-26683261D01*
X33779934Y-26684429D01*
X33779925Y-26684431D01*
X33694593Y-26707296D01*
X33624743Y-26705633D01*
X33566881Y-26666470D01*
X33539377Y-26602242D01*
X33538500Y-26587521D01*
X33538500Y-24344977D01*
X33558185Y-24277938D01*
X33610989Y-24232183D01*
X33680147Y-24222239D01*
X33694581Y-24225200D01*
G37*
%TD.AperFunction*%
%TA.AperFunction,Conductor*%
G36*
X62768834Y-33403625D02*
G01*
X62824767Y-33445497D01*
X62849184Y-33510961D01*
X62849500Y-33519807D01*
X62849500Y-36409191D01*
X62829815Y-36476230D01*
X62813181Y-36496872D01*
X60844406Y-38465646D01*
X60783083Y-38499131D01*
X60713391Y-38494147D01*
X60657458Y-38452275D01*
X60633041Y-38386811D01*
X60633197Y-38367157D01*
X60634699Y-38349998D01*
X60637323Y-38320000D01*
X60636672Y-38312562D01*
X60620759Y-38130668D01*
X60618070Y-38099932D01*
X60560894Y-37886550D01*
X60467534Y-37686339D01*
X60340826Y-37505380D01*
X60184620Y-37349174D01*
X60184616Y-37349171D01*
X60184615Y-37349170D01*
X60003666Y-37222468D01*
X60003658Y-37222464D01*
X59874811Y-37162382D01*
X59822371Y-37116210D01*
X59803219Y-37049017D01*
X59823435Y-36982135D01*
X59874811Y-36937618D01*
X59886027Y-36932388D01*
X60003662Y-36877534D01*
X60184620Y-36750826D01*
X60340826Y-36594620D01*
X60467534Y-36413662D01*
X60560894Y-36213450D01*
X60618070Y-36000068D01*
X60637323Y-35780000D01*
X60618070Y-35559932D01*
X60613765Y-35543866D01*
X60615424Y-35474017D01*
X60645855Y-35424089D01*
X62637820Y-33432124D01*
X62699142Y-33398641D01*
X62768834Y-33403625D01*
G37*
%TD.AperFunction*%
%TA.AperFunction,Conductor*%
G36*
X62268834Y-31363625D02*
G01*
X62324767Y-31405497D01*
X62349184Y-31470961D01*
X62349500Y-31479807D01*
X62349500Y-31829191D01*
X62329815Y-31896230D01*
X62313181Y-31916872D01*
X60844406Y-33385646D01*
X60783083Y-33419131D01*
X60713391Y-33414147D01*
X60657458Y-33372275D01*
X60633041Y-33306811D01*
X60633197Y-33287157D01*
X60637323Y-33240000D01*
X60637323Y-33239997D01*
X60633320Y-33194246D01*
X60618070Y-33019932D01*
X60613765Y-33003866D01*
X60615424Y-32934017D01*
X60645855Y-32884089D01*
X62137820Y-31392124D01*
X62199142Y-31358641D01*
X62268834Y-31363625D01*
G37*
%TD.AperFunction*%
%TA.AperFunction,Conductor*%
G36*
X61768834Y-29323625D02*
G01*
X61824767Y-29365497D01*
X61849184Y-29430961D01*
X61849500Y-29439807D01*
X61849500Y-29789191D01*
X61829815Y-29856230D01*
X61813181Y-29876872D01*
X60844406Y-30845646D01*
X60783083Y-30879131D01*
X60713391Y-30874147D01*
X60657458Y-30832275D01*
X60633041Y-30766811D01*
X60633197Y-30747157D01*
X60637323Y-30700000D01*
X60637323Y-30699997D01*
X60633320Y-30654246D01*
X60618070Y-30479932D01*
X60613765Y-30463866D01*
X60615424Y-30394017D01*
X60645855Y-30344089D01*
X61637820Y-29352125D01*
X61699142Y-29318641D01*
X61768834Y-29323625D01*
G37*
%TD.AperFunction*%
%TA.AperFunction,Conductor*%
G36*
X61268834Y-27283625D02*
G01*
X61324767Y-27325497D01*
X61349184Y-27390961D01*
X61349500Y-27399807D01*
X61349500Y-27749191D01*
X61329815Y-27816230D01*
X61313181Y-27836872D01*
X60844406Y-28305647D01*
X60783083Y-28339132D01*
X60713391Y-28334148D01*
X60657458Y-28292276D01*
X60633041Y-28226812D01*
X60633197Y-28207158D01*
X60637323Y-28160000D01*
X60637323Y-28159997D01*
X60633320Y-28114246D01*
X60618070Y-27939932D01*
X60613765Y-27923866D01*
X60615424Y-27854017D01*
X60645855Y-27804089D01*
X61137820Y-27312125D01*
X61199142Y-27278641D01*
X61268834Y-27283625D01*
G37*
%TD.AperFunction*%
%TA.AperFunction,Conductor*%
G36*
X60288350Y-21526685D02*
G01*
X60336163Y-21577633D01*
X60349500Y-21633577D01*
X60349500Y-21986422D01*
X60329815Y-22053461D01*
X60277011Y-22099216D01*
X60207853Y-22109160D01*
X60154377Y-22087997D01*
X60003666Y-21982468D01*
X60003658Y-21982464D01*
X59874811Y-21922382D01*
X59822371Y-21876210D01*
X59803219Y-21809017D01*
X59823435Y-21742135D01*
X59874811Y-21697618D01*
X59880802Y-21694824D01*
X60003662Y-21637534D01*
X60154378Y-21532001D01*
X60220582Y-21509675D01*
X60288350Y-21526685D01*
G37*
%TD.AperFunction*%
%TA.AperFunction,Conductor*%
G36*
X58211937Y-19782185D02*
G01*
X58257692Y-19834989D01*
X58267636Y-19904147D01*
X58257280Y-19938904D01*
X58179108Y-20106543D01*
X58179104Y-20106554D01*
X58121930Y-20319929D01*
X58121929Y-20319937D01*
X58102677Y-20539997D01*
X58102677Y-20540003D01*
X58106802Y-20587160D01*
X58093035Y-20655660D01*
X58044419Y-20705842D01*
X57976390Y-20721775D01*
X57910547Y-20698399D01*
X57895593Y-20685647D01*
X57270434Y-20060488D01*
X57260361Y-20047914D01*
X57260174Y-20048070D01*
X57255201Y-20042059D01*
X57210413Y-20000000D01*
X57202755Y-19992809D01*
X57184127Y-19974181D01*
X57150643Y-19912862D01*
X57155625Y-19843170D01*
X57197495Y-19787235D01*
X57262958Y-19762816D01*
X57271808Y-19762500D01*
X58144898Y-19762500D01*
X58211937Y-19782185D01*
G37*
%TD.AperFunction*%
%TA.AperFunction,Conductor*%
G36*
X53254020Y-17530334D02*
G01*
X53285823Y-17538500D01*
X53307045Y-17538500D01*
X53326444Y-17540026D01*
X53347405Y-17543347D01*
X53392104Y-17539121D01*
X53395770Y-17538775D01*
X53401608Y-17538500D01*
X58025022Y-17538500D01*
X58092061Y-17558185D01*
X58137816Y-17610989D01*
X58147760Y-17680147D01*
X58144798Y-17694585D01*
X58143365Y-17699937D01*
X58121930Y-17779930D01*
X58121929Y-17779937D01*
X58102677Y-17999997D01*
X58102677Y-18000002D01*
X58121929Y-18220062D01*
X58121930Y-18220069D01*
X58129280Y-18247498D01*
X58144796Y-18305407D01*
X58143134Y-18375256D01*
X58103972Y-18433119D01*
X58039744Y-18460623D01*
X58025022Y-18461500D01*
X53372808Y-18461500D01*
X53305769Y-18441815D01*
X53285127Y-18425181D01*
X53135857Y-18275911D01*
X53102372Y-18214588D01*
X53103764Y-18156133D01*
X53108070Y-18140068D01*
X53127323Y-17920000D01*
X53108070Y-17699932D01*
X53103408Y-17682533D01*
X53105069Y-17612683D01*
X53144231Y-17554820D01*
X53208459Y-17527315D01*
X53254020Y-17530334D01*
G37*
%TD.AperFunction*%
%TA.AperFunction,Conductor*%
G36*
X60714167Y-15899915D02*
G01*
X60733984Y-15916015D01*
X61313181Y-16495212D01*
X61346666Y-16556535D01*
X61349500Y-16582893D01*
X61349500Y-17130192D01*
X61329815Y-17197231D01*
X61277011Y-17242986D01*
X61207853Y-17252930D01*
X61144297Y-17223905D01*
X61137819Y-17217873D01*
X60408434Y-16488488D01*
X60398361Y-16475914D01*
X60398174Y-16476070D01*
X60393201Y-16470059D01*
X60357341Y-16436384D01*
X60321947Y-16376143D01*
X60324739Y-16306329D01*
X60340651Y-16274868D01*
X60340821Y-16274624D01*
X60340826Y-16274620D01*
X60467534Y-16093662D01*
X60533924Y-15951287D01*
X60580092Y-15898853D01*
X60647286Y-15879700D01*
X60714167Y-15899915D01*
G37*
%TD.AperFunction*%
%TA.AperFunction,Conductor*%
G36*
X53254020Y-14990334D02*
G01*
X53285823Y-14998500D01*
X53307045Y-14998500D01*
X53326444Y-15000026D01*
X53347405Y-15003347D01*
X53392104Y-14999121D01*
X53395770Y-14998775D01*
X53401608Y-14998500D01*
X58025022Y-14998500D01*
X58092061Y-15018185D01*
X58137816Y-15070989D01*
X58147760Y-15140147D01*
X58144798Y-15154585D01*
X58143365Y-15159937D01*
X58121930Y-15239930D01*
X58121929Y-15239937D01*
X58102677Y-15459997D01*
X58102677Y-15460002D01*
X58121929Y-15680062D01*
X58121930Y-15680070D01*
X58179104Y-15893445D01*
X58179108Y-15893456D01*
X58257280Y-16061096D01*
X58267772Y-16130173D01*
X58239252Y-16193957D01*
X58180775Y-16232196D01*
X58144898Y-16237500D01*
X53688808Y-16237500D01*
X53621769Y-16217815D01*
X53601127Y-16201181D01*
X53135857Y-15735911D01*
X53102372Y-15674588D01*
X53103764Y-15616133D01*
X53108070Y-15600068D01*
X53127323Y-15380000D01*
X53108070Y-15159932D01*
X53103408Y-15142533D01*
X53105069Y-15072683D01*
X53144231Y-15014820D01*
X53208459Y-14987315D01*
X53254020Y-14990334D01*
G37*
%TD.AperFunction*%
%TA.AperFunction,Conductor*%
G36*
X60827732Y-12741966D02*
G01*
X60842688Y-12754719D01*
X61813181Y-13725212D01*
X61846666Y-13786535D01*
X61849500Y-13812893D01*
X61849500Y-14892277D01*
X61829815Y-14959316D01*
X61777011Y-15005071D01*
X61707853Y-15015015D01*
X61644297Y-14985990D01*
X61637819Y-14979958D01*
X60606349Y-13948488D01*
X60596276Y-13935914D01*
X60596089Y-13936070D01*
X60591116Y-13930059D01*
X60538671Y-13880810D01*
X60516950Y-13859089D01*
X60511150Y-13854589D01*
X60506713Y-13850799D01*
X60471311Y-13817554D01*
X60471306Y-13817550D01*
X60456269Y-13809284D01*
X60407005Y-13759737D01*
X60392349Y-13691422D01*
X60414433Y-13629498D01*
X60425521Y-13613663D01*
X60467534Y-13553662D01*
X60560894Y-13353450D01*
X60618070Y-13140068D01*
X60637323Y-12920000D01*
X60631479Y-12853205D01*
X60645245Y-12784708D01*
X60693860Y-12734525D01*
X60761889Y-12718591D01*
X60827732Y-12741966D01*
G37*
%TD.AperFunction*%
%TA.AperFunction,Conductor*%
G36*
X53254020Y-12450334D02*
G01*
X53285823Y-12458500D01*
X53307045Y-12458500D01*
X53326444Y-12460026D01*
X53347405Y-12463347D01*
X53392104Y-12459121D01*
X53395770Y-12458775D01*
X53401608Y-12458500D01*
X58025022Y-12458500D01*
X58092061Y-12478185D01*
X58137816Y-12530989D01*
X58147760Y-12600147D01*
X58144798Y-12614585D01*
X58143365Y-12619937D01*
X58121930Y-12699930D01*
X58121929Y-12699937D01*
X58102677Y-12919997D01*
X58102677Y-12920002D01*
X58121929Y-13140062D01*
X58121930Y-13140070D01*
X58179104Y-13353445D01*
X58179108Y-13353456D01*
X58257280Y-13521096D01*
X58267772Y-13590173D01*
X58239252Y-13653957D01*
X58180775Y-13692196D01*
X58144898Y-13697500D01*
X53688808Y-13697500D01*
X53621769Y-13677815D01*
X53601127Y-13661181D01*
X53135857Y-13195911D01*
X53102372Y-13134588D01*
X53103764Y-13076133D01*
X53108070Y-13060068D01*
X53120324Y-12919997D01*
X53127323Y-12840002D01*
X53127323Y-12839997D01*
X53115069Y-12699930D01*
X53108070Y-12619932D01*
X53103408Y-12602533D01*
X53105069Y-12532683D01*
X53144231Y-12474820D01*
X53208459Y-12447315D01*
X53254020Y-12450334D01*
G37*
%TD.AperFunction*%
%TA.AperFunction,Conductor*%
G36*
X60832325Y-10254474D02*
G01*
X60847282Y-10267228D01*
X62313181Y-11733127D01*
X62346666Y-11794450D01*
X62349500Y-11820808D01*
X62349500Y-12122277D01*
X62329815Y-12189316D01*
X62277011Y-12235071D01*
X62207853Y-12245015D01*
X62144297Y-12215990D01*
X62137819Y-12209958D01*
X61336349Y-11408488D01*
X61326276Y-11395914D01*
X61326089Y-11396070D01*
X61321116Y-11390059D01*
X61268671Y-11340810D01*
X61246950Y-11319089D01*
X61241155Y-11314594D01*
X61236713Y-11310799D01*
X61201311Y-11277554D01*
X61201303Y-11277548D01*
X61182707Y-11267325D01*
X61166446Y-11256644D01*
X61149678Y-11243637D01*
X61126210Y-11233482D01*
X61105093Y-11224343D01*
X61099871Y-11221786D01*
X61057283Y-11198373D01*
X61057280Y-11198372D01*
X61036716Y-11193092D01*
X61018311Y-11186790D01*
X60998842Y-11178365D01*
X60998836Y-11178363D01*
X60950866Y-11170766D01*
X60945151Y-11169582D01*
X60928687Y-11165355D01*
X60898095Y-11157500D01*
X60898092Y-11157500D01*
X60876870Y-11157500D01*
X60857470Y-11155973D01*
X60836511Y-11152653D01*
X60836510Y-11152653D01*
X60812701Y-11154903D01*
X60788145Y-11157225D01*
X60782307Y-11157500D01*
X60595102Y-11157500D01*
X60528063Y-11137815D01*
X60482308Y-11085011D01*
X60472364Y-11015853D01*
X60482720Y-10981096D01*
X60544722Y-10848131D01*
X60560894Y-10813450D01*
X60618070Y-10600068D01*
X60637323Y-10380000D01*
X60636073Y-10365716D01*
X60649838Y-10297219D01*
X60698452Y-10247035D01*
X60766481Y-10231100D01*
X60832325Y-10254474D01*
G37*
%TD.AperFunction*%
%TA.AperFunction,Conductor*%
G36*
X59006231Y-8430185D02*
G01*
X59026873Y-8446819D01*
X59482771Y-8902717D01*
X59516256Y-8964040D01*
X59511272Y-9033732D01*
X59469400Y-9089665D01*
X59403936Y-9114082D01*
X59384285Y-9113926D01*
X59370005Y-9112677D01*
X59369998Y-9112677D01*
X59149937Y-9131929D01*
X59149929Y-9131930D01*
X58936554Y-9189104D01*
X58936548Y-9189107D01*
X58736340Y-9282465D01*
X58736338Y-9282466D01*
X58555377Y-9409175D01*
X58399175Y-9565377D01*
X58272466Y-9746338D01*
X58272465Y-9746340D01*
X58179107Y-9946548D01*
X58179104Y-9946554D01*
X58121930Y-10159929D01*
X58121929Y-10159937D01*
X58102677Y-10379997D01*
X58102677Y-10380002D01*
X58121929Y-10600062D01*
X58121930Y-10600070D01*
X58179104Y-10813445D01*
X58179108Y-10813456D01*
X58257280Y-10981096D01*
X58267772Y-11050173D01*
X58239252Y-11113957D01*
X58180775Y-11152196D01*
X58144898Y-11157500D01*
X53688808Y-11157500D01*
X53621769Y-11137815D01*
X53601127Y-11121181D01*
X53135857Y-10655911D01*
X53102372Y-10594588D01*
X53103764Y-10536133D01*
X53108070Y-10520068D01*
X53120324Y-10379997D01*
X53127323Y-10300002D01*
X53127323Y-10299997D01*
X53115069Y-10159932D01*
X53108070Y-10079932D01*
X53050894Y-9866550D01*
X52957534Y-9666339D01*
X52830826Y-9485380D01*
X52674620Y-9329174D01*
X52674616Y-9329171D01*
X52674615Y-9329170D01*
X52493666Y-9202468D01*
X52493658Y-9202464D01*
X52364811Y-9142382D01*
X52312371Y-9096210D01*
X52293219Y-9029017D01*
X52313435Y-8962135D01*
X52364811Y-8917618D01*
X52396766Y-8902717D01*
X52493662Y-8857534D01*
X52674620Y-8730826D01*
X52830826Y-8574620D01*
X52908719Y-8463376D01*
X52963296Y-8419752D01*
X53010294Y-8410500D01*
X58939192Y-8410500D01*
X59006231Y-8430185D01*
G37*
%TD.AperFunction*%
%TA.AperFunction,Conductor*%
G36*
X57216231Y-5890185D02*
G01*
X57236873Y-5906819D01*
X58227873Y-6897819D01*
X58261358Y-6959142D01*
X58256374Y-7028834D01*
X58214502Y-7084767D01*
X58149038Y-7109184D01*
X58140192Y-7109500D01*
X53010294Y-7109500D01*
X52943255Y-7089815D01*
X52908719Y-7056623D01*
X52830827Y-6945381D01*
X52783265Y-6897819D01*
X52674620Y-6789174D01*
X52674616Y-6789171D01*
X52674615Y-6789170D01*
X52493666Y-6662468D01*
X52493658Y-6662464D01*
X52364811Y-6602382D01*
X52312371Y-6556210D01*
X52293219Y-6489017D01*
X52313435Y-6422135D01*
X52364811Y-6377618D01*
X52370802Y-6374824D01*
X52493662Y-6317534D01*
X52674620Y-6190826D01*
X52830826Y-6034620D01*
X52908719Y-5923376D01*
X52963296Y-5879752D01*
X53010294Y-5870500D01*
X57149192Y-5870500D01*
X57216231Y-5890185D01*
G37*
%TD.AperFunction*%
%TA.AperFunction,Conductor*%
G36*
X95217318Y-9488D02*
G01*
X95415934Y-18160D01*
X95420865Y-18574D01*
X95636792Y-45489D01*
X95832940Y-71313D01*
X95837265Y-71883D01*
X95841894Y-72671D01*
X96054183Y-117183D01*
X96252534Y-161157D01*
X96256778Y-162257D01*
X96464544Y-224112D01*
X96658648Y-285314D01*
X96658658Y-285317D01*
X96662530Y-286680D01*
X96864457Y-365472D01*
X97052817Y-443494D01*
X97056252Y-445045D01*
X97131343Y-481755D01*
X97250992Y-540249D01*
X97388629Y-611897D01*
X97432009Y-634479D01*
X97435107Y-636207D01*
X97621382Y-747202D01*
X97793662Y-856957D01*
X97796377Y-858789D01*
X97972918Y-984837D01*
X98135098Y-1109282D01*
X98137426Y-1111159D01*
X98303055Y-1251439D01*
X98454895Y-1390574D01*
X98609424Y-1545103D01*
X98748547Y-1696929D01*
X98748557Y-1696940D01*
X98888839Y-1862572D01*
X98890716Y-1864900D01*
X99015162Y-2027081D01*
X99141209Y-2203621D01*
X99143040Y-2206335D01*
X99252797Y-2378617D01*
X99363791Y-2564891D01*
X99365525Y-2568000D01*
X99459750Y-2749007D01*
X99525992Y-2884503D01*
X99554953Y-2943743D01*
X99556524Y-2947229D01*
X99634536Y-3135566D01*
X99713309Y-3337445D01*
X99714681Y-3341340D01*
X99775899Y-3535496D01*
X99837735Y-3743200D01*
X99838843Y-3747472D01*
X99882818Y-3945826D01*
X99927326Y-4158101D01*
X99928115Y-4162733D01*
X99954524Y-4363319D01*
X99981422Y-4579114D01*
X99981839Y-4584080D01*
X99990513Y-4782728D01*
X99999500Y-5000000D01*
X99999500Y-55000000D01*
X99990513Y-55217271D01*
X99981839Y-55415918D01*
X99981422Y-55420884D01*
X99954524Y-55636680D01*
X99928115Y-55837265D01*
X99927326Y-55841897D01*
X99882818Y-56054173D01*
X99838843Y-56252526D01*
X99837735Y-56256798D01*
X99775899Y-56464503D01*
X99714681Y-56658658D01*
X99713309Y-56662552D01*
X99634536Y-56864433D01*
X99556524Y-57052769D01*
X99554944Y-57056274D01*
X99459750Y-57250992D01*
X99365525Y-57431998D01*
X99363791Y-57435107D01*
X99252797Y-57621382D01*
X99143040Y-57793663D01*
X99141209Y-57796377D01*
X99015162Y-57972918D01*
X98890716Y-58135099D01*
X98888839Y-58137426D01*
X98748557Y-58303059D01*
X98609426Y-58454895D01*
X98454895Y-58609426D01*
X98303059Y-58748557D01*
X98137426Y-58888839D01*
X98135099Y-58890716D01*
X97972918Y-59015162D01*
X97796377Y-59141209D01*
X97793663Y-59143040D01*
X97621382Y-59252797D01*
X97435107Y-59363791D01*
X97431998Y-59365525D01*
X97250992Y-59459750D01*
X97056274Y-59554944D01*
X97052769Y-59556524D01*
X96864433Y-59634536D01*
X96662552Y-59713309D01*
X96658658Y-59714681D01*
X96464503Y-59775899D01*
X96256798Y-59837735D01*
X96252526Y-59838843D01*
X96054173Y-59882818D01*
X95841897Y-59927326D01*
X95837265Y-59928115D01*
X95636680Y-59954524D01*
X95420884Y-59981422D01*
X95415918Y-59981839D01*
X95217271Y-59990513D01*
X95000000Y-59999500D01*
X5000000Y-59999500D01*
X4782728Y-59990513D01*
X4584080Y-59981839D01*
X4579114Y-59981422D01*
X4363319Y-59954524D01*
X4162733Y-59928115D01*
X4158101Y-59927326D01*
X3945826Y-59882818D01*
X3747472Y-59838843D01*
X3743200Y-59837735D01*
X3535496Y-59775899D01*
X3341340Y-59714681D01*
X3337445Y-59713309D01*
X3135566Y-59634536D01*
X2947229Y-59556524D01*
X2943744Y-59554953D01*
X2884503Y-59525992D01*
X2749007Y-59459750D01*
X2568000Y-59365525D01*
X2564891Y-59363791D01*
X2378617Y-59252797D01*
X2206335Y-59143040D01*
X2203621Y-59141209D01*
X2027081Y-59015162D01*
X1864900Y-58890716D01*
X1862572Y-58888839D01*
X1696940Y-58748557D01*
X1545103Y-58609424D01*
X1390574Y-58454895D01*
X1251439Y-58303055D01*
X1111159Y-58137426D01*
X1109282Y-58135098D01*
X984837Y-57972918D01*
X858789Y-57796377D01*
X856957Y-57793662D01*
X747202Y-57621382D01*
X655729Y-57467870D01*
X13699500Y-57467870D01*
X13699501Y-57467876D01*
X13705908Y-57527483D01*
X13756202Y-57662328D01*
X13756206Y-57662335D01*
X13842452Y-57777544D01*
X13842455Y-57777547D01*
X13957664Y-57863793D01*
X13957671Y-57863797D01*
X14092517Y-57914091D01*
X14092516Y-57914091D01*
X14099444Y-57914835D01*
X14152127Y-57920500D01*
X15847872Y-57920499D01*
X15907483Y-57914091D01*
X16042331Y-57863796D01*
X16157546Y-57777546D01*
X16243796Y-57662331D01*
X16261311Y-57615370D01*
X22699500Y-57615370D01*
X22699501Y-57615376D01*
X22705908Y-57674983D01*
X22756202Y-57809828D01*
X22756206Y-57809835D01*
X22842452Y-57925044D01*
X22842455Y-57925047D01*
X22957664Y-58011293D01*
X22957671Y-58011297D01*
X23092517Y-58061591D01*
X23092516Y-58061591D01*
X23099444Y-58062335D01*
X23152127Y-58068000D01*
X24847872Y-58067999D01*
X24907483Y-58061591D01*
X25042331Y-58011296D01*
X25157546Y-57925046D01*
X25243796Y-57809831D01*
X25294091Y-57674983D01*
X25300500Y-57615373D01*
X25300499Y-55919628D01*
X25294091Y-55860017D01*
X25243796Y-55725169D01*
X25243795Y-55725168D01*
X25243793Y-55725164D01*
X25157547Y-55609955D01*
X25157544Y-55609952D01*
X25042335Y-55523706D01*
X25042328Y-55523702D01*
X24907482Y-55473408D01*
X24907483Y-55473408D01*
X24847883Y-55467001D01*
X24847881Y-55467000D01*
X24847873Y-55467000D01*
X24847864Y-55467000D01*
X23152129Y-55467000D01*
X23152123Y-55467001D01*
X23092516Y-55473408D01*
X22957671Y-55523702D01*
X22957664Y-55523706D01*
X22842455Y-55609952D01*
X22842452Y-55609955D01*
X22756206Y-55725164D01*
X22756202Y-55725171D01*
X22705908Y-55860017D01*
X22699501Y-55919616D01*
X22699501Y-55919623D01*
X22699500Y-55919635D01*
X22699500Y-57615370D01*
X16261311Y-57615370D01*
X16294091Y-57527483D01*
X16300500Y-57467873D01*
X16300499Y-55772128D01*
X16294091Y-55712517D01*
X16243796Y-55577669D01*
X16243795Y-55577668D01*
X16243793Y-55577664D01*
X16157547Y-55462455D01*
X16157544Y-55462452D01*
X16042335Y-55376206D01*
X16042328Y-55376202D01*
X15907482Y-55325908D01*
X15907483Y-55325908D01*
X15847883Y-55319501D01*
X15847881Y-55319500D01*
X15847873Y-55319500D01*
X15847864Y-55319500D01*
X14152129Y-55319500D01*
X14152123Y-55319501D01*
X14092516Y-55325908D01*
X13957671Y-55376202D01*
X13957664Y-55376206D01*
X13842455Y-55462452D01*
X13842452Y-55462455D01*
X13756206Y-55577664D01*
X13756202Y-55577671D01*
X13705908Y-55712517D01*
X13704548Y-55725171D01*
X13699501Y-55772123D01*
X13699500Y-55772135D01*
X13699500Y-57467870D01*
X655729Y-57467870D01*
X636207Y-57435107D01*
X634473Y-57431998D01*
X540249Y-57250992D01*
X481755Y-57131343D01*
X445045Y-57056252D01*
X443494Y-57052817D01*
X365463Y-56864433D01*
X286680Y-56662530D01*
X285317Y-56658658D01*
X224100Y-56464503D01*
X213246Y-56428044D01*
X162257Y-56256778D01*
X161155Y-56252526D01*
X117181Y-56054173D01*
X111495Y-56027057D01*
X72671Y-55841894D01*
X71883Y-55837265D01*
X71313Y-55832940D01*
X45489Y-55636792D01*
X18574Y-55420865D01*
X18160Y-55415934D01*
X9486Y-55217271D01*
X500Y-55000000D01*
X500Y-54999500D01*
X500Y-49000001D01*
X13694532Y-49000001D01*
X13714364Y-49226686D01*
X13714366Y-49226697D01*
X13773258Y-49446488D01*
X13773261Y-49446497D01*
X13869431Y-49652732D01*
X13869432Y-49652734D01*
X13999954Y-49839141D01*
X14160858Y-50000045D01*
X14160861Y-50000047D01*
X14347266Y-50130568D01*
X14553504Y-50226739D01*
X14773308Y-50285635D01*
X14935230Y-50299801D01*
X14999998Y-50305468D01*
X15000000Y-50305468D01*
X15000002Y-50305468D01*
X15056673Y-50300509D01*
X15226692Y-50285635D01*
X15446496Y-50226739D01*
X15652734Y-50130568D01*
X15839139Y-50000047D01*
X16000047Y-49839139D01*
X16130568Y-49652734D01*
X16226739Y-49446496D01*
X16285635Y-49226692D01*
X16291039Y-49164906D01*
X16316490Y-49099840D01*
X16326878Y-49088041D01*
X32523441Y-32891478D01*
X32584762Y-32857995D01*
X32654454Y-32862979D01*
X32710387Y-32904851D01*
X32734804Y-32970315D01*
X32734648Y-32989968D01*
X32732677Y-33012497D01*
X32732677Y-33012502D01*
X32751929Y-33232562D01*
X32751930Y-33232570D01*
X32809104Y-33445945D01*
X32809105Y-33445947D01*
X32809106Y-33445950D01*
X32839421Y-33510961D01*
X32902466Y-33646162D01*
X32902468Y-33646166D01*
X33029170Y-33827115D01*
X33029175Y-33827121D01*
X33185378Y-33983324D01*
X33185384Y-33983329D01*
X33366333Y-34110031D01*
X33366335Y-34110032D01*
X33366338Y-34110034D01*
X33485748Y-34165715D01*
X33495189Y-34170118D01*
X33547628Y-34216290D01*
X33566780Y-34283484D01*
X33546564Y-34350365D01*
X33495189Y-34394882D01*
X33366340Y-34454965D01*
X33366338Y-34454966D01*
X33185377Y-34581675D01*
X33029175Y-34737877D01*
X32902466Y-34918838D01*
X32902465Y-34918840D01*
X32809107Y-35119048D01*
X32809104Y-35119054D01*
X32751930Y-35332429D01*
X32751929Y-35332437D01*
X32732677Y-35552497D01*
X32732677Y-35552502D01*
X32751929Y-35772562D01*
X32751930Y-35772570D01*
X32809104Y-35985945D01*
X32809105Y-35985947D01*
X32809106Y-35985950D01*
X32902466Y-36186162D01*
X32902468Y-36186166D01*
X33029170Y-36367115D01*
X33029175Y-36367121D01*
X33185378Y-36523324D01*
X33185384Y-36523329D01*
X33366333Y-36650031D01*
X33366335Y-36650032D01*
X33366338Y-36650034D01*
X33472037Y-36699322D01*
X33495189Y-36710118D01*
X33547628Y-36756290D01*
X33566780Y-36823484D01*
X33546564Y-36890365D01*
X33495189Y-36934882D01*
X33366340Y-36994965D01*
X33366338Y-36994966D01*
X33185377Y-37121675D01*
X33029175Y-37277877D01*
X32902466Y-37458838D01*
X32902465Y-37458840D01*
X32809107Y-37659048D01*
X32809104Y-37659054D01*
X32751930Y-37872429D01*
X32751929Y-37872437D01*
X32732677Y-38092497D01*
X32732677Y-38092502D01*
X32751929Y-38312562D01*
X32751930Y-38312570D01*
X32809104Y-38525945D01*
X32809105Y-38525947D01*
X32809106Y-38525950D01*
X32832770Y-38576697D01*
X32902466Y-38726162D01*
X32902468Y-38726166D01*
X33029170Y-38907115D01*
X33029175Y-38907121D01*
X33185378Y-39063324D01*
X33185384Y-39063329D01*
X33366333Y-39190031D01*
X33366335Y-39190032D01*
X33366338Y-39190034D01*
X33485748Y-39245715D01*
X33495189Y-39250118D01*
X33547628Y-39296290D01*
X33566780Y-39363484D01*
X33546564Y-39430365D01*
X33495189Y-39474882D01*
X33366340Y-39534965D01*
X33366338Y-39534966D01*
X33185377Y-39661675D01*
X33029175Y-39817877D01*
X32902466Y-39998838D01*
X32902465Y-39998840D01*
X32809107Y-40199048D01*
X32809104Y-40199054D01*
X32751930Y-40412429D01*
X32751929Y-40412437D01*
X32732677Y-40632497D01*
X32732677Y-40632502D01*
X32751929Y-40852562D01*
X32751930Y-40852570D01*
X32809104Y-41065945D01*
X32809105Y-41065947D01*
X32809106Y-41065950D01*
X32902466Y-41266162D01*
X32902468Y-41266166D01*
X33029170Y-41447115D01*
X33029175Y-41447121D01*
X33185378Y-41603324D01*
X33185384Y-41603329D01*
X33366333Y-41730031D01*
X33366335Y-41730032D01*
X33366338Y-41730034D01*
X33485748Y-41785715D01*
X33495189Y-41790118D01*
X33547628Y-41836290D01*
X33566780Y-41903484D01*
X33546564Y-41970365D01*
X33495189Y-42014882D01*
X33366340Y-42074965D01*
X33366338Y-42074966D01*
X33185377Y-42201675D01*
X33029175Y-42357877D01*
X32902466Y-42538838D01*
X32902465Y-42538840D01*
X32809107Y-42739048D01*
X32809104Y-42739054D01*
X32751930Y-42952429D01*
X32751929Y-42952437D01*
X32732677Y-43172497D01*
X32732677Y-43172502D01*
X32751929Y-43392562D01*
X32751930Y-43392570D01*
X32809104Y-43605945D01*
X32809105Y-43605947D01*
X32809106Y-43605950D01*
X32902466Y-43806162D01*
X32902468Y-43806166D01*
X33029170Y-43987115D01*
X33029175Y-43987121D01*
X33185378Y-44143324D01*
X33185384Y-44143329D01*
X33366333Y-44270031D01*
X33366335Y-44270032D01*
X33366338Y-44270034D01*
X33485748Y-44325715D01*
X33495189Y-44330118D01*
X33547628Y-44376290D01*
X33566780Y-44443484D01*
X33546564Y-44510365D01*
X33495189Y-44554882D01*
X33366340Y-44614965D01*
X33366338Y-44614966D01*
X33185377Y-44741675D01*
X33029175Y-44897877D01*
X32902466Y-45078838D01*
X32902465Y-45078840D01*
X32809107Y-45279048D01*
X32809104Y-45279054D01*
X32751930Y-45492429D01*
X32751929Y-45492437D01*
X32732677Y-45712497D01*
X32732677Y-45712502D01*
X32751929Y-45932562D01*
X32751930Y-45932570D01*
X32809104Y-46145945D01*
X32809105Y-46145947D01*
X32809106Y-46145950D01*
X32902466Y-46346162D01*
X32902468Y-46346166D01*
X33029170Y-46527115D01*
X33029175Y-46527121D01*
X33185378Y-46683324D01*
X33185384Y-46683329D01*
X33366333Y-46810031D01*
X33366335Y-46810032D01*
X33366338Y-46810034D01*
X33566550Y-46903394D01*
X33779932Y-46960570D01*
X33937123Y-46974322D01*
X33999998Y-46979823D01*
X34000000Y-46979823D01*
X34000002Y-46979823D01*
X34055017Y-46975009D01*
X34220068Y-46960570D01*
X34305407Y-46937703D01*
X34375255Y-46939364D01*
X34433118Y-46978526D01*
X34460623Y-47042754D01*
X34461500Y-47057477D01*
X34461500Y-47927216D01*
X34441815Y-47994255D01*
X34425182Y-48014897D01*
X34329399Y-48110681D01*
X34268076Y-48144166D01*
X34241717Y-48147000D01*
X24877588Y-48147000D01*
X24810549Y-48127315D01*
X24806465Y-48124575D01*
X24786622Y-48110681D01*
X24652734Y-48016932D01*
X24616323Y-47999953D01*
X24446497Y-47920761D01*
X24446488Y-47920758D01*
X24226697Y-47861866D01*
X24226693Y-47861865D01*
X24226692Y-47861865D01*
X24226691Y-47861864D01*
X24226686Y-47861864D01*
X24000002Y-47842032D01*
X23999998Y-47842032D01*
X23773313Y-47861864D01*
X23773302Y-47861866D01*
X23553511Y-47920758D01*
X23553502Y-47920761D01*
X23347267Y-48016931D01*
X23347265Y-48016932D01*
X23160858Y-48147454D01*
X22999954Y-48308358D01*
X22869432Y-48494765D01*
X22869431Y-48494767D01*
X22773261Y-48701002D01*
X22773258Y-48701011D01*
X22714366Y-48920802D01*
X22714364Y-48920813D01*
X22694532Y-49147498D01*
X22694532Y-49147501D01*
X22714364Y-49374186D01*
X22714366Y-49374197D01*
X22773258Y-49593988D01*
X22773261Y-49593997D01*
X22869431Y-49800232D01*
X22869432Y-49800234D01*
X22999954Y-49986641D01*
X23160858Y-50147545D01*
X23160861Y-50147547D01*
X23347266Y-50278068D01*
X23553504Y-50374239D01*
X23773308Y-50433135D01*
X23935230Y-50447301D01*
X23999998Y-50452968D01*
X24000000Y-50452968D01*
X24000002Y-50452968D01*
X24056673Y-50448009D01*
X24226692Y-50433135D01*
X24446496Y-50374239D01*
X24652734Y-50278068D01*
X24806465Y-50170424D01*
X24872671Y-50148098D01*
X24877588Y-50148000D01*
X34694784Y-50148000D01*
X34783858Y-50150257D01*
X34783858Y-50150256D01*
X34783863Y-50150257D01*
X34844253Y-50139432D01*
X34848912Y-50138780D01*
X34891107Y-50134488D01*
X34909938Y-50132574D01*
X34942727Y-50122286D01*
X34950340Y-50120418D01*
X34984153Y-50114358D01*
X35041121Y-50091601D01*
X35045553Y-50090024D01*
X35104088Y-50071659D01*
X35134127Y-50054984D01*
X35141208Y-50051622D01*
X35173117Y-50038877D01*
X35224354Y-50005108D01*
X35228351Y-50002687D01*
X35282002Y-49972909D01*
X35308068Y-49950530D01*
X35314343Y-49945800D01*
X35343019Y-49926902D01*
X35386385Y-49883534D01*
X35389843Y-49880330D01*
X35418471Y-49855752D01*
X35436395Y-49840366D01*
X35457428Y-49813191D01*
X35462598Y-49807321D01*
X36160468Y-49109451D01*
X36225053Y-49048059D01*
X36248022Y-49015056D01*
X36260099Y-48997706D01*
X36262938Y-48993941D01*
X36266612Y-48989435D01*
X36301698Y-48946407D01*
X36317601Y-48915960D01*
X36321674Y-48909239D01*
X36326489Y-48902320D01*
X36341295Y-48881049D01*
X36365492Y-48824660D01*
X36367498Y-48820435D01*
X36395909Y-48766049D01*
X36405357Y-48733022D01*
X36407988Y-48725633D01*
X36421540Y-48694058D01*
X36433895Y-48633930D01*
X36434999Y-48629429D01*
X36451886Y-48570418D01*
X36454494Y-48536157D01*
X36455585Y-48528389D01*
X36462500Y-48494743D01*
X36462500Y-48433398D01*
X36462679Y-48428688D01*
X36467337Y-48367524D01*
X36462997Y-48333442D01*
X36462500Y-48325603D01*
X36462500Y-47064500D01*
X36482185Y-46997461D01*
X36534989Y-46951706D01*
X36586500Y-46940500D01*
X58099267Y-46940500D01*
X58166306Y-46960185D01*
X58198531Y-46990186D01*
X58250454Y-47059546D01*
X58257072Y-47064500D01*
X58365664Y-47145793D01*
X58365671Y-47145797D01*
X58500517Y-47196091D01*
X58500516Y-47196091D01*
X58507444Y-47196835D01*
X58560127Y-47202500D01*
X60179872Y-47202499D01*
X60239483Y-47196091D01*
X60374331Y-47145796D01*
X60489546Y-47059546D01*
X60575796Y-46944331D01*
X60626091Y-46809483D01*
X60632500Y-46749873D01*
X60632499Y-45130128D01*
X60626986Y-45078839D01*
X60626091Y-45070516D01*
X60575797Y-44935671D01*
X60575793Y-44935664D01*
X60489547Y-44820455D01*
X60489544Y-44820452D01*
X60374335Y-44734206D01*
X60374328Y-44734202D01*
X60239482Y-44683908D01*
X60239483Y-44683908D01*
X60179883Y-44677501D01*
X60179881Y-44677500D01*
X60179873Y-44677500D01*
X60179864Y-44677500D01*
X58560129Y-44677500D01*
X58560123Y-44677501D01*
X58500516Y-44683908D01*
X58365671Y-44734202D01*
X58365664Y-44734206D01*
X58250456Y-44820452D01*
X58250455Y-44820453D01*
X58250454Y-44820454D01*
X58198532Y-44889812D01*
X58142600Y-44931682D01*
X58099267Y-44939500D01*
X36586500Y-44939500D01*
X36519461Y-44919815D01*
X36473706Y-44867011D01*
X36462500Y-44815500D01*
X36462500Y-43400002D01*
X83732677Y-43400002D01*
X83751929Y-43620062D01*
X83751930Y-43620070D01*
X83809104Y-43833445D01*
X83809105Y-43833447D01*
X83809106Y-43833450D01*
X83880761Y-43987115D01*
X83902466Y-44033662D01*
X83902468Y-44033666D01*
X84029170Y-44214615D01*
X84029174Y-44214620D01*
X84185380Y-44370826D01*
X84291564Y-44445177D01*
X84301202Y-44451925D01*
X84344827Y-44506502D01*
X84352021Y-44576000D01*
X84320498Y-44638355D01*
X84260269Y-44673769D01*
X84230082Y-44677500D01*
X84190131Y-44677500D01*
X84190123Y-44677501D01*
X84130516Y-44683908D01*
X83995671Y-44734202D01*
X83995664Y-44734206D01*
X83880455Y-44820452D01*
X83880452Y-44820455D01*
X83794206Y-44935664D01*
X83794202Y-44935671D01*
X83743908Y-45070517D01*
X83737501Y-45130116D01*
X83737501Y-45130123D01*
X83737500Y-45130135D01*
X83737500Y-46749870D01*
X83737501Y-46749876D01*
X83743908Y-46809483D01*
X83794202Y-46944328D01*
X83794206Y-46944335D01*
X83880452Y-47059544D01*
X83880455Y-47059547D01*
X83995664Y-47145793D01*
X83995671Y-47145797D01*
X84130517Y-47196091D01*
X84130516Y-47196091D01*
X84137444Y-47196835D01*
X84190127Y-47202500D01*
X85809872Y-47202499D01*
X85869483Y-47196091D01*
X86004331Y-47145796D01*
X86119546Y-47059546D01*
X86205796Y-46944331D01*
X86256091Y-46809483D01*
X86262500Y-46749873D01*
X86262499Y-45130128D01*
X86256986Y-45078839D01*
X86256091Y-45070516D01*
X86205797Y-44935671D01*
X86205793Y-44935664D01*
X86119547Y-44820455D01*
X86119544Y-44820452D01*
X86004335Y-44734206D01*
X86004328Y-44734202D01*
X85869482Y-44683908D01*
X85869483Y-44683908D01*
X85809883Y-44677501D01*
X85809881Y-44677500D01*
X85809873Y-44677500D01*
X85809865Y-44677500D01*
X85769921Y-44677500D01*
X85702882Y-44657815D01*
X85657127Y-44605011D01*
X85647183Y-44535853D01*
X85676208Y-44472297D01*
X85698798Y-44451925D01*
X85814620Y-44370826D01*
X85970826Y-44214620D01*
X86097534Y-44033662D01*
X86190894Y-43833450D01*
X86248070Y-43620068D01*
X86267323Y-43400000D01*
X86266672Y-43392562D01*
X86248070Y-43179937D01*
X86248070Y-43179932D01*
X86190894Y-42966550D01*
X86097534Y-42766339D01*
X86005440Y-42634814D01*
X85970827Y-42585381D01*
X85924284Y-42538838D01*
X85814620Y-42429174D01*
X85814616Y-42429171D01*
X85814615Y-42429170D01*
X85633666Y-42302468D01*
X85633658Y-42302464D01*
X85504811Y-42242382D01*
X85452371Y-42196210D01*
X85433219Y-42129017D01*
X85453435Y-42062135D01*
X85504811Y-42017618D01*
X85542554Y-42000018D01*
X85633662Y-41957534D01*
X85814620Y-41830826D01*
X85970826Y-41674620D01*
X86097534Y-41493662D01*
X86190894Y-41293450D01*
X86248070Y-41080068D01*
X86267323Y-40860000D01*
X86266672Y-40852562D01*
X86248070Y-40639937D01*
X86248070Y-40639932D01*
X86190894Y-40426550D01*
X86097534Y-40226339D01*
X85970826Y-40045380D01*
X85814620Y-39889174D01*
X85814616Y-39889171D01*
X85814615Y-39889170D01*
X85633666Y-39762468D01*
X85633658Y-39762464D01*
X85504811Y-39702382D01*
X85452371Y-39656210D01*
X85433219Y-39589017D01*
X85453435Y-39522135D01*
X85504811Y-39477618D01*
X85510802Y-39474824D01*
X85633662Y-39417534D01*
X85814620Y-39290826D01*
X85970826Y-39134620D01*
X86097534Y-38953662D01*
X86190894Y-38753450D01*
X86248070Y-38540068D01*
X86267323Y-38320000D01*
X86266672Y-38312562D01*
X86250759Y-38130668D01*
X86248070Y-38099932D01*
X86190894Y-37886550D01*
X86097534Y-37686339D01*
X85970826Y-37505380D01*
X85814620Y-37349174D01*
X85814616Y-37349171D01*
X85814615Y-37349170D01*
X85633666Y-37222468D01*
X85633658Y-37222464D01*
X85504811Y-37162382D01*
X85452371Y-37116210D01*
X85433219Y-37049017D01*
X85453435Y-36982135D01*
X85504811Y-36937618D01*
X85516027Y-36932388D01*
X85633662Y-36877534D01*
X85814620Y-36750826D01*
X85970826Y-36594620D01*
X86097534Y-36413662D01*
X86190894Y-36213450D01*
X86248070Y-36000068D01*
X86267323Y-35780000D01*
X86266672Y-35772562D01*
X86248070Y-35559937D01*
X86248070Y-35559932D01*
X86190894Y-35346550D01*
X86097534Y-35146339D01*
X85970826Y-34965380D01*
X85814620Y-34809174D01*
X85814616Y-34809171D01*
X85814615Y-34809170D01*
X85633666Y-34682468D01*
X85633658Y-34682464D01*
X85504811Y-34622382D01*
X85452371Y-34576210D01*
X85433219Y-34509017D01*
X85453435Y-34442135D01*
X85504811Y-34397618D01*
X85510802Y-34394824D01*
X85633662Y-34337534D01*
X85814620Y-34210826D01*
X85970826Y-34054620D01*
X86097534Y-33873662D01*
X86190894Y-33673450D01*
X86248070Y-33460068D01*
X86267323Y-33240000D01*
X86266672Y-33232562D01*
X86248070Y-33019937D01*
X86248070Y-33019932D01*
X86190894Y-32806550D01*
X86097534Y-32606339D01*
X85970826Y-32425380D01*
X85814620Y-32269174D01*
X85814616Y-32269171D01*
X85814615Y-32269170D01*
X85633666Y-32142468D01*
X85633658Y-32142464D01*
X85504811Y-32082382D01*
X85452371Y-32036210D01*
X85433219Y-31969017D01*
X85453435Y-31902135D01*
X85504811Y-31857618D01*
X85553210Y-31835049D01*
X85633662Y-31797534D01*
X85814620Y-31670826D01*
X85970826Y-31514620D01*
X86097534Y-31333662D01*
X86190894Y-31133450D01*
X86248070Y-30920068D01*
X86267323Y-30700000D01*
X86248070Y-30479932D01*
X86190894Y-30266550D01*
X86097534Y-30066339D01*
X85970826Y-29885380D01*
X85814620Y-29729174D01*
X85814616Y-29729171D01*
X85814615Y-29729170D01*
X85633666Y-29602468D01*
X85633658Y-29602464D01*
X85504811Y-29542382D01*
X85452371Y-29496210D01*
X85433219Y-29429017D01*
X85453435Y-29362135D01*
X85504811Y-29317618D01*
X85510802Y-29314824D01*
X85633662Y-29257534D01*
X85814620Y-29130826D01*
X85970826Y-28974620D01*
X86097534Y-28793662D01*
X86190894Y-28593450D01*
X86248070Y-28380068D01*
X86267323Y-28160000D01*
X86248070Y-27939932D01*
X86190894Y-27726550D01*
X86097534Y-27526339D01*
X85970826Y-27345380D01*
X85814620Y-27189174D01*
X85814616Y-27189171D01*
X85814615Y-27189170D01*
X85633666Y-27062468D01*
X85633658Y-27062464D01*
X85504811Y-27002382D01*
X85452371Y-26956210D01*
X85433219Y-26889017D01*
X85453435Y-26822135D01*
X85504811Y-26777618D01*
X85517807Y-26771558D01*
X85633662Y-26717534D01*
X85814620Y-26590826D01*
X85970826Y-26434620D01*
X86097534Y-26253662D01*
X86190894Y-26053450D01*
X86248070Y-25840068D01*
X86267323Y-25620000D01*
X86248070Y-25399932D01*
X86190894Y-25186550D01*
X86097534Y-24986339D01*
X85970826Y-24805380D01*
X85814620Y-24649174D01*
X85814616Y-24649171D01*
X85814615Y-24649170D01*
X85633666Y-24522468D01*
X85633658Y-24522464D01*
X85504811Y-24462382D01*
X85452371Y-24416210D01*
X85433219Y-24349017D01*
X85453435Y-24282135D01*
X85504811Y-24237618D01*
X85537791Y-24222239D01*
X85633662Y-24177534D01*
X85814620Y-24050826D01*
X85970826Y-23894620D01*
X86097534Y-23713662D01*
X86190894Y-23513450D01*
X86248070Y-23300068D01*
X86267323Y-23080000D01*
X86248070Y-22859932D01*
X86190894Y-22646550D01*
X86097534Y-22446339D01*
X86034180Y-22355859D01*
X85970827Y-22265381D01*
X85970823Y-22265377D01*
X85814620Y-22109174D01*
X85814616Y-22109171D01*
X85814615Y-22109170D01*
X85633666Y-21982468D01*
X85633658Y-21982464D01*
X85504811Y-21922382D01*
X85452371Y-21876210D01*
X85433219Y-21809017D01*
X85453435Y-21742135D01*
X85504811Y-21697618D01*
X85510802Y-21694824D01*
X85633662Y-21637534D01*
X85814620Y-21510826D01*
X85970826Y-21354620D01*
X86097534Y-21173662D01*
X86190894Y-20973450D01*
X86248070Y-20760068D01*
X86267323Y-20540000D01*
X86248070Y-20319932D01*
X86190894Y-20106550D01*
X86141209Y-20000001D01*
X90194532Y-20000001D01*
X90214364Y-20226686D01*
X90214366Y-20226697D01*
X90273258Y-20446488D01*
X90273261Y-20446497D01*
X90369431Y-20652732D01*
X90369432Y-20652734D01*
X90499954Y-20839141D01*
X90660858Y-21000045D01*
X90660861Y-21000047D01*
X90847266Y-21130568D01*
X91053504Y-21226739D01*
X91273308Y-21285635D01*
X91435230Y-21299801D01*
X91499998Y-21305468D01*
X91500000Y-21305468D01*
X91500002Y-21305468D01*
X91556673Y-21300509D01*
X91726692Y-21285635D01*
X91946496Y-21226739D01*
X92152734Y-21130568D01*
X92339139Y-21000047D01*
X92500047Y-20839139D01*
X92630568Y-20652734D01*
X92637618Y-20637614D01*
X92683789Y-20585176D01*
X92750982Y-20566023D01*
X92817864Y-20586238D01*
X92862381Y-20637614D01*
X92869432Y-20652733D01*
X92869432Y-20652734D01*
X92999954Y-20839141D01*
X93160858Y-21000045D01*
X93160861Y-21000047D01*
X93347266Y-21130568D01*
X93553504Y-21226739D01*
X93773308Y-21285635D01*
X93935230Y-21299801D01*
X93999998Y-21305468D01*
X94000000Y-21305468D01*
X94000002Y-21305468D01*
X94056673Y-21300509D01*
X94226692Y-21285635D01*
X94446496Y-21226739D01*
X94652734Y-21130568D01*
X94839139Y-21000047D01*
X95000047Y-20839139D01*
X95130568Y-20652734D01*
X95226739Y-20446496D01*
X95285635Y-20226692D01*
X95305468Y-20000000D01*
X95285635Y-19773308D01*
X95226739Y-19553504D01*
X95130568Y-19347266D01*
X95000047Y-19160861D01*
X95000045Y-19160858D01*
X94839141Y-18999954D01*
X94652734Y-18869432D01*
X94652732Y-18869431D01*
X94446497Y-18773261D01*
X94446488Y-18773258D01*
X94226697Y-18714366D01*
X94226693Y-18714365D01*
X94226692Y-18714365D01*
X94226691Y-18714364D01*
X94226686Y-18714364D01*
X94000002Y-18694532D01*
X93999998Y-18694532D01*
X93773313Y-18714364D01*
X93773302Y-18714366D01*
X93553511Y-18773258D01*
X93553502Y-18773261D01*
X93347267Y-18869431D01*
X93347265Y-18869432D01*
X93160858Y-18999954D01*
X92999954Y-19160858D01*
X92869433Y-19347264D01*
X92869432Y-19347266D01*
X92862380Y-19362387D01*
X92816209Y-19414825D01*
X92749015Y-19433976D01*
X92682134Y-19413760D01*
X92637619Y-19362387D01*
X92630568Y-19347266D01*
X92500047Y-19160861D01*
X92500045Y-19160858D01*
X92339141Y-18999954D01*
X92152734Y-18869432D01*
X92152732Y-18869431D01*
X91946497Y-18773261D01*
X91946488Y-18773258D01*
X91726697Y-18714366D01*
X91726693Y-18714365D01*
X91726692Y-18714365D01*
X91726691Y-18714364D01*
X91726686Y-18714364D01*
X91500002Y-18694532D01*
X91499998Y-18694532D01*
X91273313Y-18714364D01*
X91273302Y-18714366D01*
X91053511Y-18773258D01*
X91053502Y-18773261D01*
X90847267Y-18869431D01*
X90847265Y-18869432D01*
X90660858Y-18999954D01*
X90499954Y-19160858D01*
X90369432Y-19347265D01*
X90369431Y-19347267D01*
X90273261Y-19553502D01*
X90273258Y-19553511D01*
X90214366Y-19773302D01*
X90214364Y-19773313D01*
X90194532Y-19999998D01*
X90194532Y-20000001D01*
X86141209Y-20000001D01*
X86097534Y-19906339D01*
X86004381Y-19773302D01*
X85970827Y-19725381D01*
X85970823Y-19725377D01*
X85814620Y-19569174D01*
X85814616Y-19569171D01*
X85814615Y-19569170D01*
X85633666Y-19442468D01*
X85633658Y-19442464D01*
X85504811Y-19382382D01*
X85452371Y-19336210D01*
X85433219Y-19269017D01*
X85453435Y-19202135D01*
X85504811Y-19157618D01*
X85510802Y-19154824D01*
X85633662Y-19097534D01*
X85814620Y-18970826D01*
X85970826Y-18814620D01*
X86097534Y-18633662D01*
X86190894Y-18433450D01*
X86248070Y-18220068D01*
X86267323Y-18000000D01*
X86248070Y-17779932D01*
X86190894Y-17566550D01*
X86097534Y-17366339D01*
X85970826Y-17185380D01*
X85814620Y-17029174D01*
X85814616Y-17029171D01*
X85814615Y-17029170D01*
X85633666Y-16902468D01*
X85633658Y-16902464D01*
X85504811Y-16842382D01*
X85452371Y-16796210D01*
X85433219Y-16729017D01*
X85453435Y-16662135D01*
X85504811Y-16617618D01*
X85510802Y-16614824D01*
X85633662Y-16557534D01*
X85814620Y-16430826D01*
X85970826Y-16274620D01*
X86097534Y-16093662D01*
X86190894Y-15893450D01*
X86248070Y-15680068D01*
X86267323Y-15460000D01*
X86248070Y-15239932D01*
X86190894Y-15026550D01*
X86097534Y-14826339D01*
X85970826Y-14645380D01*
X85814620Y-14489174D01*
X85814616Y-14489171D01*
X85814615Y-14489170D01*
X85633666Y-14362468D01*
X85633658Y-14362464D01*
X85504811Y-14302382D01*
X85452371Y-14256210D01*
X85433219Y-14189017D01*
X85453435Y-14122135D01*
X85504811Y-14077618D01*
X85522576Y-14069334D01*
X85633662Y-14017534D01*
X85814620Y-13890826D01*
X85905445Y-13800001D01*
X90149500Y-13800001D01*
X90149501Y-13800018D01*
X90160000Y-13902796D01*
X90160001Y-13902799D01*
X90215185Y-14069331D01*
X90215187Y-14069336D01*
X90226742Y-14088070D01*
X90307288Y-14218656D01*
X90431344Y-14342712D01*
X90580666Y-14434814D01*
X90747203Y-14489999D01*
X90849991Y-14500500D01*
X92150008Y-14500499D01*
X92252797Y-14489999D01*
X92419334Y-14434814D01*
X92568656Y-14342712D01*
X92692712Y-14218656D01*
X92784814Y-14069334D01*
X92784814Y-14069331D01*
X92788178Y-14063879D01*
X92840126Y-14017154D01*
X92909088Y-14005931D01*
X92973170Y-14033774D01*
X92981398Y-14041294D01*
X93128599Y-14188495D01*
X93171675Y-14218657D01*
X93322165Y-14324032D01*
X93322167Y-14324033D01*
X93322170Y-14324035D01*
X93536337Y-14423903D01*
X93764592Y-14485063D01*
X93941034Y-14500500D01*
X93999999Y-14505659D01*
X94000000Y-14505659D01*
X94000001Y-14505659D01*
X94058966Y-14500500D01*
X94235408Y-14485063D01*
X94463663Y-14423903D01*
X94677829Y-14324035D01*
X94871401Y-14188495D01*
X95038495Y-14021401D01*
X95174035Y-13827829D01*
X95273903Y-13613663D01*
X95335063Y-13385408D01*
X95350500Y-13208966D01*
X95350500Y-12791034D01*
X95335063Y-12614592D01*
X95279319Y-12406550D01*
X95273905Y-12386344D01*
X95273904Y-12386343D01*
X95273903Y-12386337D01*
X95174035Y-12172171D01*
X95155105Y-12145135D01*
X95038494Y-11978597D01*
X94871402Y-11811506D01*
X94871395Y-11811501D01*
X94677834Y-11675967D01*
X94677830Y-11675965D01*
X94616407Y-11647323D01*
X94463663Y-11576097D01*
X94463659Y-11576096D01*
X94463655Y-11576094D01*
X94235413Y-11514938D01*
X94235403Y-11514936D01*
X94000001Y-11494341D01*
X93999999Y-11494341D01*
X93764596Y-11514936D01*
X93764586Y-11514938D01*
X93536344Y-11576094D01*
X93536335Y-11576098D01*
X93322171Y-11675964D01*
X93322169Y-11675965D01*
X93128597Y-11811505D01*
X92981398Y-11958705D01*
X92920075Y-11992190D01*
X92850383Y-11987206D01*
X92794450Y-11945334D01*
X92788178Y-11936120D01*
X92692712Y-11781344D01*
X92568657Y-11657289D01*
X92568656Y-11657288D01*
X92446813Y-11582135D01*
X92419336Y-11565187D01*
X92419331Y-11565185D01*
X92367681Y-11548070D01*
X92252797Y-11510001D01*
X92252795Y-11510000D01*
X92150010Y-11499500D01*
X90849998Y-11499500D01*
X90849981Y-11499501D01*
X90747203Y-11510000D01*
X90747200Y-11510001D01*
X90580668Y-11565185D01*
X90580663Y-11565187D01*
X90431342Y-11657289D01*
X90307289Y-11781342D01*
X90215187Y-11930663D01*
X90215185Y-11930668D01*
X90196450Y-11987206D01*
X90160001Y-12097203D01*
X90160001Y-12097204D01*
X90160000Y-12097204D01*
X90149500Y-12199983D01*
X90149500Y-13800001D01*
X85905445Y-13800001D01*
X85970826Y-13734620D01*
X86097534Y-13553662D01*
X86190894Y-13353450D01*
X86248070Y-13140068D01*
X86267323Y-12920000D01*
X86248070Y-12699932D01*
X86190894Y-12486550D01*
X86097534Y-12286339D01*
X85998663Y-12145135D01*
X85970827Y-12105381D01*
X85962649Y-12097203D01*
X85814620Y-11949174D01*
X85814616Y-11949171D01*
X85814615Y-11949170D01*
X85633666Y-11822468D01*
X85633658Y-11822464D01*
X85504811Y-11762382D01*
X85452371Y-11716210D01*
X85433219Y-11649017D01*
X85453435Y-11582135D01*
X85504811Y-11537618D01*
X85510802Y-11534824D01*
X85633662Y-11477534D01*
X85814620Y-11350826D01*
X85970826Y-11194620D01*
X86097534Y-11013662D01*
X86190894Y-10813450D01*
X86248070Y-10600068D01*
X86267323Y-10380000D01*
X86248070Y-10159932D01*
X86190894Y-9946550D01*
X86097534Y-9746339D01*
X85970826Y-9565380D01*
X85814620Y-9409174D01*
X85814616Y-9409171D01*
X85814615Y-9409170D01*
X85633666Y-9282468D01*
X85633662Y-9282466D01*
X85633660Y-9282465D01*
X85433450Y-9189106D01*
X85433447Y-9189105D01*
X85433445Y-9189104D01*
X85220070Y-9131930D01*
X85220062Y-9131929D01*
X85000002Y-9112677D01*
X84999998Y-9112677D01*
X84779937Y-9131929D01*
X84779929Y-9131930D01*
X84566554Y-9189104D01*
X84566548Y-9189107D01*
X84366340Y-9282465D01*
X84366338Y-9282466D01*
X84185377Y-9409175D01*
X84029175Y-9565377D01*
X83902466Y-9746338D01*
X83902465Y-9746340D01*
X83809107Y-9946548D01*
X83809104Y-9946554D01*
X83751930Y-10159929D01*
X83751929Y-10159937D01*
X83732677Y-10379997D01*
X83732677Y-10380002D01*
X83751929Y-10600062D01*
X83751930Y-10600070D01*
X83809104Y-10813445D01*
X83809105Y-10813447D01*
X83809106Y-10813450D01*
X83874578Y-10953856D01*
X83902466Y-11013662D01*
X83902468Y-11013666D01*
X84029170Y-11194615D01*
X84029175Y-11194621D01*
X84185378Y-11350824D01*
X84185384Y-11350829D01*
X84366333Y-11477531D01*
X84366335Y-11477532D01*
X84366338Y-11477534D01*
X84485748Y-11533215D01*
X84495189Y-11537618D01*
X84547628Y-11583790D01*
X84566780Y-11650984D01*
X84546564Y-11717865D01*
X84495189Y-11762382D01*
X84366340Y-11822465D01*
X84366338Y-11822466D01*
X84185377Y-11949175D01*
X84029175Y-12105377D01*
X83902466Y-12286338D01*
X83902465Y-12286340D01*
X83809107Y-12486548D01*
X83809104Y-12486554D01*
X83751930Y-12699929D01*
X83751929Y-12699937D01*
X83732677Y-12919997D01*
X83732677Y-12920002D01*
X83751929Y-13140062D01*
X83751930Y-13140070D01*
X83809104Y-13353445D01*
X83809105Y-13353447D01*
X83809106Y-13353450D01*
X83887280Y-13521096D01*
X83902466Y-13553662D01*
X83902468Y-13553666D01*
X84029170Y-13734615D01*
X84029175Y-13734621D01*
X84185378Y-13890824D01*
X84185384Y-13890829D01*
X84366333Y-14017531D01*
X84366335Y-14017532D01*
X84366338Y-14017534D01*
X84477424Y-14069334D01*
X84495189Y-14077618D01*
X84547628Y-14123790D01*
X84566780Y-14190984D01*
X84546564Y-14257865D01*
X84495189Y-14302382D01*
X84366340Y-14362465D01*
X84366338Y-14362466D01*
X84185377Y-14489175D01*
X84029175Y-14645377D01*
X83902466Y-14826338D01*
X83902465Y-14826340D01*
X83809107Y-15026548D01*
X83809104Y-15026554D01*
X83751930Y-15239929D01*
X83751929Y-15239937D01*
X83732677Y-15459997D01*
X83732677Y-15460002D01*
X83751929Y-15680062D01*
X83751930Y-15680070D01*
X83809104Y-15893445D01*
X83809105Y-15893447D01*
X83809106Y-15893450D01*
X83887280Y-16061096D01*
X83902466Y-16093662D01*
X83902468Y-16093666D01*
X84029170Y-16274615D01*
X84029175Y-16274621D01*
X84185378Y-16430824D01*
X84185384Y-16430829D01*
X84366333Y-16557531D01*
X84366335Y-16557532D01*
X84366338Y-16557534D01*
X84485748Y-16613215D01*
X84495189Y-16617618D01*
X84547628Y-16663790D01*
X84566780Y-16730984D01*
X84546564Y-16797865D01*
X84495189Y-16842382D01*
X84366340Y-16902465D01*
X84366338Y-16902466D01*
X84185377Y-17029175D01*
X84029175Y-17185377D01*
X83902466Y-17366338D01*
X83902465Y-17366340D01*
X83809107Y-17566548D01*
X83809104Y-17566554D01*
X83751930Y-17779929D01*
X83751929Y-17779937D01*
X83732677Y-17999997D01*
X83732677Y-18000002D01*
X83751929Y-18220062D01*
X83751930Y-18220070D01*
X83809104Y-18433445D01*
X83809105Y-18433447D01*
X83809106Y-18433450D01*
X83902466Y-18633662D01*
X83902468Y-18633666D01*
X84029170Y-18814615D01*
X84029175Y-18814621D01*
X84185378Y-18970824D01*
X84185384Y-18970829D01*
X84366333Y-19097531D01*
X84366335Y-19097532D01*
X84366338Y-19097534D01*
X84485748Y-19153215D01*
X84495189Y-19157618D01*
X84547628Y-19203790D01*
X84566780Y-19270984D01*
X84546564Y-19337865D01*
X84495189Y-19382382D01*
X84366340Y-19442465D01*
X84366338Y-19442466D01*
X84185377Y-19569175D01*
X84029175Y-19725377D01*
X83902466Y-19906338D01*
X83902465Y-19906340D01*
X83809107Y-20106548D01*
X83809104Y-20106554D01*
X83751930Y-20319929D01*
X83751929Y-20319937D01*
X83732677Y-20539997D01*
X83732677Y-20540002D01*
X83751929Y-20760062D01*
X83751930Y-20760070D01*
X83809104Y-20973445D01*
X83809105Y-20973447D01*
X83809106Y-20973450D01*
X83882371Y-21130567D01*
X83902466Y-21173662D01*
X83902468Y-21173666D01*
X84029170Y-21354615D01*
X84029175Y-21354621D01*
X84185378Y-21510824D01*
X84185384Y-21510829D01*
X84366333Y-21637531D01*
X84366335Y-21637532D01*
X84366338Y-21637534D01*
X84485748Y-21693215D01*
X84495189Y-21697618D01*
X84547628Y-21743790D01*
X84566780Y-21810984D01*
X84546564Y-21877865D01*
X84495189Y-21922382D01*
X84366340Y-21982465D01*
X84366338Y-21982466D01*
X84185377Y-22109175D01*
X84029175Y-22265377D01*
X83902466Y-22446338D01*
X83902465Y-22446340D01*
X83809107Y-22646548D01*
X83809104Y-22646554D01*
X83751930Y-22859929D01*
X83751929Y-22859937D01*
X83732677Y-23079997D01*
X83732677Y-23080002D01*
X83751929Y-23300062D01*
X83751930Y-23300070D01*
X83809104Y-23513445D01*
X83809105Y-23513447D01*
X83809106Y-23513450D01*
X83902466Y-23713662D01*
X83902468Y-23713666D01*
X84029170Y-23894615D01*
X84029175Y-23894621D01*
X84185378Y-24050824D01*
X84185384Y-24050829D01*
X84366333Y-24177531D01*
X84366335Y-24177532D01*
X84366338Y-24177534D01*
X84462209Y-24222239D01*
X84495189Y-24237618D01*
X84547628Y-24283790D01*
X84566780Y-24350984D01*
X84546564Y-24417865D01*
X84495189Y-24462382D01*
X84366340Y-24522465D01*
X84366338Y-24522466D01*
X84185377Y-24649175D01*
X84029175Y-24805377D01*
X83902466Y-24986338D01*
X83902465Y-24986340D01*
X83809107Y-25186548D01*
X83809104Y-25186554D01*
X83751930Y-25399929D01*
X83751929Y-25399937D01*
X83732677Y-25619997D01*
X83732677Y-25620002D01*
X83751929Y-25840062D01*
X83751930Y-25840070D01*
X83809104Y-26053445D01*
X83809105Y-26053447D01*
X83809106Y-26053450D01*
X83902466Y-26253662D01*
X83902468Y-26253666D01*
X84029170Y-26434615D01*
X84029175Y-26434621D01*
X84185378Y-26590824D01*
X84185384Y-26590829D01*
X84366333Y-26717531D01*
X84366335Y-26717532D01*
X84366338Y-26717534D01*
X84417961Y-26741606D01*
X84495189Y-26777618D01*
X84547628Y-26823790D01*
X84566780Y-26890984D01*
X84546564Y-26957865D01*
X84495189Y-27002382D01*
X84366340Y-27062465D01*
X84366338Y-27062466D01*
X84185377Y-27189175D01*
X84029175Y-27345377D01*
X83902466Y-27526338D01*
X83902465Y-27526340D01*
X83809107Y-27726548D01*
X83809104Y-27726554D01*
X83751930Y-27939929D01*
X83751929Y-27939937D01*
X83732677Y-28159997D01*
X83732677Y-28160002D01*
X83751929Y-28380062D01*
X83751930Y-28380070D01*
X83809104Y-28593445D01*
X83809105Y-28593447D01*
X83809106Y-28593450D01*
X83866068Y-28715605D01*
X83902466Y-28793662D01*
X83902468Y-28793666D01*
X84029170Y-28974615D01*
X84029175Y-28974621D01*
X84185378Y-29130824D01*
X84185384Y-29130829D01*
X84366333Y-29257531D01*
X84366335Y-29257532D01*
X84366338Y-29257534D01*
X84485748Y-29313215D01*
X84495189Y-29317618D01*
X84547628Y-29363790D01*
X84566780Y-29430984D01*
X84546564Y-29497865D01*
X84495189Y-29542382D01*
X84366340Y-29602465D01*
X84366338Y-29602466D01*
X84185377Y-29729175D01*
X84029175Y-29885377D01*
X83902466Y-30066338D01*
X83902465Y-30066340D01*
X83809107Y-30266548D01*
X83809104Y-30266554D01*
X83751930Y-30479929D01*
X83751929Y-30479937D01*
X83732677Y-30699997D01*
X83732677Y-30700002D01*
X83751929Y-30920062D01*
X83751930Y-30920070D01*
X83809104Y-31133445D01*
X83809105Y-31133447D01*
X83809106Y-31133450D01*
X83831021Y-31180446D01*
X83902466Y-31333662D01*
X83902468Y-31333666D01*
X84029170Y-31514615D01*
X84029175Y-31514621D01*
X84185378Y-31670824D01*
X84185384Y-31670829D01*
X84366333Y-31797531D01*
X84366335Y-31797532D01*
X84366338Y-31797534D01*
X84417961Y-31821606D01*
X84495189Y-31857618D01*
X84547628Y-31903790D01*
X84566780Y-31970984D01*
X84546564Y-32037865D01*
X84495189Y-32082382D01*
X84366340Y-32142465D01*
X84366338Y-32142466D01*
X84185377Y-32269175D01*
X84029175Y-32425377D01*
X83902466Y-32606338D01*
X83902465Y-32606340D01*
X83809107Y-32806548D01*
X83809104Y-32806554D01*
X83751930Y-33019929D01*
X83751929Y-33019937D01*
X83732677Y-33239997D01*
X83732677Y-33240002D01*
X83751929Y-33460062D01*
X83751930Y-33460070D01*
X83809104Y-33673445D01*
X83809105Y-33673447D01*
X83809106Y-33673450D01*
X83880761Y-33827115D01*
X83902466Y-33873662D01*
X83902468Y-33873666D01*
X84029170Y-34054615D01*
X84029175Y-34054621D01*
X84185378Y-34210824D01*
X84185384Y-34210829D01*
X84366333Y-34337531D01*
X84366335Y-34337532D01*
X84366338Y-34337534D01*
X84417961Y-34361606D01*
X84495189Y-34397618D01*
X84547628Y-34443790D01*
X84566780Y-34510984D01*
X84546564Y-34577865D01*
X84495189Y-34622382D01*
X84366340Y-34682465D01*
X84366338Y-34682466D01*
X84185377Y-34809175D01*
X84029175Y-34965377D01*
X83902466Y-35146338D01*
X83902465Y-35146340D01*
X83809107Y-35346548D01*
X83809104Y-35346554D01*
X83751930Y-35559929D01*
X83751929Y-35559937D01*
X83732677Y-35779997D01*
X83732677Y-35780002D01*
X83751929Y-36000062D01*
X83751930Y-36000070D01*
X83809104Y-36213445D01*
X83809105Y-36213447D01*
X83809106Y-36213450D01*
X83880761Y-36367115D01*
X83902466Y-36413662D01*
X83902468Y-36413666D01*
X84029170Y-36594615D01*
X84029175Y-36594621D01*
X84185378Y-36750824D01*
X84185384Y-36750829D01*
X84366333Y-36877531D01*
X84366335Y-36877532D01*
X84366338Y-36877534D01*
X84446009Y-36914685D01*
X84495189Y-36937618D01*
X84547628Y-36983790D01*
X84566780Y-37050984D01*
X84546564Y-37117865D01*
X84495189Y-37162382D01*
X84366340Y-37222465D01*
X84366338Y-37222466D01*
X84185377Y-37349175D01*
X84029175Y-37505377D01*
X83902466Y-37686338D01*
X83902465Y-37686340D01*
X83809107Y-37886548D01*
X83809104Y-37886554D01*
X83751930Y-38099929D01*
X83751929Y-38099937D01*
X83732677Y-38319997D01*
X83732677Y-38320002D01*
X83751929Y-38540062D01*
X83751930Y-38540070D01*
X83809104Y-38753445D01*
X83809105Y-38753447D01*
X83809106Y-38753450D01*
X83829175Y-38796488D01*
X83902466Y-38953662D01*
X83902468Y-38953666D01*
X84029170Y-39134615D01*
X84029175Y-39134621D01*
X84185378Y-39290824D01*
X84185384Y-39290829D01*
X84366333Y-39417531D01*
X84366335Y-39417532D01*
X84366338Y-39417534D01*
X84417961Y-39441606D01*
X84495189Y-39477618D01*
X84547628Y-39523790D01*
X84566780Y-39590984D01*
X84546564Y-39657865D01*
X84495189Y-39702382D01*
X84366340Y-39762465D01*
X84366338Y-39762466D01*
X84185377Y-39889175D01*
X84029175Y-40045377D01*
X83902466Y-40226338D01*
X83902465Y-40226340D01*
X83809107Y-40426548D01*
X83809104Y-40426554D01*
X83751930Y-40639929D01*
X83751929Y-40639937D01*
X83732677Y-40859997D01*
X83732677Y-40860002D01*
X83751929Y-41080062D01*
X83751930Y-41080070D01*
X83809104Y-41293445D01*
X83809105Y-41293447D01*
X83809106Y-41293450D01*
X83880761Y-41447115D01*
X83902466Y-41493662D01*
X83902468Y-41493666D01*
X84029170Y-41674615D01*
X84029175Y-41674621D01*
X84185378Y-41830824D01*
X84185384Y-41830829D01*
X84366333Y-41957531D01*
X84366335Y-41957532D01*
X84366338Y-41957534D01*
X84457446Y-42000018D01*
X84495189Y-42017618D01*
X84547628Y-42063790D01*
X84566780Y-42130984D01*
X84546564Y-42197865D01*
X84495189Y-42242382D01*
X84366340Y-42302465D01*
X84366338Y-42302466D01*
X84185377Y-42429175D01*
X84029175Y-42585377D01*
X83902466Y-42766338D01*
X83902465Y-42766340D01*
X83809107Y-42966548D01*
X83809104Y-42966554D01*
X83751930Y-43179929D01*
X83751929Y-43179937D01*
X83732677Y-43399997D01*
X83732677Y-43400002D01*
X36462500Y-43400002D01*
X36462500Y-29407176D01*
X36463886Y-29352464D01*
X36464756Y-29318137D01*
X36453932Y-29257747D01*
X36453282Y-29253117D01*
X36447074Y-29192062D01*
X36436790Y-29159286D01*
X36434917Y-29151654D01*
X36431579Y-29133031D01*
X36428858Y-29117847D01*
X36406102Y-29060878D01*
X36404521Y-29056437D01*
X36386157Y-28997907D01*
X36373231Y-28974621D01*
X36369485Y-28967871D01*
X36366117Y-28960778D01*
X36353378Y-28928886D01*
X36353377Y-28928883D01*
X36319620Y-28877663D01*
X36317180Y-28873634D01*
X36306379Y-28854175D01*
X36287409Y-28819998D01*
X36287407Y-28819995D01*
X36265033Y-28793934D01*
X36260302Y-28787659D01*
X36241402Y-28758981D01*
X36198012Y-28715591D01*
X36194822Y-28712148D01*
X36154867Y-28665606D01*
X36154863Y-28665602D01*
X36127698Y-28644574D01*
X36121803Y-28639382D01*
X35502601Y-28020180D01*
X35469116Y-27958857D01*
X35474100Y-27889165D01*
X35502599Y-27844820D01*
X36160468Y-27186951D01*
X36225053Y-27125559D01*
X36260099Y-27075206D01*
X36262938Y-27071441D01*
X36266612Y-27066935D01*
X36301698Y-27023907D01*
X36317601Y-26993460D01*
X36321674Y-26986739D01*
X36326489Y-26979820D01*
X36341295Y-26958549D01*
X36365492Y-26902160D01*
X36367498Y-26897935D01*
X36395909Y-26843549D01*
X36405357Y-26810522D01*
X36407988Y-26803133D01*
X36421540Y-26771558D01*
X36433895Y-26711430D01*
X36434999Y-26706929D01*
X36451886Y-26647918D01*
X36454494Y-26613657D01*
X36455585Y-26605889D01*
X36462500Y-26572243D01*
X36462500Y-26510898D01*
X36462679Y-26506188D01*
X36467337Y-26445024D01*
X36462997Y-26410942D01*
X36462500Y-26403103D01*
X36462500Y-20460002D01*
X50592677Y-20460002D01*
X50611929Y-20680062D01*
X50611930Y-20680070D01*
X50669104Y-20893445D01*
X50669105Y-20893447D01*
X50669106Y-20893450D01*
X50706411Y-20973451D01*
X50762466Y-21093662D01*
X50762468Y-21093666D01*
X50889170Y-21274615D01*
X50889175Y-21274621D01*
X51045378Y-21430824D01*
X51045384Y-21430829D01*
X51226333Y-21557531D01*
X51226335Y-21557532D01*
X51226338Y-21557534D01*
X51426550Y-21650894D01*
X51639932Y-21708070D01*
X51797123Y-21721822D01*
X51859998Y-21727323D01*
X51860000Y-21727323D01*
X51860002Y-21727323D01*
X51915017Y-21722509D01*
X52080068Y-21708070D01*
X52293450Y-21650894D01*
X52493662Y-21557534D01*
X52674620Y-21430826D01*
X52830826Y-21274620D01*
X52908719Y-21163376D01*
X52963296Y-21119752D01*
X53010294Y-21110500D01*
X56429192Y-21110500D01*
X56496231Y-21130185D01*
X56516873Y-21146819D01*
X58094141Y-22724087D01*
X58127626Y-22785410D01*
X58126237Y-22843855D01*
X58121931Y-22859927D01*
X58121929Y-22859937D01*
X58102677Y-23079997D01*
X58102677Y-23080002D01*
X58121929Y-23300062D01*
X58121930Y-23300070D01*
X58179104Y-23513445D01*
X58179105Y-23513447D01*
X58179106Y-23513450D01*
X58272466Y-23713662D01*
X58272468Y-23713666D01*
X58399170Y-23894615D01*
X58399175Y-23894621D01*
X58555378Y-24050824D01*
X58555384Y-24050829D01*
X58736333Y-24177531D01*
X58736335Y-24177532D01*
X58736338Y-24177534D01*
X58832209Y-24222239D01*
X58865189Y-24237618D01*
X58917628Y-24283790D01*
X58936780Y-24350984D01*
X58916564Y-24417865D01*
X58865189Y-24462382D01*
X58736340Y-24522465D01*
X58736338Y-24522466D01*
X58555377Y-24649175D01*
X58399175Y-24805377D01*
X58272466Y-24986338D01*
X58272465Y-24986340D01*
X58179107Y-25186548D01*
X58179104Y-25186554D01*
X58121930Y-25399929D01*
X58121929Y-25399937D01*
X58102677Y-25619997D01*
X58102677Y-25620002D01*
X58121929Y-25840062D01*
X58121930Y-25840070D01*
X58179104Y-26053445D01*
X58179105Y-26053447D01*
X58179106Y-26053450D01*
X58272466Y-26253662D01*
X58272468Y-26253666D01*
X58399170Y-26434615D01*
X58399175Y-26434621D01*
X58555378Y-26590824D01*
X58555384Y-26590829D01*
X58736333Y-26717531D01*
X58736335Y-26717532D01*
X58736338Y-26717534D01*
X58787961Y-26741606D01*
X58865189Y-26777618D01*
X58917628Y-26823790D01*
X58936780Y-26890984D01*
X58916564Y-26957865D01*
X58865189Y-27002382D01*
X58736340Y-27062465D01*
X58736338Y-27062466D01*
X58555377Y-27189175D01*
X58399175Y-27345377D01*
X58272466Y-27526338D01*
X58272465Y-27526340D01*
X58179107Y-27726548D01*
X58179104Y-27726554D01*
X58121930Y-27939929D01*
X58121929Y-27939937D01*
X58102677Y-28159997D01*
X58102677Y-28160002D01*
X58121929Y-28380062D01*
X58121930Y-28380070D01*
X58179104Y-28593445D01*
X58179105Y-28593447D01*
X58179106Y-28593450D01*
X58236068Y-28715605D01*
X58272466Y-28793662D01*
X58272468Y-28793666D01*
X58399170Y-28974615D01*
X58399175Y-28974621D01*
X58555378Y-29130824D01*
X58555384Y-29130829D01*
X58736333Y-29257531D01*
X58736335Y-29257532D01*
X58736338Y-29257534D01*
X58855748Y-29313215D01*
X58865189Y-29317618D01*
X58917628Y-29363790D01*
X58936780Y-29430984D01*
X58916564Y-29497865D01*
X58865189Y-29542382D01*
X58736340Y-29602465D01*
X58736338Y-29602466D01*
X58555377Y-29729175D01*
X58399175Y-29885377D01*
X58272466Y-30066338D01*
X58272465Y-30066340D01*
X58179107Y-30266548D01*
X58179104Y-30266554D01*
X58121930Y-30479929D01*
X58121929Y-30479937D01*
X58102677Y-30699997D01*
X58102677Y-30700002D01*
X58121929Y-30920062D01*
X58121930Y-30920070D01*
X58179104Y-31133445D01*
X58179105Y-31133447D01*
X58179106Y-31133450D01*
X58201021Y-31180446D01*
X58272466Y-31333662D01*
X58272468Y-31333666D01*
X58399170Y-31514615D01*
X58399175Y-31514621D01*
X58555378Y-31670824D01*
X58555384Y-31670829D01*
X58736333Y-31797531D01*
X58736335Y-31797532D01*
X58736338Y-31797534D01*
X58787961Y-31821606D01*
X58865189Y-31857618D01*
X58917628Y-31903790D01*
X58936780Y-31970984D01*
X58916564Y-32037865D01*
X58865189Y-32082382D01*
X58736340Y-32142465D01*
X58736338Y-32142466D01*
X58555377Y-32269175D01*
X58399175Y-32425377D01*
X58272466Y-32606338D01*
X58272465Y-32606340D01*
X58179107Y-32806548D01*
X58179104Y-32806554D01*
X58121930Y-33019929D01*
X58121929Y-33019937D01*
X58102677Y-33239997D01*
X58102677Y-33240002D01*
X58121929Y-33460062D01*
X58121930Y-33460070D01*
X58179104Y-33673445D01*
X58179105Y-33673447D01*
X58179106Y-33673450D01*
X58250761Y-33827115D01*
X58272466Y-33873662D01*
X58272468Y-33873666D01*
X58399170Y-34054615D01*
X58399175Y-34054621D01*
X58555378Y-34210824D01*
X58555384Y-34210829D01*
X58736333Y-34337531D01*
X58736335Y-34337532D01*
X58736338Y-34337534D01*
X58787961Y-34361606D01*
X58865189Y-34397618D01*
X58917628Y-34443790D01*
X58936780Y-34510984D01*
X58916564Y-34577865D01*
X58865189Y-34622382D01*
X58736340Y-34682465D01*
X58736338Y-34682466D01*
X58555377Y-34809175D01*
X58399175Y-34965377D01*
X58272466Y-35146338D01*
X58272465Y-35146340D01*
X58179107Y-35346548D01*
X58179104Y-35346554D01*
X58121930Y-35559929D01*
X58121929Y-35559937D01*
X58102677Y-35779997D01*
X58102677Y-35780002D01*
X58121929Y-36000062D01*
X58121930Y-36000070D01*
X58179104Y-36213445D01*
X58179105Y-36213447D01*
X58179106Y-36213450D01*
X58250761Y-36367115D01*
X58272466Y-36413662D01*
X58272468Y-36413666D01*
X58399170Y-36594615D01*
X58399175Y-36594621D01*
X58555378Y-36750824D01*
X58555384Y-36750829D01*
X58736333Y-36877531D01*
X58736335Y-36877532D01*
X58736338Y-36877534D01*
X58816009Y-36914685D01*
X58865189Y-36937618D01*
X58917628Y-36983790D01*
X58936780Y-37050984D01*
X58916564Y-37117865D01*
X58865189Y-37162382D01*
X58736340Y-37222465D01*
X58736338Y-37222466D01*
X58555377Y-37349175D01*
X58399175Y-37505377D01*
X58272466Y-37686338D01*
X58272465Y-37686340D01*
X58179107Y-37886548D01*
X58179104Y-37886554D01*
X58121930Y-38099929D01*
X58121929Y-38099937D01*
X58102677Y-38319997D01*
X58102677Y-38320002D01*
X58121929Y-38540062D01*
X58121930Y-38540070D01*
X58179104Y-38753445D01*
X58179105Y-38753447D01*
X58179106Y-38753450D01*
X58199175Y-38796488D01*
X58272466Y-38953662D01*
X58272468Y-38953666D01*
X58399170Y-39134615D01*
X58399175Y-39134621D01*
X58555378Y-39290824D01*
X58555384Y-39290829D01*
X58736333Y-39417531D01*
X58736335Y-39417532D01*
X58736338Y-39417534D01*
X58787961Y-39441606D01*
X58865189Y-39477618D01*
X58917628Y-39523790D01*
X58936780Y-39590984D01*
X58916564Y-39657865D01*
X58865189Y-39702382D01*
X58736340Y-39762465D01*
X58736338Y-39762466D01*
X58555377Y-39889175D01*
X58399175Y-40045377D01*
X58272466Y-40226338D01*
X58272465Y-40226340D01*
X58179107Y-40426548D01*
X58179104Y-40426554D01*
X58121930Y-40639929D01*
X58121929Y-40639937D01*
X58102677Y-40859997D01*
X58102677Y-40860002D01*
X58121929Y-41080062D01*
X58121930Y-41080070D01*
X58179104Y-41293445D01*
X58179105Y-41293447D01*
X58179106Y-41293450D01*
X58250761Y-41447115D01*
X58272466Y-41493662D01*
X58272468Y-41493666D01*
X58399170Y-41674615D01*
X58399175Y-41674621D01*
X58555378Y-41830824D01*
X58555384Y-41830829D01*
X58736333Y-41957531D01*
X58736335Y-41957532D01*
X58736338Y-41957534D01*
X58936550Y-42050894D01*
X59149932Y-42108070D01*
X59307123Y-42121822D01*
X59369998Y-42127323D01*
X59370000Y-42127323D01*
X59370002Y-42127323D01*
X59425017Y-42122509D01*
X59590068Y-42108070D01*
X59803450Y-42050894D01*
X60003662Y-41957534D01*
X60184620Y-41830826D01*
X60340826Y-41674620D01*
X60467534Y-41493662D01*
X60560894Y-41293450D01*
X60618070Y-41080068D01*
X60637323Y-40860000D01*
X60618070Y-40639932D01*
X60613765Y-40623866D01*
X60615424Y-40554017D01*
X60645855Y-40504089D01*
X63899513Y-37250431D01*
X63912079Y-37240365D01*
X63911925Y-37240178D01*
X63917937Y-37235204D01*
X63917937Y-37235203D01*
X63917940Y-37235202D01*
X63967190Y-37182755D01*
X63988911Y-37161035D01*
X63993401Y-37155245D01*
X63997183Y-37150815D01*
X64030448Y-37115393D01*
X64040674Y-37096790D01*
X64051353Y-37080533D01*
X64064362Y-37063764D01*
X64083663Y-37019159D01*
X64086207Y-37013965D01*
X64109627Y-36971368D01*
X64114907Y-36950802D01*
X64121209Y-36932395D01*
X64129635Y-36912926D01*
X64137233Y-36864948D01*
X64138411Y-36859253D01*
X64150500Y-36812177D01*
X64150500Y-36790955D01*
X64152027Y-36771555D01*
X64155347Y-36750595D01*
X64150775Y-36702230D01*
X64150500Y-36696392D01*
X64150500Y-11335503D01*
X64152268Y-11319491D01*
X64152026Y-11319469D01*
X64152760Y-11311706D01*
X64150500Y-11239782D01*
X64150500Y-11209078D01*
X64150500Y-11209075D01*
X64149579Y-11201792D01*
X64149123Y-11195987D01*
X64148834Y-11186790D01*
X64147598Y-11147431D01*
X64141675Y-11127045D01*
X64137729Y-11107990D01*
X64135071Y-11086943D01*
X64134306Y-11085011D01*
X64117186Y-11041772D01*
X64115297Y-11036252D01*
X64108734Y-11013662D01*
X64101744Y-10989602D01*
X64090940Y-10971334D01*
X64082378Y-10953856D01*
X64074568Y-10934129D01*
X64074565Y-10934125D01*
X64074229Y-10933662D01*
X64046014Y-10894827D01*
X64042811Y-10889951D01*
X64018081Y-10848135D01*
X64018079Y-10848133D01*
X64018078Y-10848131D01*
X64003075Y-10833129D01*
X63990435Y-10818330D01*
X63986890Y-10813451D01*
X63977963Y-10801163D01*
X63977961Y-10801160D01*
X63940528Y-10770194D01*
X63936206Y-10766260D01*
X57990434Y-4820488D01*
X57980361Y-4807914D01*
X57980174Y-4808070D01*
X57975201Y-4802059D01*
X57922756Y-4752810D01*
X57901035Y-4731089D01*
X57895240Y-4726594D01*
X57890798Y-4722799D01*
X57855396Y-4689554D01*
X57855388Y-4689548D01*
X57836792Y-4679325D01*
X57820531Y-4668644D01*
X57803763Y-4655637D01*
X57780295Y-4645482D01*
X57759178Y-4636343D01*
X57753956Y-4633786D01*
X57711368Y-4610373D01*
X57711365Y-4610372D01*
X57690801Y-4605092D01*
X57672396Y-4598790D01*
X57652927Y-4590365D01*
X57652921Y-4590363D01*
X57604951Y-4582766D01*
X57599236Y-4581582D01*
X57582772Y-4577355D01*
X57552180Y-4569500D01*
X57552177Y-4569500D01*
X57530955Y-4569500D01*
X57511555Y-4567973D01*
X57490596Y-4564653D01*
X57490595Y-4564653D01*
X57466786Y-4566903D01*
X57442230Y-4569225D01*
X57436392Y-4569500D01*
X53010294Y-4569500D01*
X52943255Y-4549815D01*
X52908719Y-4516623D01*
X52830827Y-4405381D01*
X52754507Y-4329061D01*
X52674620Y-4249174D01*
X52674616Y-4249171D01*
X52674615Y-4249170D01*
X52493666Y-4122468D01*
X52493662Y-4122466D01*
X52493660Y-4122465D01*
X52293450Y-4029106D01*
X52293447Y-4029105D01*
X52293445Y-4029104D01*
X52080070Y-3971930D01*
X52080062Y-3971929D01*
X51860002Y-3952677D01*
X51859998Y-3952677D01*
X51639937Y-3971929D01*
X51639929Y-3971930D01*
X51426554Y-4029104D01*
X51426548Y-4029107D01*
X51226340Y-4122465D01*
X51226338Y-4122466D01*
X51045377Y-4249175D01*
X50889175Y-4405377D01*
X50762466Y-4586338D01*
X50762465Y-4586340D01*
X50669107Y-4786548D01*
X50669104Y-4786554D01*
X50611930Y-4999929D01*
X50611929Y-4999937D01*
X50592677Y-5219997D01*
X50592677Y-5220002D01*
X50611929Y-5440062D01*
X50611930Y-5440070D01*
X50669104Y-5653445D01*
X50669105Y-5653447D01*
X50669106Y-5653450D01*
X50694039Y-5706919D01*
X50762466Y-5853662D01*
X50762468Y-5853666D01*
X50889170Y-6034615D01*
X50889175Y-6034621D01*
X51045378Y-6190824D01*
X51045384Y-6190829D01*
X51226333Y-6317531D01*
X51226335Y-6317532D01*
X51226338Y-6317534D01*
X51286861Y-6345756D01*
X51355189Y-6377618D01*
X51407628Y-6423790D01*
X51426780Y-6490984D01*
X51406564Y-6557865D01*
X51355189Y-6602382D01*
X51226340Y-6662465D01*
X51226338Y-6662466D01*
X51045377Y-6789175D01*
X50889175Y-6945377D01*
X50762466Y-7126338D01*
X50762465Y-7126340D01*
X50669107Y-7326548D01*
X50669104Y-7326554D01*
X50611930Y-7539929D01*
X50611929Y-7539937D01*
X50592677Y-7759997D01*
X50592677Y-7760002D01*
X50611929Y-7980062D01*
X50611930Y-7980070D01*
X50669104Y-8193445D01*
X50669105Y-8193447D01*
X50669106Y-8193450D01*
X50718449Y-8299267D01*
X50762466Y-8393662D01*
X50762468Y-8393666D01*
X50889170Y-8574615D01*
X50889175Y-8574621D01*
X51045378Y-8730824D01*
X51045384Y-8730829D01*
X51226333Y-8857531D01*
X51226335Y-8857532D01*
X51226338Y-8857534D01*
X51323234Y-8902717D01*
X51355189Y-8917618D01*
X51407628Y-8963790D01*
X51426780Y-9030984D01*
X51406564Y-9097865D01*
X51355189Y-9142382D01*
X51226340Y-9202465D01*
X51226338Y-9202466D01*
X51045377Y-9329175D01*
X50889175Y-9485377D01*
X50762466Y-9666338D01*
X50762465Y-9666340D01*
X50669107Y-9866548D01*
X50669104Y-9866554D01*
X50611930Y-10079929D01*
X50611929Y-10079937D01*
X50592677Y-10299997D01*
X50592677Y-10300002D01*
X50611929Y-10520062D01*
X50611930Y-10520070D01*
X50669104Y-10733445D01*
X50669105Y-10733447D01*
X50669106Y-10733450D01*
X50722584Y-10848135D01*
X50762466Y-10933662D01*
X50762468Y-10933666D01*
X50889170Y-11114615D01*
X50889175Y-11114621D01*
X51045378Y-11270824D01*
X51045384Y-11270829D01*
X51226333Y-11397531D01*
X51226335Y-11397532D01*
X51226338Y-11397534D01*
X51345748Y-11453215D01*
X51355189Y-11457618D01*
X51407628Y-11503790D01*
X51426780Y-11570984D01*
X51406564Y-11637865D01*
X51355189Y-11682382D01*
X51226340Y-11742465D01*
X51226338Y-11742466D01*
X51045377Y-11869175D01*
X50889175Y-12025377D01*
X50762466Y-12206338D01*
X50762465Y-12206340D01*
X50669107Y-12406548D01*
X50669104Y-12406554D01*
X50611930Y-12619929D01*
X50611929Y-12619937D01*
X50592677Y-12839997D01*
X50592677Y-12840002D01*
X50611929Y-13060062D01*
X50611930Y-13060070D01*
X50669104Y-13273445D01*
X50669105Y-13273447D01*
X50669106Y-13273450D01*
X50721313Y-13385408D01*
X50762466Y-13473662D01*
X50762468Y-13473666D01*
X50889170Y-13654615D01*
X50889175Y-13654621D01*
X51045378Y-13810824D01*
X51045384Y-13810829D01*
X51226333Y-13937531D01*
X51226335Y-13937532D01*
X51226338Y-13937534D01*
X51345748Y-13993215D01*
X51355189Y-13997618D01*
X51407628Y-14043790D01*
X51426780Y-14110984D01*
X51406564Y-14177865D01*
X51355189Y-14222382D01*
X51226340Y-14282465D01*
X51226338Y-14282466D01*
X51045377Y-14409175D01*
X50889175Y-14565377D01*
X50762466Y-14746338D01*
X50762465Y-14746340D01*
X50669107Y-14946548D01*
X50669104Y-14946554D01*
X50611930Y-15159929D01*
X50611929Y-15159937D01*
X50592677Y-15379997D01*
X50592677Y-15380002D01*
X50611929Y-15600062D01*
X50611930Y-15600070D01*
X50669104Y-15813445D01*
X50669105Y-15813447D01*
X50669106Y-15813450D01*
X50708930Y-15898853D01*
X50762466Y-16013662D01*
X50762468Y-16013666D01*
X50889170Y-16194615D01*
X50889175Y-16194621D01*
X51045378Y-16350824D01*
X51045384Y-16350829D01*
X51226333Y-16477531D01*
X51226335Y-16477532D01*
X51226338Y-16477534D01*
X51342135Y-16531531D01*
X51355189Y-16537618D01*
X51407628Y-16583790D01*
X51426780Y-16650984D01*
X51406564Y-16717865D01*
X51355189Y-16762382D01*
X51226340Y-16822465D01*
X51226338Y-16822466D01*
X51045377Y-16949175D01*
X50889175Y-17105377D01*
X50762466Y-17286338D01*
X50762465Y-17286340D01*
X50669107Y-17486548D01*
X50669104Y-17486554D01*
X50611930Y-17699929D01*
X50611929Y-17699937D01*
X50592677Y-17919997D01*
X50592677Y-17920002D01*
X50611929Y-18140062D01*
X50611930Y-18140070D01*
X50669104Y-18353445D01*
X50669105Y-18353447D01*
X50669106Y-18353450D01*
X50721481Y-18465769D01*
X50762466Y-18553662D01*
X50762468Y-18553666D01*
X50889170Y-18734615D01*
X50889175Y-18734621D01*
X51045378Y-18890824D01*
X51045384Y-18890829D01*
X51226333Y-19017531D01*
X51226335Y-19017532D01*
X51226338Y-19017534D01*
X51345748Y-19073215D01*
X51355189Y-19077618D01*
X51407628Y-19123790D01*
X51426780Y-19190984D01*
X51406564Y-19257865D01*
X51355189Y-19302382D01*
X51226340Y-19362465D01*
X51226338Y-19362466D01*
X51045377Y-19489175D01*
X50889175Y-19645377D01*
X50762466Y-19826338D01*
X50762465Y-19826340D01*
X50669107Y-20026548D01*
X50669104Y-20026554D01*
X50611930Y-20239929D01*
X50611929Y-20239937D01*
X50592677Y-20459997D01*
X50592677Y-20460002D01*
X36462500Y-20460002D01*
X36462500Y-9234676D01*
X36463316Y-9202464D01*
X36464756Y-9145637D01*
X36453932Y-9085247D01*
X36453282Y-9080617D01*
X36447074Y-9019562D01*
X36436790Y-8986786D01*
X36434917Y-8979154D01*
X36428858Y-8945349D01*
X36428858Y-8945347D01*
X36406102Y-8888378D01*
X36404521Y-8883937D01*
X36386159Y-8825412D01*
X36386158Y-8825410D01*
X36386157Y-8825407D01*
X36369488Y-8795378D01*
X36366117Y-8788278D01*
X36353378Y-8756386D01*
X36353377Y-8756383D01*
X36319620Y-8705163D01*
X36317180Y-8701134D01*
X36301908Y-8673621D01*
X36287409Y-8647498D01*
X36287407Y-8647495D01*
X36265033Y-8621434D01*
X36260302Y-8615159D01*
X36241402Y-8586481D01*
X36198012Y-8543091D01*
X36194822Y-8539648D01*
X36154867Y-8493106D01*
X36154863Y-8493102D01*
X36127698Y-8472074D01*
X36121803Y-8466882D01*
X35285085Y-7630164D01*
X35251600Y-7568841D01*
X35249238Y-7553287D01*
X35248070Y-7539934D01*
X35248070Y-7539932D01*
X35190894Y-7326550D01*
X35097534Y-7126339D01*
X35029261Y-7028834D01*
X34970827Y-6945381D01*
X34923265Y-6897819D01*
X34814620Y-6789174D01*
X34814616Y-6789171D01*
X34814615Y-6789170D01*
X34633666Y-6662468D01*
X34633658Y-6662464D01*
X34504811Y-6602382D01*
X34452371Y-6556210D01*
X34433219Y-6489017D01*
X34453435Y-6422135D01*
X34504811Y-6377618D01*
X34510802Y-6374824D01*
X34633662Y-6317534D01*
X34814620Y-6190826D01*
X34970826Y-6034620D01*
X35097534Y-5853662D01*
X35190894Y-5653450D01*
X35248070Y-5440068D01*
X35267323Y-5220000D01*
X35265314Y-5197042D01*
X35253172Y-5058251D01*
X35248070Y-4999932D01*
X35190894Y-4786550D01*
X35097534Y-4586339D01*
X34994550Y-4439262D01*
X34970827Y-4405381D01*
X34894507Y-4329061D01*
X34814620Y-4249174D01*
X34814616Y-4249171D01*
X34814615Y-4249170D01*
X34633666Y-4122468D01*
X34633662Y-4122466D01*
X34633660Y-4122465D01*
X34433450Y-4029106D01*
X34433447Y-4029105D01*
X34433445Y-4029104D01*
X34220070Y-3971930D01*
X34220062Y-3971929D01*
X34000002Y-3952677D01*
X33999998Y-3952677D01*
X33779937Y-3971929D01*
X33779929Y-3971930D01*
X33566554Y-4029104D01*
X33566548Y-4029107D01*
X33366340Y-4122465D01*
X33366338Y-4122466D01*
X33185377Y-4249175D01*
X33029175Y-4405377D01*
X32902466Y-4586338D01*
X32902465Y-4586340D01*
X32809107Y-4786548D01*
X32809104Y-4786554D01*
X32751930Y-4999929D01*
X32751929Y-4999934D01*
X32750761Y-5013292D01*
X32725307Y-5078360D01*
X32714914Y-5090163D01*
X31839531Y-5965547D01*
X31774946Y-6026942D01*
X31739899Y-6077294D01*
X31737062Y-6081056D01*
X31698302Y-6128592D01*
X31698299Y-6128597D01*
X31682392Y-6159047D01*
X31678324Y-6165761D01*
X31658702Y-6193954D01*
X31634509Y-6250330D01*
X31632488Y-6254584D01*
X31604091Y-6308951D01*
X31604090Y-6308952D01*
X31594640Y-6341975D01*
X31592007Y-6349371D01*
X31578459Y-6380943D01*
X31566113Y-6441019D01*
X31564990Y-6445595D01*
X31548113Y-6504577D01*
X31548113Y-6504579D01*
X31545503Y-6538841D01*
X31544414Y-6546608D01*
X31542442Y-6556210D01*
X31537500Y-6580258D01*
X31537500Y-6641597D01*
X31537321Y-6646306D01*
X31532662Y-6707474D01*
X31534707Y-6723527D01*
X31537003Y-6741560D01*
X31537500Y-6749388D01*
X31537500Y-30996217D01*
X31517815Y-31063256D01*
X31501181Y-31083898D01*
X14911967Y-47673111D01*
X14850644Y-47706596D01*
X14835096Y-47708958D01*
X14773311Y-47714364D01*
X14773302Y-47714366D01*
X14553511Y-47773258D01*
X14553502Y-47773261D01*
X14347267Y-47869431D01*
X14347265Y-47869432D01*
X14160858Y-47999954D01*
X13999954Y-48160858D01*
X13869432Y-48347265D01*
X13869431Y-48347267D01*
X13773261Y-48553502D01*
X13773258Y-48553511D01*
X13714366Y-48773302D01*
X13714364Y-48773313D01*
X13694532Y-48999998D01*
X13694532Y-49000001D01*
X500Y-49000001D01*
X500Y-42000001D01*
X3499500Y-42000001D01*
X3499501Y-42000018D01*
X3510000Y-42102796D01*
X3510001Y-42102799D01*
X3542766Y-42201675D01*
X3565186Y-42269334D01*
X3657288Y-42418656D01*
X3781344Y-42542712D01*
X3930666Y-42634814D01*
X4097203Y-42689999D01*
X4199991Y-42700500D01*
X7800008Y-42700499D01*
X7902797Y-42689999D01*
X8069334Y-42634814D01*
X8218656Y-42542712D01*
X8342712Y-42418656D01*
X8434814Y-42269334D01*
X8489999Y-42102797D01*
X8500500Y-42000009D01*
X8500499Y-38399992D01*
X8495392Y-38350001D01*
X13694532Y-38350001D01*
X13714364Y-38576686D01*
X13714366Y-38576697D01*
X13773258Y-38796488D01*
X13773261Y-38796497D01*
X13869431Y-39002732D01*
X13869432Y-39002734D01*
X13999954Y-39189141D01*
X14160858Y-39350045D01*
X14160861Y-39350047D01*
X14347266Y-39480568D01*
X14553504Y-39576739D01*
X14773308Y-39635635D01*
X14935230Y-39649801D01*
X14999998Y-39655468D01*
X15000000Y-39655468D01*
X15000002Y-39655468D01*
X15056673Y-39650509D01*
X15226692Y-39635635D01*
X15446496Y-39576739D01*
X15652734Y-39480568D01*
X15839139Y-39350047D01*
X16000047Y-39189139D01*
X16130568Y-39002734D01*
X16226739Y-38796496D01*
X16285635Y-38576692D01*
X16305468Y-38350000D01*
X16285635Y-38123308D01*
X16226739Y-37903504D01*
X16130568Y-37697266D01*
X16000047Y-37510861D01*
X16000045Y-37510858D01*
X15839141Y-37349954D01*
X15652734Y-37219432D01*
X15652732Y-37219431D01*
X15446497Y-37123261D01*
X15446488Y-37123258D01*
X15226697Y-37064366D01*
X15226693Y-37064365D01*
X15226692Y-37064365D01*
X15226691Y-37064364D01*
X15226686Y-37064364D01*
X15000002Y-37044532D01*
X14999998Y-37044532D01*
X14773313Y-37064364D01*
X14773302Y-37064366D01*
X14553511Y-37123258D01*
X14553502Y-37123261D01*
X14347267Y-37219431D01*
X14347265Y-37219432D01*
X14160858Y-37349954D01*
X13999954Y-37510858D01*
X13869432Y-37697265D01*
X13869431Y-37697267D01*
X13773261Y-37903502D01*
X13773258Y-37903511D01*
X13714366Y-38123302D01*
X13714364Y-38123313D01*
X13694532Y-38349998D01*
X13694532Y-38350001D01*
X8495392Y-38350001D01*
X8489999Y-38297203D01*
X8434814Y-38130666D01*
X8342712Y-37981344D01*
X8218656Y-37857288D01*
X8069334Y-37765186D01*
X7902797Y-37710001D01*
X7902795Y-37710000D01*
X7800010Y-37699500D01*
X4199998Y-37699500D01*
X4199981Y-37699501D01*
X4097203Y-37710000D01*
X4097200Y-37710001D01*
X3930668Y-37765185D01*
X3930663Y-37765187D01*
X3781342Y-37857289D01*
X3657289Y-37981342D01*
X3565187Y-38130663D01*
X3565186Y-38130666D01*
X3510001Y-38297203D01*
X3510001Y-38297204D01*
X3510000Y-38297204D01*
X3499500Y-38399983D01*
X3499500Y-42000001D01*
X500Y-42000001D01*
X500Y-24277870D01*
X19007000Y-24277870D01*
X19007001Y-24277876D01*
X19013408Y-24337483D01*
X19063702Y-24472328D01*
X19063706Y-24472335D01*
X19149952Y-24587544D01*
X19149955Y-24587547D01*
X19265164Y-24673793D01*
X19265171Y-24673797D01*
X19400017Y-24724091D01*
X19400016Y-24724091D01*
X19406944Y-24724835D01*
X19459627Y-24730500D01*
X21460372Y-24730499D01*
X21519983Y-24724091D01*
X21654831Y-24673796D01*
X21770046Y-24587546D01*
X21856296Y-24472331D01*
X21906591Y-24337483D01*
X21913000Y-24277873D01*
X21913000Y-23337598D01*
X24087000Y-23337598D01*
X24101904Y-23517472D01*
X24101904Y-23517475D01*
X24101905Y-23517476D01*
X24161017Y-23750905D01*
X24257745Y-23971422D01*
X24389449Y-24173010D01*
X24552537Y-24350171D01*
X24742561Y-24498072D01*
X24954336Y-24612679D01*
X25060631Y-24649170D01*
X25182083Y-24690865D01*
X25182085Y-24690865D01*
X25182087Y-24690866D01*
X25419601Y-24730500D01*
X25419602Y-24730500D01*
X25660398Y-24730500D01*
X25660399Y-24730500D01*
X25897913Y-24690866D01*
X26125664Y-24612679D01*
X26337439Y-24498072D01*
X26527463Y-24350171D01*
X26690551Y-24173010D01*
X26822255Y-23971422D01*
X26918983Y-23750905D01*
X26978095Y-23517476D01*
X26993000Y-23337600D01*
X26993000Y-23122400D01*
X26978095Y-22942524D01*
X26918983Y-22709095D01*
X26822255Y-22488578D01*
X26690551Y-22286990D01*
X26527463Y-22109829D01*
X26363829Y-21982468D01*
X26337441Y-21961929D01*
X26125665Y-21847321D01*
X26125656Y-21847318D01*
X25897916Y-21769134D01*
X25698800Y-21735908D01*
X25660399Y-21729500D01*
X25419601Y-21729500D01*
X25381200Y-21735908D01*
X25182083Y-21769134D01*
X24954343Y-21847318D01*
X24954334Y-21847321D01*
X24742558Y-21961929D01*
X24624959Y-22053461D01*
X24552537Y-22109829D01*
X24552534Y-22109831D01*
X24552534Y-22109832D01*
X24389449Y-22286990D01*
X24257743Y-22488581D01*
X24161017Y-22709094D01*
X24101904Y-22942527D01*
X24087000Y-23122402D01*
X24087000Y-23337598D01*
X21913000Y-23337598D01*
X21912999Y-22182128D01*
X21906591Y-22122517D01*
X21901858Y-22109828D01*
X21856297Y-21987671D01*
X21856293Y-21987664D01*
X21770047Y-21872455D01*
X21770044Y-21872452D01*
X21654835Y-21786206D01*
X21654828Y-21786202D01*
X21519982Y-21735908D01*
X21519983Y-21735908D01*
X21460383Y-21729501D01*
X21460381Y-21729500D01*
X21460373Y-21729500D01*
X21460364Y-21729500D01*
X19459629Y-21729500D01*
X19459623Y-21729501D01*
X19400016Y-21735908D01*
X19265171Y-21786202D01*
X19265164Y-21786206D01*
X19149955Y-21872452D01*
X19149952Y-21872455D01*
X19063706Y-21987664D01*
X19063702Y-21987671D01*
X19013408Y-22122517D01*
X19007001Y-22182116D01*
X19007001Y-22182123D01*
X19007000Y-22182135D01*
X19007000Y-24277870D01*
X500Y-24277870D01*
X500Y-20000001D01*
X5194532Y-20000001D01*
X5214364Y-20226686D01*
X5214366Y-20226697D01*
X5273258Y-20446488D01*
X5273261Y-20446497D01*
X5369431Y-20652732D01*
X5369432Y-20652734D01*
X5499954Y-20839141D01*
X5660858Y-21000045D01*
X5660861Y-21000047D01*
X5847266Y-21130568D01*
X6053504Y-21226739D01*
X6273308Y-21285635D01*
X6435230Y-21299801D01*
X6499998Y-21305468D01*
X6500000Y-21305468D01*
X6500002Y-21305468D01*
X6556673Y-21300509D01*
X6726692Y-21285635D01*
X6946496Y-21226739D01*
X7152734Y-21130568D01*
X7339139Y-21000047D01*
X7500047Y-20839139D01*
X7630568Y-20652734D01*
X7637618Y-20637614D01*
X7683789Y-20585176D01*
X7750982Y-20566023D01*
X7817864Y-20586238D01*
X7862381Y-20637614D01*
X7869432Y-20652733D01*
X7869432Y-20652734D01*
X7999954Y-20839141D01*
X8160858Y-21000045D01*
X8160861Y-21000047D01*
X8347266Y-21130568D01*
X8553504Y-21226739D01*
X8773308Y-21285635D01*
X8935230Y-21299801D01*
X8999998Y-21305468D01*
X9000000Y-21305468D01*
X9000002Y-21305468D01*
X9056673Y-21300509D01*
X9226692Y-21285635D01*
X9446496Y-21226739D01*
X9652734Y-21130568D01*
X9839139Y-21000047D01*
X10000047Y-20839139D01*
X10130568Y-20652734D01*
X10226739Y-20446496D01*
X10285635Y-20226692D01*
X10305468Y-20000000D01*
X10285635Y-19773308D01*
X10226739Y-19553504D01*
X10130568Y-19347266D01*
X10000047Y-19160861D01*
X10000045Y-19160858D01*
X9839141Y-18999954D01*
X9652734Y-18869432D01*
X9652732Y-18869431D01*
X9446497Y-18773261D01*
X9446488Y-18773258D01*
X9226697Y-18714366D01*
X9226693Y-18714365D01*
X9226692Y-18714365D01*
X9226691Y-18714364D01*
X9226686Y-18714364D01*
X9000002Y-18694532D01*
X8999998Y-18694532D01*
X8773313Y-18714364D01*
X8773302Y-18714366D01*
X8553511Y-18773258D01*
X8553502Y-18773261D01*
X8347267Y-18869431D01*
X8347265Y-18869432D01*
X8160858Y-18999954D01*
X7999954Y-19160858D01*
X7869433Y-19347264D01*
X7869432Y-19347266D01*
X7862380Y-19362387D01*
X7816209Y-19414825D01*
X7749015Y-19433976D01*
X7682134Y-19413760D01*
X7637619Y-19362387D01*
X7630568Y-19347266D01*
X7500047Y-19160861D01*
X7500045Y-19160858D01*
X7339141Y-18999954D01*
X7152734Y-18869432D01*
X7152732Y-18869431D01*
X6946497Y-18773261D01*
X6946488Y-18773258D01*
X6726697Y-18714366D01*
X6726693Y-18714365D01*
X6726692Y-18714365D01*
X6726691Y-18714364D01*
X6726686Y-18714364D01*
X6500002Y-18694532D01*
X6499998Y-18694532D01*
X6273313Y-18714364D01*
X6273302Y-18714366D01*
X6053511Y-18773258D01*
X6053502Y-18773261D01*
X5847267Y-18869431D01*
X5847265Y-18869432D01*
X5660858Y-18999954D01*
X5499954Y-19160858D01*
X5369432Y-19347265D01*
X5369431Y-19347267D01*
X5273261Y-19553502D01*
X5273258Y-19553511D01*
X5214366Y-19773302D01*
X5214364Y-19773313D01*
X5194532Y-19999998D01*
X5194532Y-20000001D01*
X500Y-20000001D01*
X500Y-13800001D01*
X5149500Y-13800001D01*
X5149501Y-13800018D01*
X5160000Y-13902796D01*
X5160001Y-13902799D01*
X5215185Y-14069331D01*
X5215187Y-14069336D01*
X5226742Y-14088070D01*
X5307288Y-14218656D01*
X5431344Y-14342712D01*
X5580666Y-14434814D01*
X5747203Y-14489999D01*
X5849991Y-14500500D01*
X7150008Y-14500499D01*
X7252797Y-14489999D01*
X7419334Y-14434814D01*
X7568656Y-14342712D01*
X7692712Y-14218656D01*
X7784814Y-14069334D01*
X7784814Y-14069331D01*
X7788178Y-14063879D01*
X7840126Y-14017154D01*
X7909088Y-14005931D01*
X7973170Y-14033774D01*
X7981398Y-14041294D01*
X8128599Y-14188495D01*
X8171675Y-14218657D01*
X8322165Y-14324032D01*
X8322167Y-14324033D01*
X8322170Y-14324035D01*
X8536337Y-14423903D01*
X8764592Y-14485063D01*
X8941034Y-14500500D01*
X8999999Y-14505659D01*
X9000000Y-14505659D01*
X9000001Y-14505659D01*
X9058966Y-14500500D01*
X9235408Y-14485063D01*
X9463663Y-14423903D01*
X9677829Y-14324035D01*
X9871401Y-14188495D01*
X10038495Y-14021401D01*
X10174035Y-13827829D01*
X10273903Y-13613663D01*
X10335063Y-13385408D01*
X10350500Y-13208966D01*
X10350500Y-12791034D01*
X10335063Y-12614592D01*
X10279319Y-12406550D01*
X10273905Y-12386344D01*
X10273904Y-12386343D01*
X10273903Y-12386337D01*
X10174035Y-12172171D01*
X10155105Y-12145135D01*
X10038494Y-11978597D01*
X9871402Y-11811506D01*
X9871395Y-11811501D01*
X9677834Y-11675967D01*
X9677830Y-11675965D01*
X9616407Y-11647323D01*
X9463663Y-11576097D01*
X9463659Y-11576096D01*
X9463655Y-11576094D01*
X9235413Y-11514938D01*
X9235403Y-11514936D01*
X9000001Y-11494341D01*
X8999999Y-11494341D01*
X8764596Y-11514936D01*
X8764586Y-11514938D01*
X8536344Y-11576094D01*
X8536335Y-11576098D01*
X8322171Y-11675964D01*
X8322169Y-11675965D01*
X8128597Y-11811505D01*
X7981398Y-11958705D01*
X7920075Y-11992190D01*
X7850383Y-11987206D01*
X7794450Y-11945334D01*
X7788178Y-11936120D01*
X7692712Y-11781344D01*
X7568657Y-11657289D01*
X7568656Y-11657288D01*
X7446813Y-11582135D01*
X7419336Y-11565187D01*
X7419331Y-11565185D01*
X7367681Y-11548070D01*
X7252797Y-11510001D01*
X7252795Y-11510000D01*
X7150010Y-11499500D01*
X5849998Y-11499500D01*
X5849981Y-11499501D01*
X5747203Y-11510000D01*
X5747200Y-11510001D01*
X5580668Y-11565185D01*
X5580663Y-11565187D01*
X5431342Y-11657289D01*
X5307289Y-11781342D01*
X5215187Y-11930663D01*
X5215185Y-11930668D01*
X5196450Y-11987206D01*
X5160001Y-12097203D01*
X5160001Y-12097204D01*
X5160000Y-12097204D01*
X5149500Y-12199983D01*
X5149500Y-13800001D01*
X500Y-13800001D01*
X500Y-6570001D01*
X20744671Y-6570001D01*
X20746835Y-6603027D01*
X20746933Y-6609155D01*
X20745723Y-6645367D01*
X20745723Y-6645376D01*
X20756880Y-6756281D01*
X20763965Y-6864376D01*
X20763966Y-6864389D01*
X20771050Y-6900003D01*
X20771930Y-6905891D01*
X20775882Y-6945164D01*
X20800996Y-7050546D01*
X20821516Y-7153711D01*
X20821518Y-7153719D01*
X20834230Y-7191171D01*
X20835831Y-7196727D01*
X20845728Y-7238252D01*
X20845730Y-7238257D01*
X20845731Y-7238261D01*
X20883542Y-7336437D01*
X20908825Y-7410917D01*
X20916348Y-7433076D01*
X20935263Y-7471433D01*
X20937515Y-7476573D01*
X20954019Y-7519428D01*
X20954023Y-7519436D01*
X21003076Y-7608946D01*
X21046822Y-7697655D01*
X21046833Y-7697673D01*
X21072380Y-7735907D01*
X21075199Y-7740557D01*
X21098822Y-7783659D01*
X21098829Y-7783671D01*
X21156671Y-7862175D01*
X21158308Y-7864507D01*
X21199366Y-7925955D01*
X21210727Y-7942957D01*
X21243182Y-7979965D01*
X21246482Y-7984068D01*
X21277551Y-8026235D01*
X21343114Y-8094028D01*
X21345160Y-8096249D01*
X21405242Y-8164758D01*
X21437953Y-8193445D01*
X21444670Y-8199336D01*
X21448358Y-8202849D01*
X21487018Y-8242822D01*
X21487020Y-8242824D01*
X21514375Y-8264426D01*
X21558495Y-8299267D01*
X21560950Y-8301311D01*
X21627040Y-8359270D01*
X21627040Y-8359271D01*
X21673336Y-8390205D01*
X21677307Y-8393092D01*
X21723485Y-8429558D01*
X21799059Y-8474320D01*
X21801897Y-8476106D01*
X21853617Y-8510665D01*
X21872338Y-8523174D01*
X21889190Y-8531484D01*
X21925187Y-8549236D01*
X21929318Y-8551473D01*
X21963458Y-8571694D01*
X21982717Y-8583102D01*
X21982722Y-8583104D01*
X21982730Y-8583109D01*
X22060665Y-8616156D01*
X22063826Y-8617604D01*
X22136923Y-8653652D01*
X22195759Y-8673624D01*
X22200014Y-8675245D01*
X22260128Y-8700736D01*
X22338640Y-8722242D01*
X22342160Y-8723320D01*
X22416278Y-8748481D01*
X22455991Y-8756380D01*
X22480384Y-8761232D01*
X22484658Y-8762241D01*
X22550729Y-8780340D01*
X22628224Y-8790761D01*
X22632037Y-8791397D01*
X22705620Y-8806034D01*
X22774067Y-8810519D01*
X22778246Y-8810937D01*
X22849347Y-8820500D01*
X22924302Y-8820500D01*
X22928349Y-8820632D01*
X22960372Y-8822731D01*
X22999994Y-8825329D01*
X23000000Y-8825329D01*
X23000004Y-8825329D01*
X23010762Y-8824623D01*
X23072081Y-8820604D01*
X23075222Y-8820500D01*
X23075244Y-8820500D01*
X23148842Y-8815573D01*
X23294380Y-8806034D01*
X23294409Y-8806028D01*
X23295522Y-8805882D01*
X23299478Y-8805489D01*
X23300634Y-8805412D01*
X23443658Y-8776341D01*
X23583722Y-8748481D01*
X23584442Y-8748236D01*
X23592018Y-8746185D01*
X23595903Y-8745396D01*
X23730821Y-8698547D01*
X23863077Y-8653652D01*
X23866687Y-8651871D01*
X23873754Y-8648914D01*
X23880537Y-8646560D01*
X24005220Y-8583554D01*
X24127665Y-8523172D01*
X24133700Y-8519138D01*
X24140164Y-8515364D01*
X24149459Y-8510668D01*
X24262040Y-8433385D01*
X24372957Y-8359273D01*
X24380840Y-8352358D01*
X24386622Y-8347863D01*
X24397869Y-8340144D01*
X24496824Y-8250643D01*
X24594758Y-8164758D01*
X24603799Y-8154446D01*
X24608823Y-8149345D01*
X24621333Y-8138032D01*
X24705443Y-8038545D01*
X24789273Y-7942957D01*
X24798687Y-7928866D01*
X24802895Y-7923279D01*
X24815863Y-7907941D01*
X24815865Y-7907939D01*
X24884276Y-7800775D01*
X24953172Y-7697665D01*
X24962098Y-7679562D01*
X24965441Y-7673631D01*
X24977993Y-7653970D01*
X25030195Y-7541476D01*
X25083652Y-7433077D01*
X25091179Y-7410899D01*
X25093641Y-7404752D01*
X25104823Y-7380658D01*
X25140632Y-7265219D01*
X25178481Y-7153722D01*
X25183677Y-7127597D01*
X25185271Y-7121316D01*
X25194093Y-7092879D01*
X25213676Y-6976782D01*
X25236034Y-6864380D01*
X25237987Y-6834576D01*
X25238714Y-6828342D01*
X25244209Y-6795770D01*
X25248038Y-6681231D01*
X25250636Y-6641597D01*
X25255329Y-6570005D01*
X25255329Y-6570001D01*
X25254533Y-6557865D01*
X25253162Y-6536955D01*
X25253065Y-6530849D01*
X25253698Y-6511930D01*
X25254277Y-6494631D01*
X25243119Y-6383718D01*
X25236034Y-6275620D01*
X25228944Y-6239977D01*
X25228068Y-6234107D01*
X25224118Y-6194840D01*
X25224118Y-6194838D01*
X25199003Y-6089454D01*
X25178481Y-5986278D01*
X25165764Y-5948816D01*
X25164169Y-5943283D01*
X25154269Y-5901739D01*
X25116457Y-5803562D01*
X25083652Y-5706923D01*
X25064732Y-5668556D01*
X25062485Y-5663429D01*
X25045977Y-5620566D01*
X25014285Y-5562737D01*
X24996919Y-5531046D01*
X24953173Y-5442339D01*
X24953172Y-5442336D01*
X24927612Y-5404083D01*
X24924798Y-5399444D01*
X24901175Y-5356335D01*
X24843312Y-5277802D01*
X24841706Y-5275514D01*
X24789273Y-5197043D01*
X24756817Y-5160033D01*
X24753516Y-5155930D01*
X24722450Y-5113768D01*
X24722446Y-5113762D01*
X24668761Y-5058251D01*
X24656884Y-5045970D01*
X24654838Y-5043749D01*
X24594760Y-4975244D01*
X24555322Y-4940656D01*
X24551635Y-4937144D01*
X24512981Y-4897176D01*
X24441514Y-4840740D01*
X24439059Y-4838696D01*
X24372960Y-4780729D01*
X24326656Y-4749788D01*
X24322677Y-4746894D01*
X24276517Y-4710443D01*
X24241249Y-4689554D01*
X24200918Y-4665666D01*
X24198089Y-4663884D01*
X24127666Y-4616828D01*
X24074821Y-4590767D01*
X24070668Y-4588518D01*
X24017270Y-4556891D01*
X24017266Y-4556889D01*
X24017262Y-4556887D01*
X23987641Y-4544327D01*
X23939346Y-4523847D01*
X23936157Y-4522386D01*
X23863075Y-4486347D01*
X23804243Y-4466375D01*
X23799969Y-4464746D01*
X23761174Y-4448297D01*
X23739872Y-4439264D01*
X23739868Y-4439263D01*
X23739866Y-4439262D01*
X23661365Y-4417757D01*
X23657815Y-4416670D01*
X23583734Y-4391522D01*
X23583723Y-4391519D01*
X23583722Y-4391519D01*
X23519608Y-4378765D01*
X23515333Y-4377756D01*
X23449281Y-4359662D01*
X23449265Y-4359658D01*
X23371792Y-4349239D01*
X23367962Y-4348601D01*
X23321006Y-4339262D01*
X23294380Y-4333966D01*
X23294377Y-4333965D01*
X23294374Y-4333965D01*
X23225959Y-4329481D01*
X23221750Y-4329061D01*
X23187282Y-4324426D01*
X23150653Y-4319500D01*
X23150650Y-4319500D01*
X23075698Y-4319500D01*
X23071650Y-4319367D01*
X23039627Y-4317268D01*
X23000006Y-4314671D01*
X23000002Y-4314671D01*
X23000000Y-4314671D01*
X22951934Y-4317821D01*
X22927985Y-4319391D01*
X22924765Y-4319499D01*
X22851157Y-4324426D01*
X22705620Y-4333965D01*
X22704420Y-4334123D01*
X22700506Y-4334511D01*
X22699375Y-4334587D01*
X22699372Y-4334587D01*
X22699366Y-4334588D01*
X22558009Y-4363319D01*
X22556341Y-4363658D01*
X22416277Y-4391518D01*
X22416270Y-4391520D01*
X22415508Y-4391779D01*
X22407943Y-4393822D01*
X22404098Y-4394603D01*
X22340548Y-4416670D01*
X22269178Y-4441452D01*
X22223442Y-4456977D01*
X22136927Y-4486346D01*
X22136922Y-4486348D01*
X22133320Y-4488124D01*
X22126241Y-4491086D01*
X22119462Y-4493440D01*
X21994757Y-4556456D01*
X21872343Y-4616823D01*
X21872328Y-4616832D01*
X21866301Y-4620858D01*
X21859828Y-4624637D01*
X21850544Y-4629329D01*
X21737943Y-4706625D01*
X21627043Y-4780727D01*
X21619156Y-4787642D01*
X21613373Y-4792138D01*
X21602132Y-4799854D01*
X21503175Y-4889356D01*
X21405241Y-4975242D01*
X21396196Y-4985555D01*
X21391175Y-4990653D01*
X21378668Y-5001966D01*
X21294556Y-5101454D01*
X21210726Y-5197042D01*
X21201308Y-5211136D01*
X21197106Y-5216716D01*
X21184141Y-5232052D01*
X21184140Y-5232053D01*
X21115715Y-5339237D01*
X21046830Y-5442331D01*
X21037905Y-5460427D01*
X21034560Y-5466362D01*
X21022006Y-5486031D01*
X20969801Y-5598530D01*
X20916350Y-5706918D01*
X20916345Y-5706930D01*
X20908822Y-5729089D01*
X20906353Y-5735257D01*
X20895176Y-5759344D01*
X20895171Y-5759358D01*
X20859367Y-5874780D01*
X20821518Y-5986279D01*
X20821516Y-5986288D01*
X20816320Y-6012410D01*
X20814728Y-6018683D01*
X20805907Y-6047119D01*
X20792163Y-6128597D01*
X20786323Y-6163217D01*
X20771051Y-6240002D01*
X20763965Y-6275627D01*
X20763964Y-6275628D01*
X20762012Y-6305416D01*
X20761281Y-6311673D01*
X20755791Y-6344231D01*
X20751961Y-6458768D01*
X20744671Y-6570001D01*
X500Y-6570001D01*
X500Y-5000000D01*
X9493Y-4782569D01*
X18160Y-4584061D01*
X18574Y-4579138D01*
X45487Y-4363223D01*
X71889Y-4162688D01*
X72666Y-4158128D01*
X117195Y-3945762D01*
X161159Y-3747455D01*
X162246Y-3743262D01*
X224122Y-3535423D01*
X285331Y-3341295D01*
X286659Y-3337524D01*
X365495Y-3135487D01*
X443493Y-2947185D01*
X445017Y-2943805D01*
X540256Y-2748989D01*
X634494Y-2567960D01*
X636192Y-2564915D01*
X747211Y-2378601D01*
X856972Y-2206313D01*
X858765Y-2203656D01*
X984856Y-2027054D01*
X1109334Y-1864833D01*
X1111127Y-1862610D01*
X1251453Y-1696928D01*
X1390565Y-1545115D01*
X1545115Y-1390565D01*
X1554692Y-1381788D01*
X1696920Y-1251460D01*
X1862610Y-1111127D01*
X1864833Y-1109334D01*
X2027054Y-984856D01*
X2203656Y-858765D01*
X2206313Y-856972D01*
X2378601Y-747211D01*
X2564915Y-636192D01*
X2567960Y-634494D01*
X2748969Y-540266D01*
X2943805Y-445017D01*
X2947185Y-443493D01*
X3135487Y-365495D01*
X3337524Y-286659D01*
X3341295Y-285331D01*
X3535423Y-224122D01*
X3743262Y-162246D01*
X3747455Y-161159D01*
X3945706Y-117207D01*
X4158128Y-72666D01*
X4162688Y-71889D01*
X4363223Y-45487D01*
X4579138Y-18574D01*
X4584061Y-18160D01*
X4782569Y-9493D01*
X5000000Y-500D01*
X5000500Y-500D01*
X94999500Y-500D01*
X95000000Y-500D01*
X95217318Y-9488D01*
G37*
%TD.AperFunction*%
%TD*%
M02*
