%TF.GenerationSoftware,KiCad,Pcbnew,7.0.8*%
%TF.CreationDate,2024-02-17T12:00:41+01:00*%
%TF.ProjectId,Pendulo_Invertido,50656e64-756c-46f5-9f49-6e7665727469,rev?*%
%TF.SameCoordinates,Original*%
%TF.FileFunction,Soldermask,Top*%
%TF.FilePolarity,Negative*%
%FSLAX46Y46*%
G04 Gerber Fmt 4.6, Leading zero omitted, Abs format (unit mm)*
G04 Created by KiCad (PCBNEW 7.0.8) date 2024-02-17 12:00:41*
%MOMM*%
%LPD*%
G01*
G04 APERTURE LIST*
G04 Aperture macros list*
%AMRoundRect*
0 Rectangle with rounded corners*
0 $1 Rounding radius*
0 $2 $3 $4 $5 $6 $7 $8 $9 X,Y pos of 4 corners*
0 Add a 4 corners polygon primitive as box body*
4,1,4,$2,$3,$4,$5,$6,$7,$8,$9,$2,$3,0*
0 Add four circle primitives for the rounded corners*
1,1,$1+$1,$2,$3*
1,1,$1+$1,$4,$5*
1,1,$1+$1,$6,$7*
1,1,$1+$1,$8,$9*
0 Add four rect primitives between the rounded corners*
20,1,$1+$1,$2,$3,$4,$5,0*
20,1,$1+$1,$4,$5,$6,$7,0*
20,1,$1+$1,$6,$7,$8,$9,0*
20,1,$1+$1,$8,$9,$2,$3,0*%
G04 Aperture macros list end*
%ADD10RoundRect,0.250000X-0.600000X-0.750000X0.600000X-0.750000X0.600000X0.750000X-0.600000X0.750000X0*%
%ADD11O,1.700000X2.000000*%
%ADD12R,1.524000X1.524000*%
%ADD13C,1.524000*%
%ADD14C,1.600000*%
%ADD15RoundRect,0.250000X1.750000X-1.750000X1.750000X1.750000X-1.750000X1.750000X-1.750000X-1.750000X0*%
%ADD16C,4.000000*%
%ADD17C,5.600000*%
%ADD18O,3.500000X3.500000*%
%ADD19R,1.905000X2.000000*%
%ADD20O,1.905000X2.000000*%
%ADD21R,1.600000X1.600000*%
%ADD22O,1.600000X1.600000*%
G04 APERTURE END LIST*
D10*
%TO.C,M2*%
X91500000Y-13000000D03*
D11*
X94000000Y-13000000D03*
%TD*%
D10*
%TO.C,M1*%
X6500000Y-13000000D03*
D11*
X9000000Y-13000000D03*
%TD*%
D12*
%TO.C,ESP32-DEVKIT-V1*%
X59370000Y-45940000D03*
D13*
X59370000Y-43400000D03*
X59370000Y-40860000D03*
X59370000Y-38320000D03*
X59370000Y-35780000D03*
X59370000Y-33240000D03*
X59370000Y-30700000D03*
X59370000Y-28160000D03*
X59370000Y-25620000D03*
X59370000Y-23080000D03*
X59370000Y-20540000D03*
X59370000Y-18000000D03*
X59370000Y-15460000D03*
X59370000Y-12920000D03*
X59370000Y-10380000D03*
D12*
X85000000Y-45940000D03*
D13*
X85000000Y-43400000D03*
X85000000Y-40860000D03*
X85000000Y-38320000D03*
X85000000Y-35780000D03*
X85000000Y-33240000D03*
X85000000Y-30700000D03*
X85000000Y-28160000D03*
X85000000Y-25620000D03*
X85000000Y-23080000D03*
X85000000Y-20540000D03*
X85000000Y-18000000D03*
X85000000Y-15460000D03*
X85000000Y-12920000D03*
X85000000Y-10380000D03*
%TD*%
D14*
%TO.C,C1*%
X9000000Y-20000000D03*
X6500000Y-20000000D03*
%TD*%
D15*
%TO.C,BT1*%
X6000000Y-40200000D03*
D16*
X6000000Y-33000000D03*
%TD*%
D14*
%TO.C,C2*%
X91500000Y-20000000D03*
X94000000Y-20000000D03*
%TD*%
D17*
%TO.C,H2*%
X95000000Y-5000000D03*
%TD*%
%TO.C,H3*%
X95000000Y-55000000D03*
%TD*%
D13*
%TO.C,MPU_6050*%
X34000000Y-27932500D03*
X34000000Y-30472500D03*
X34000000Y-33012500D03*
X34000000Y-35552500D03*
X34000000Y-38092500D03*
X34000000Y-40632500D03*
X34000000Y-43172500D03*
X34000000Y-45712500D03*
%TD*%
D17*
%TO.C,H1*%
X5000000Y-5000000D03*
%TD*%
D14*
%TO.C,C3*%
X15000000Y-38350000D03*
X15000000Y-34850000D03*
%TD*%
D13*
%TO.C,TB6612FNG1*%
X34000000Y-5220000D03*
X34000000Y-7760000D03*
X34000000Y-10300000D03*
X34000000Y-12840000D03*
X34000000Y-15380000D03*
X34000000Y-17920000D03*
X34000000Y-20460000D03*
X34000000Y-23000000D03*
X51860000Y-5220000D03*
X51860000Y-7760000D03*
X51860000Y-10300000D03*
X51860000Y-12840000D03*
X51860000Y-15380000D03*
X51860000Y-17920000D03*
X51860000Y-20460000D03*
X51860000Y-23000000D03*
%TD*%
D18*
%TO.C,U1*%
X23000000Y-6570000D03*
D19*
X20460000Y-23230000D03*
D20*
X23000000Y-23230000D03*
X25540000Y-23230000D03*
%TD*%
D21*
%TO.C,SW1*%
X24000000Y-56767500D03*
D22*
X24000000Y-49147500D03*
%TD*%
D17*
%TO.C,H4*%
X5000000Y-55000000D03*
%TD*%
D21*
%TO.C,SW2*%
X15000000Y-56620000D03*
D22*
X15000000Y-49000000D03*
%TD*%
M02*
