M48
; DRILL file {KiCad 7.0.8} date Sat Feb 17 12:00:45 2024
; FORMAT={-:-/ absolute / inch / decimal}
; #@! TF.CreationDate,2024-02-17T12:00:45+01:00
; #@! TF.GenerationSoftware,Kicad,Pcbnew,7.0.8
; #@! TF.FileFunction,Plated,1,2,PTH
FMAT,2
INCH
; #@! TA.AperFunction,Plated,PTH,ViaDrill
T1C0.0157
; #@! TA.AperFunction,Plated,PTH,ComponentDrill
T2C0.0300
; #@! TA.AperFunction,Plated,PTH,ComponentDrill
T3C0.0315
; #@! TA.AperFunction,Plated,PTH,ComponentDrill
T4C0.0394
; #@! TA.AperFunction,Plated,PTH,ComponentDrill
T5C0.0433
; #@! TA.AperFunction,Plated,PTH,ComponentDrill
T6C0.1181
; #@! TA.AperFunction,Plated,PTH,ComponentDrill
T7C0.1260
%
G90
G05
T1
X0.3051Y-0.5807
X0.4Y-0.4
X0.4Y-1.2
X0.4Y-2.0
X0.8Y-1.6
X0.8Y-2.0
X1.2Y-0.4
X1.2Y-0.8
X1.2Y-1.2
X1.2Y-1.6
X1.2Y-2.0
X1.2008Y-0.6102
X1.3386Y-0.9941
X1.6Y-0.8
X1.6Y-1.2
X1.6Y-1.6
X1.6Y-2.0
X2.0Y-1.2
X2.0Y-1.6
X2.0Y-2.0
X2.126Y-0.2657
X2.126Y-0.4134
X2.126Y-0.5217
X2.126Y-0.6201
X2.126Y-0.7087
X2.2146Y-1.0138
X2.2638Y-0.7874
X2.372Y-0.8563
X2.4Y-1.6
X2.4Y-2.0
X2.4016Y-0.4331
X2.4016Y-0.5413
X2.4016Y-0.6496
X2.4016Y-1.0925
X2.4114Y-1.1811
X2.4213Y-1.2795
X2.4213Y-1.4272
X2.8Y-0.4
X2.8Y-0.8
X2.8Y-1.2
X2.8Y-1.6
X2.8Y-2.0
X3.2Y-0.4
X3.2Y-0.8
X3.2Y-1.2
X3.2Y-1.6
X3.2Y-2.0
X3.2776Y-0.5217
X3.5335Y-0.4626
X3.6Y-0.4
X3.6Y-1.2
X3.6Y-1.6
X3.6Y-2.0
X3.6516Y-0.6004
T2
X1.3386Y-0.2055
X1.3386Y-0.3055
X1.3386Y-0.4055
X1.3386Y-0.5055
X1.3386Y-0.6055
X1.3386Y-0.7055
X1.3386Y-0.8055
X1.3386Y-0.9055
X1.3386Y-1.0997
X1.3386Y-1.1997
X1.3386Y-1.2997
X1.3386Y-1.3997
X1.3386Y-1.4997
X1.3386Y-1.5997
X1.3386Y-1.6997
X1.3386Y-1.7997
X2.0417Y-0.2055
X2.0417Y-0.3055
X2.0417Y-0.4055
X2.0417Y-0.5055
X2.0417Y-0.6055
X2.0417Y-0.7055
X2.0417Y-0.8055
X2.0417Y-0.9055
X2.3374Y-0.4087
X2.3374Y-0.5087
X2.3374Y-0.6087
X2.3374Y-0.7087
X2.3374Y-0.8087
X2.3374Y-0.9087
X2.3374Y-1.0087
X2.3374Y-1.1087
X2.3374Y-1.2087
X2.3374Y-1.3087
X2.3374Y-1.4087
X2.3374Y-1.5087
X2.3374Y-1.6087
X2.3374Y-1.7087
X2.3374Y-1.8087
X3.3465Y-0.4087
X3.3465Y-0.5087
X3.3465Y-0.6087
X3.3465Y-0.7087
X3.3465Y-0.8087
X3.3465Y-0.9087
X3.3465Y-1.0087
X3.3465Y-1.1087
X3.3465Y-1.2087
X3.3465Y-1.3087
X3.3465Y-1.4087
X3.3465Y-1.5087
X3.3465Y-1.6087
X3.3465Y-1.7087
X3.3465Y-1.8087
T3
X0.2559Y-0.7874
X0.3543Y-0.7874
X0.5906Y-1.372
X0.5906Y-1.5098
X0.5906Y-1.9291
X0.5906Y-2.2291
X0.9449Y-1.9349
X0.9449Y-2.2349
X3.6024Y-0.7874
X3.7008Y-0.7874
T4
X0.2559Y-0.5118
X0.3543Y-0.5118
X3.6024Y-0.5118
X3.7008Y-0.5118
T5
X0.8055Y-0.9146
X0.9055Y-0.9146
X1.0055Y-0.9146
T6
X0.2362Y-1.2992
X0.2362Y-1.5827
T7
X0.1969Y-0.1969
X0.1969Y-2.1654
X3.7402Y-0.1969
X3.7402Y-2.1654
T0
M30
